<?xml version="1.0" encoding="UTF-8"?>
<svg viewBox="0 0 305.72638 225.82367" xmlns="http://www.w3.org/2000/svg">
 <g transform="translate(-209.99 -85.165)">
  <path d="m301.83 308.97c-6.585-3.2156-15.76-12.98-18.998-20.218-6.1594-13.768-7.5065-20.029-7.4402-34.583 0.0624-13.702 1.6111-22.565 5.1329-29.376l1.533-2.9646-3.0314 2.4202c-1.6672 1.3311-4.5309 5.0456-6.3637 8.2545-4.1829 7.3234-6.6854 9.8472-9.027 9.104-1.0038-0.31859-1.8054-0.07787-1.8054 0.54212 0 1.9333-5.1904 6.0196-7.646 6.0196-2.0073 0-2.354-0.49737-2.354-3.3776 0-1.8576 0.63546-3.9049 1.4121-4.5495s1.9658-3.5122 2.6426-6.3724 2.2943-7.6755 3.5947-10.7c2.0879-4.8572 2.1323-5.2078 0.37968-3-1.0915 1.375-2.0015 2.95-2.0221 3.5-0.07507 1.9993-1.5725 3.263-4.6602 3.9326-2.9344 0.63638-3.2328 0.44287-4.2992-2.7886-0.9263-2.8067-0.84899-4.1833 0.40324-7.1803 0.85209-2.0393 1.5472-3.7654 1.5448-3.8358s-1.6237-0.21161-3.6027-0.31395c-4.4668-0.23099-4.556-0.32493-4.7413-4.9958-0.13291-3.3503-0.42716-3.7798-2.4015-3.5053-1.346 0.18716-2.2544-0.21462-2.261-1-0.00605-0.72207-0.2786-2.9306-0.60566-4.9077-0.51125-3.0906-0.12498-4.1298 2.7537-7.4085 1.8416-2.0975 5.6017-4.9038 8.3557-6.2363s3.8823-2.1919 2.5073-1.9098-4.3 0.82877-6.5 1.2148c-4.6196 0.81066-8.6618 2.6692-13.213 6.0751l-3.2127 2.4044-1.5373-2.9728c-2.1111-4.0824-1.9489-5.4295 1.0885-9.0392 3.0981-3.6819 8.9239-6.8452 14.718-7.9915l4.1562-0.82229-3.5-0.0876c-6.8334-0.17104-16.734 5.8732-20.986 12.812-2.1771 3.5528-2.9417 4.057-6.1522 4.057s-3.8018-0.38923-4.7639-3.1492c-1.6259-4.664-1.4864-5.0874 3.3312-10.115 4.7614-4.9693 10.392-8.284 17.571-10.343l4.5-1.2909-7.3953 0.11395-7.3953 0.11396-1.4852-3.7237c-1.4474-3.629-1.4135-3.7985 1.3324-6.6646 3.1422-3.2797 4.9872-3.5762 9.783-1.5724l3.2754 1.3686-0.42005-2.8619c-0.67223-4.5802 0.74675-9.9078 3.3258-12.487 2.8734-2.8734 6.8828-3.2934 6.094-0.63828-0.28594 0.9625-0.83365 3.1-1.2171 4.75-0.69202 2.9776-0.68165 2.9862 1.3895 1.152 1.1477-1.0164 2.5651-1.5523 3.1497-1.191 0.60261 0.37244 1.0555-0.12652 1.0456-1.152-0.02699-2.8116-2.6681-14.471-4.034-17.809-1.0866-2.6551-1.379-5.0438-1.0487-8.5664 0.055-0.58653 1.3262-0.92403 2.8249-0.75 1.9744 0.22928 3.347 1.418 4.9836 4.3164 2.5061 4.4383 2.8206 3.2342 1.2278-4.7008-1.4387-7.1672-2.7496-10.505-6.1568-15.677-1.5862-2.4076-3.0035-5.8952-3.1496-7.75-0.23647-3.0026 0.00898-3.3724 2.2378-3.3724 1.3769 0 3.617 1.0125 4.978 2.25 2.0284 1.8444 2.3586 1.9277 1.8313 0.46215-0.77642-2.1579 1.3086-3.1836 4.7274-2.3255 2.9577 0.74234 8.3085 8.5873 9.7431 14.285 0.72043 2.8611 1.4847 4.0233 2.4117 3.6676 0.88541-0.33976 1.5504 0.46663 1.9133 2.3202 0.30592 1.5625 1.1459 4.6893 1.8667 6.9484 0.8759 2.7454 1.0058 4.9008 0.39158 6.5-1.8759 4.8845-3.7571 18.529-3.1562 22.893 0.91504 6.6446 4.3519 15.629 7.1224 18.618 1.9986 2.1565 3.0397 2.524 5.8555 2.0671 2.7402-0.44466 3.7222-0.131 4.9131 1.5692 1.8984 2.7104 1.1072 3.574-1.2882 1.4062-1.0092-0.9133-2.9454-1.6605-4.3026-1.6605-3.3509 0-3.2774 4.0245 0.12521 6.8543 1.375 1.1435 2.05 2.0919 1.5 2.1075-1.8893 0.05348-7.084-5.0486-5.7184-5.6165 0.88031-0.36609 0.18939-1.7419-2.2067-4.394-4.2761-4.7332-7.9092-11.638-7.1561-13.6 0.32108-0.83671 0.12558-1.1875-0.46007-0.82557-1.2872 0.79554-0.36923-12.826 1.6279-24.156 1.1496-6.522 1.1994-9.1437 0.25155-13.25-0.64991-2.8156-1.5544-5.1192-2.0099-5.1192-0.79308 0-0.92895 3.5214-1.0418 27-0.04002 8.326-0.21218 9.5683-0.83151 6-0.57889-3.3353-0.72435-1.9118-0.562 5.5 0.24815 11.329 2.3366 17.501 7.9083 23.369 3.3818 3.562 9.1531 6.586 10.721 5.6172 0.5136-0.31742 3.2755 0.11826 6.1375 0.96819 6.629 1.9686 18.658 1.977 27.964 0.01944 6.1781-1.2996 7.459-1.3206 8.638-0.14167s1.1586 1.9242-0.13722 5.0255c-0.83678 2.0027-2.6985 5.1845-4.1372 7.0707-1.9054 2.4982-2.5304 4.369-2.3012 6.8893l0.31459 3.4598 7.1903-8.2435c8.5149-9.7621 12.123-16.011 10.63-18.409-1.9182-3.0803-7.269-4.1749-17.549-3.59-11.422 0.64994-17.075-0.5422-19.401-4.0918-1.2588-1.9211-1.9278-2.2259-2.9763-1.3557-2.1484 1.783 0.14007 4.8191 5.3793 7.1366 3.7787 1.6715 5.9119 1.937 11.914 1.483 4.097-0.30986 7.3117-0.1556 7.3117 0.35085 0 1.1813-4.58 2.3196-5.9432 1.4771-0.58126-0.35924-1.0568-0.10977-1.0568 0.55439 0 1.7788-15.339 0.49169-21.529-1.8066-2.7338-1.015-4.7884-2.0565-4.5657-2.3142s-0.33977-1.9088-1.25-3.669c-1.9676-3.805-2.0233-4.2997-0.4837-4.2997 0.64419 0 1.9744-0.72688 2.9561-1.6153 1.6432-1.487 1.9131-1.487 3.4002 0 1.8866 1.8866 2.6891 1.9986 4.1136 0.57416 0.72151-0.7215 2.0297-0.03076 4.2614 2.25l3.2203 3.2911h13.189c16.219 0 20.689 1.43 20.689 6.62 0 1.7721-1.3148 5.9576-2.9219 9.301-3.0813 6.4107-6.905 18.553-4.7778 15.172 6.1773-9.8182 16.406-19.995 21.956-21.845 0.62785-0.20929 0.78513-1.446 0.38607-3.036-0.49586-1.9757-1.2333-2.6208-2.7977-2.4474-2.5146 0.27874-3.4986-1.6238-1.6483-3.187 6.1681-5.2115 9.4396-7.1429 11.267-6.6518 1.1199 0.30087 3.2912 0.55319 4.8252 0.5607 1.8932 0.00927 4.0613 1.2733 6.75 3.9352 4.2318 4.1898 5.0517 6.3836 2.211 5.9162-2.1501-0.35372-4.2526 0.87106-4.2423 2.4712 0.00424 0.65504 1.7191 2.1679 3.8108 3.3619 5.8357 3.3313 12.329 9.083 16.03 14.2l3.3487 4.6292-0.72123-4.5c-0.39667-2.475-2.2411-7.5263-4.0987-11.225-3.9929-7.9505-4.0744-8.7825-1.1274-11.505 3.3326-3.0785 9.0315-4.2584 20.599-4.2646 10.346-0.00557 10.35-0.00658 13.332-3.1989 2.382-2.5499 3.3191-2.9812 4.6512-2.1409 1.2131 0.76528 2.2368 0.67992 3.7522-0.3129 1.782-1.1675 2.5442-1.1357 5.2605 0.21937 3.2368 1.6147 3.2627 2.215 0.25345 5.8668-1.4612 1.7732-1.3394 1.7599 1.4232-0.15509 3.0684-2.127 8.231-2.1331 9.6143-0.01134 0.75342 1.1556 5.1007-5.9881 7.4885-12.305 2.2346-5.9119 2.2782-22.732 0.07434-28.642-1.2833-3.4417-1.3723-5.4181-0.50672-11.25 1.2975-8.7419 2.6229-9.3746 1.7278-0.82481-0.41858 3.9981-0.13689 8.8543 0.78181 13.478 0.9816 4.9404 1.2805 10.954 0.94435 19-0.57613 13.791-0.40264 12.54-1.634 11.779-0.5437-0.33602-0.75752-0.00892-0.47516 0.72689 0.49915 1.3008-5.2709 9.766-6.6567 9.766-0.38081 0-0.47202 0.84266-0.20269 1.8726 0.33716 1.2893-0.49732 2.5754-2.679 4.1289-2.9081 2.0707-3.0368 2.3883-1.5646 3.8605 1.2567 1.2566 1.9792 1.3572 3.3354 0.46416 0.95218-0.627 1.6187-1.6319 1.4812-2.233s0.40917-1.0931 1.2148-1.0931 1.9532-0.9126 2.5502-2.028 1.4164-1.8234 1.8209-1.5734 0.80135-0.29987 0.8818-1.222 1.3439-5.0516 2.8078-9.1766c2.1598-6.0861 2.7246-9.668 2.9959-19 0.33296-11.451 0.33076-11.464-0.51661-3-0.46805 4.675-1.3262 9.85-1.9071 11.5-0.94607 2.6875-0.99364 2.5373-0.45666-1.4414 2.0634-15.289 1.7848-34.351-0.57027-39.017-1.0646-2.1092 1.4068-12.865 3.6447-15.863 3.1143-4.1713 6.7969-6.4688 9.1643-5.7174 2.4533 0.77864 2.6914 3.1988 0.58837 5.9793-0.80751 1.0676-1.4682 2.4116-1.4682 2.9866s1.5474-1.2522 3.4387-4.0606c3.5931-5.3355 5.0855-6.3672 9.2105-6.3672 2.119 0 2.382 0.33182 1.7834 2.25-0.3862 1.2375-1.0409 2.475-1.455 2.75-1.6038 1.0652-7.7905 13.679-8.3378 17-0.31729 1.925-0.86333 6.6282-1.2134 10.452l-0.63654 6.9516 2.694-3.2016c2.5537-3.0349 6.7188-4.3008 7.8941-2.3992 0.27276 0.44134-0.6037 3.9288-1.9477 7.75s-2.848 8.3873-3.3423 10.147c-0.84615 3.0123-0.78347 3.1293 1.0718 2 1.6728-1.0182 2.2629-0.84268 3.9054 1.1614l1.9349 2.3608v-3.1108c0-3.9247 2.2819-4.1364 4.7061-0.43664 1.1368 1.735 1.7268 4.5004 1.6798 7.8744l-0.07234 5.2003 4.1594-1.8399c4.0881-1.8084 4.2311-1.8044 8.3432 0.23008 2.3011 1.1385 4.1851 2.3605 4.1866 2.7155s-1.0102 2.558-2.2483 4.8955l-2.2511 4.25-7.5017 0.10957c-6.6897 0.0977-7.0586 0.19741-3.4084 0.9211 9.6636 1.9159 17.743 7.3578 21.534 14.504 2.2172 4.1795 2.241 4.4694 0.64051 7.8256-1.6221 3.4015-1.7474 3.4591-5.2151 2.3948-1.9542-0.59975-3.553-1.5039-3.553-2.0092s-1.4296-2.9095-3.177-5.3426c-3.4502-4.8043-13.068-10.429-17.733-10.37-1.868 0.02354-1.1456 0.53185 2.5907 1.823 2.8495 0.98468 7.237 3.4751 9.75 5.5343 4.1752 3.4213 4.569 4.1261 4.569 8.177 0 2.4382-0.1678 4.433-0.37288 4.433s-2.5482-0.96222-5.2068-2.1383c-5.2627-2.328-14.519-4.7695-18.297-4.8261-2.0068-0.03008-1.589 0.54707 2.6857 3.7098 5.7208 4.2327 9.8635 9.9928 10.808 15.028 0.8113 4.3246-2.2288 8.865-5.6654 8.4613-1.243-0.14603-3.074 0.47105-4.0687 1.3713s-2.5004 1.3714-3.3459 1.0469c-1.819-0.698-1.8995 0.00965-0.46848 4.1148 0.84002 2.4097 0.73494 3.7115-0.49092 6.082-1.4287 2.7627-1.8239 2.9404-4.7046 2.1142-1.7297-0.49607-3.2112-1.0283-3.2922-1.1828s-0.73103-1.4438-1.4445-2.8651-2.3948-3.8963-3.7364-5.5l-2.4393-2.9157 1.9714 3.5009c1.0843 1.9255 3.3328 7.3255 4.9967 12s3.9597 9.2657 5.1016 10.203c1.9817 1.626 1.9995 1.8208 0.39105 4.2756-1.888 2.8815-4.3865 2.693-7.9959-0.60323-1.1408-1.0418-2.3444-1.624-2.6746-1.2938-1.5744 1.5744-4.9866-1.2413-7.7446-6.3909-1.6765-3.1302-4.5827-7.4913-6.4583-9.6913l-3.4102-4 1.9936 7.5c1.6671 6.2716 1.927 9.793 1.5869 21.5-0.2237 7.7-0.98117 16.25-1.6833 19-3.9701 15.55-9.4099 27.071-15.15 32.084-4.213 3.6797-11.653 7.4162-14.767 7.4162-6.2744 0-10.062-3.4542-8.6532-7.892 1.005-3.1666 4.0464-3.1564 6.836 0.02271 2.2271 2.538 2.8557 2.76 5.2449 1.8516 3.6397-1.3838 8.2496-4.7341 9.3591-6.8018 0.79053-1.4732 0.26614-1.6805-4.252-1.6805-4.4871 0-5.1538-0.25871-5.1538-2 0-1.6525 0.85496-2.0982 4.9204-2.5649 9.266-1.0638 14.58-10.54 14.58-26.001 0-8.7592-2.8591-21.452-6.7382-29.914-2.1463-4.682-1.9212-4.54-4.7754-3.0124-2.2958 1.2287-2.7618 1.103-5.4452-1.4679-1.614-1.5463-3.1161-3.9878-3.338-5.4255l-0.40347-2.614-0.14983 2.7243c-0.10325 1.8774-1.0085 3.1684-2.9122 4.1528-2.5469 1.317-2.9759 1.2448-5.5-0.92635-1.5057-1.2952-2.7376-3.2939-2.7376-4.4418v-2.0869l-2.187 2.0376-2.187 2.0375-2.313-2.1729c-1.2721-1.1951-2.3198-3.332-2.3283-4.7486s-0.42026-3.2155-0.9152-3.9975c-0.66771-1.055-1.1756-0.39768-1.9687 2.5476-1.5396 5.7174-5.3958 8.8329-16.386 13.238-5.3359 2.1388-11.284 5.0956-13.218 6.5708l-3.5165 2.6822-3.7401-2.0088c-2.0571-1.1048-6.8901-3.2033-10.74-4.6632-13.096-4.9661-20.5-10.69-20.5-15.849 0-0.87764-0.36-1.5957-0.8-1.5957-1.6282 0-3.2 2.478-3.2 5.045 0 3.1133-3.0906 6.2768-5.6505 5.7838-0.98961-0.19059-2.3665-1.4675-3.0597-2.8377s-1.267-1.8991-1.2751-1.1754 0.41786 2.1241 0.94659 3.112c1.4472 2.7042-2.7976 6.4024-6.3309 5.5156-2.2944-0.57586-2.6394-1.1893-2.7007-4.8018-0.05481-3.2302-0.25941-3.7015-0.92971-2.1416-0.47269 1.1-0.89106 3.2008-0.92971 4.6684-0.05106 1.9383-1.0412 3.2685-3.6185 4.8614-3.4058 2.1049-3.6268 2.1218-5.5061 0.42102-1.0769-0.97454-2.1191-1.5872-2.3161-1.3614-0.65984 0.75624-4.4355 13.331-6.2788 20.911-1.065 4.3797-1.8294 11.244-1.8373 16.5-0.01276 8.5294 0.15574 9.2436 3.2225 13.66 3.8036 5.4772 8.7769 8.8402 13.073 8.8402 3.571 0 4.8776 1.4677 3.1546 3.5438-1.3954 1.6814-5.6789 1.8952-9.4261 0.47048-2.3794-0.90465-2.5066-0.82504-1.5471 0.96797 0.57507 1.0745 3.175 3.5821 5.7775 5.5724 3.9558 3.0252 5.2956 3.5278 8.1684 3.0646 2.008-0.32374 4.2942-1.6203 5.5-3.1192 1.9474-2.4208 2.1902-2.4757 4.3136-0.97591 2.7123 1.9157 2.781 3.2597 0.31738 6.2123-3.8637 4.6307-9.3649 5.3375-16.067 2.0645zm14.265-2.8999c1.343-1.6433 1.495-2.4852 0.63596-3.5203-0.9268-1.1167-1.4692-0.92813-3.0272 1.0526-4.1741 5.3065-11.681 3.6839-18.961-4.0986-11.421-12.208-14.111-28.184-8.5502-50.78 2.7626-11.227 8.1662-25.954 12.128-33.054 1.9146-3.4314 2.0533-4.3348 0.9762-6.3553l-1.2556-2.3553-2.2274 2.2274c-3.6846 3.6846-10.066 18.621-13.209 30.918-2.3368 9.1424-2.9894 13.974-3.1152 23.065-0.14308 10.34 0.12167 12.257 2.6239 19 3.1969 8.6154 8.7249 17.072 13.896 21.257 7.2774 5.8901 16.447 7.0972 20.086 2.6442zm110.33-2.7435c6.3884-4.6561 10.359-9.3005 13.411-15.689 4.029-8.4313 5.1141-14.209 5.1679-27.516 0.07894-19.519-4.1576-34.822-14.036-50.701-2.9512-4.7436-3.7285-5.133-4.6226-2.3161-0.33791 1.0646-1.2677 2.0772-2.0662 2.25-1.1068 0.2396-0.72586 1.3836 1.6033 4.8143 12.751 18.781 19.474 44.578 15.983 61.329-0.66817 3.2061-1.4575 5.5866-1.7541 5.29s-1.5055 0.8945-2.6864 2.6469c-2.8706 4.2596-8.1896 7.7184-11.997 7.8014-2.8558 0.06231-2.933 0.1496-0.97144 1.0996 3.452 1.6718 10.757-2.0922 13.257-6.8308 1.1132-2.11 2.0439-3.4296 2.0682-2.9325 0.08801 1.7999-6.8618 13.16-9.6247 15.732-3.471 3.2315-8.5356 5.8642-11.281 5.8642-1.1273 0-2.9661-0.91641-4.0861-2.0365-2.1153-2.1153-3.9635-1.8608-3.9635 0.5458 0 4.307 10.009 4.7229 15.6 0.64821zm-123.04-9.6078c1.8769-1.4023 1.8672-1.4316-0.29282-0.88757-3.6617 0.92233-7.1238-0.48981-11.825-4.8234-4.7517-4.38-5.2823-4.3665-2.9849 0.07606 1.635 3.1617 6.0672 5.6126 12.603 6.9692 0.30738 0.0638 1.4324-0.53662 2.5-1.3343zm-25.126-35.55c0.83939-12.282 5.619-29.7 11.202-40.825 3.6011-7.1752 4.1092-8.8589 3.0064-9.9617-2.1565-2.1565-11.305 2.4727-16.57 8.3852-4.2873 4.8139-12.071 19.569-12.071 22.882 0 2.9796 2.3702 1.0177 5.7422-4.753 3.4585-5.9189 11.779-14.728 13.912-14.728 0.85192 0 0.33813 2.1754-1.5942 6.75-3.6457 8.6306-5.0422 15.621-5.2441 26.25-0.34238 18.021 0.56585 21.389 1.6176 6zm170.11-15.932c-0.61813-8.9564-2.7662-18.666-5.1486-23.273-0.79476-1.5369-1.0286-2.7943-0.51967-2.7943 1.6073 0 11.196 11.153 14.267 16.596 2.7564 4.884 5.8587 7.6818 5.8587 5.2836 0-0.58148-2.0211-5.2682-4.4913-10.415-7.0917-14.776-17.426-24.001-24.478-21.85l-2.9023 0.88511 3.933 6.5c6.6008 10.909 11.651 29.177 12.025 43.5l0.15683 6 0.94017-6c0.51709-3.3 0.67829-9.7945 0.35822-14.432zm-189.25 0.68223c1.3151-1.7875 2.9896-4.825 3.7212-6.75 4.419-11.628 12.433-23.47 18.307-27.052 1.9819-1.2084 2.554-1.9421 1.5162-1.9445-0.91666-0.00206-1.8372-0.51546-2.0457-1.1409-0.65407-1.9622-8.9871 2.4831-12.994 6.9319-4.8658 5.402-7.4657 10.656-9.3694 18.934-0.85647 3.7242-2.2022 7.768-2.9906 8.9861-3.5393 5.469-0.03223 7.3201 3.8559 2.0352zm214.04-1.1769c0.30115-0.78478-0.1267-1.9865-0.95079-2.6704-1.43-1.1868-4.1596-6.7168-4.8879-9.9027-2.1276-9.3062-7.8193-17.867-15.087-22.693-4.9-3.2534-5.7055-3.4926-8.0959-2.4034l-2.6545 1.2095 2.9566 1.798c5.0515 3.072 11.078 11.308 16.387 22.397 4.7223 9.8627 7.6905 13.691 10.615 13.691 0.64378 0 1.4169-0.6421 1.718-1.4269zm-101.33-10.936c2.475-1.3005 6.3-2.9368 8.5-3.6363 10.282-3.2692 15.5-8.275 15.5-14.869 0-4.5701 2.6-3.9154 5.5228 1.3909 1.6324 2.9636 1.6378 2.9475 1.1684-3.5228-0.41358-5.701-4.3424-17.537-6.7521-20.342-0.39798-0.46324-0.48548 2.1243-0.19444 5.75s0.26361 6.5922-0.06096 6.5922-1.4988-2.0543-2.6095-4.5652-4.9481-7.4939-8.5277-11.073c-5.32-5.32-6.9226-6.3916-8.7774-5.8693-1.733 0.488-1.9186 0.39823-0.7855-0.37995 1.1982-0.82292 0.7716-1.3164-2.2179-2.5655-2.0358-0.85062-4.166-1.5466-4.7336-1.5466s-1.0321-0.45-1.0321-1 0.41968-1 0.93261-1 1.2085-0.86937 1.5458-1.9319 1.8301-2.3589 3.3174-2.8808l2.7042-0.94888-2.6136-1.0426c-1.4375-0.57342-2.8859-1.7521-3.2186-2.6192-0.93052-2.4249-3.4151-1.9113-3.2574 0.67339 0.0755 1.2375-0.40033 3.3185-1.0574 4.6244s-0.95715 2.9934-0.66683 3.75c0.31044 0.80901-0.12156 1.3756-1.0489 1.3756-2.0634 0-4.7729-8.7637-3.4782-11.25 1.2717-2.4422-0.73453-2.2687-2.8911 0.25-0.94185 1.1-2.2323 2-2.8678 2s-1.7155 0.675-2.4002 1.5c-1.0392 1.2522-0.89853 1.5 0.85188 1.5 1.2987 0 2.6634 1.0957 3.5854 2.8788 0.81879 1.5834 2.1803 3.1442 3.0257 3.4686s1.5015 1.1664 1.458 1.8712c-0.06183 1.0036-0.18827 1.0104-0.58333 0.03138-0.27741-0.6875-1.1684-1.25-1.9801-1.25-0.86081 0-1.1784 0.48105-0.76216 1.1545 0.43428 0.70268 0.27513 0.88356-0.40669 0.46218-3.6913-2.2814-18.091 10.498-23.081 20.484-1.5895 3.181-3.164 5.5096-3.4988 5.1748-1.0676-1.0676-0.56917-7.6401 0.89009-11.737 0.77608-2.1789 1.2063-4.1664 0.95611-4.4167s-0.46496-0.04244-0.47719 0.46172-0.95128 2.0417-2.0868 3.4167-1.7697 1.825-1.4093 1c1.1748-2.6893-5.5568 5.3833-8.1928 9.8248-3.0327 5.1101-4.3253 16.37-2.3112 20.134 1.2057 2.2529 1.2502 2.2581 3.1415 0.36683 1.6149-1.6149 1.75-2.4017 0.85376-4.9727-1.3432-3.853 0.08575-13.436 2.9785-19.976 2.9611-6.6941 3.4415-4.9339 0.5927 2.1718-2.225 5.5497-2.9855 10.433-2.5622 16.452 0.11117 1.5807 0.37866 1.9484 0.72738 1 1.3881-3.7752 6.2906-6.8155 6.2906-3.9011 0 2.742 3.4779 7.9603 6.8738 10.314 2.0496 1.4204 8.429 4.4118 14.176 6.6476s10.874 4.484 11.393 4.996c0.5837 0.57588 1.7277 0.36169 3-0.56168 1.1311-0.82088 4.0815-2.5565 6.5565-3.857zm-10.009-3.1485c-1.0284-1.2391-0.87956-1.489 0.8867-1.489 1.1673 0 2.1224 0.42344 2.1224 0.94098 0 1.7325-1.7601 2.053-3.0091 0.54801zm-4.3242-0.15566c-1.1506-1.1506-0.72824-2.3333 0.83333-2.3333 0.825 0 1.5 0.675 1.5 1.5 0 1.5616-1.1827 1.984-2.3333 0.83333zm8.5-0.33333c0.50335-1.51 2.1114-1.6657 2.5833-0.25 0.22917 0.6875-0.33333 1.25-1.25 1.25s-1.5167-0.45-1.3333-1zm4.376-0.9309c-0.73955-1.1966 1.1416-2.3822 2.4736-1.559 1.1184 0.69118 0.38417 2.4899-1.0163 2.4899-0.48508 0-1.1409-0.41891-1.4573-0.9309zm-17.543-1.0691c0-0.55 0.675-1 1.5-1s1.5 0.45 1.5 1-0.675 1-1.5 1-1.5-0.45-1.5-1zm-3.5411-1.0665c-0.36253-0.58659-0.41903-1.3066-0.12555-1.6001 0.71632-0.71631 2.6667 0.54583 2.6667 1.7257 0 1.278-1.7264 1.1927-2.5411-0.12555zm25.541 0.06653c0-0.55 0.675-1 1.5-1s1.5 0.45 1.5 1-0.675 1-1.5 1-1.5-0.45-1.5-1zm-29.905-0.94098c-0.99454-0.61466-1.0222-0.98628-0.11512-1.5469 0.65664-0.40582 1.6439-0.28787 2.1939 0.26213 1.3032 1.3032-0.37283 2.3391-2.0788 1.2848zm35.544 0.24713c-1.1262-1.1262-0.68589-2.3062 0.86052-2.3062 0.825 0 1.5 0.42344 1.5 0.94098 0 1.261-1.5616 2.1641-2.3605 1.3652zm-10.086-1.219c-1.0403-1.6832 0.4312-3.5021 1.759-2.1743 0.78284 0.78284 0.78284 1.3914 0 2.1743s-1.2752 0.78285-1.759 0zm-29.145-1.463c-0.83555-2.1774-0.25075-2.7622 1.6114-1.6114 1.1436 0.70678 1.199 1.1677 0.25382 2.1128s-1.352 0.83574-1.8652-0.50149zm19.443 0.70635c-0.90606-0.24066-1.9124-1.426-2.2364-2.634-0.86132-3.2121-0.74713-18.893 0.13372-18.363 0.4125 0.24822 0.81637-2.8412 0.89748-6.8653 0.18287-9.0722 1.778-14.387 4.2618-14.2 1.2115 0.09126 1.6446 0.72195 1.3277 1.9337-0.25863 0.98902 0.04104 1.7982 0.66595 1.7982 0.67642 0 0.94631 1.0471 0.66695 2.5877-0.35571 1.9616-0.11849 2.4531 0.98044 2.0314 0.79732-0.30596 1.4497-0.12041 1.4497 0.41232s-0.47757 0.96862-1.0613 0.96862c-0.68722 0-0.84077 1.6742-0.43567 4.75 1.126 8.5489 1.6365 10.25 3.0764 10.25 0.78129 0 1.4205 0.45 1.4205 1s-0.62195 1-1.3821 1c-1.6925 0-2.0458 7.6175-0.40041 8.6344 0.6998 0.4325 0.8012 0.20482 0.28253-0.6344-0.53532-0.86617-0.41844-1.0676 0.34549-0.59549 1.6406 1.0139 1.4301 2.5955-0.34549 2.5955-0.83945 0-1.5 0.89164-1.5 2.0248 0 1.2533-0.97732 2.3963-2.5651 3-2.6672 1.0141-2.8729 1.0253-5.5823 0.30569zm2.8974-10.02c-0.9625-0.25152-2.5375-0.25152-3.5 0s-0.175 0.45733 1.75 0.45733 2.7125-0.2058 1.75-0.45733zm2.853-3.1439c-0.48715-0.78822-6.603-0.37441-6.603 0.44677 0 0.21257 1.6016 0.3865 3.559 0.3865s3.3273-0.37497 3.044-0.83327zm-4.4156-2.8498c-0.72188-0.28887-1.5844-0.25335-1.9167 0.07894s0.25834 0.56864 1.3125 0.52522c1.165-0.04798 1.4019-0.28494 0.60417-0.60416zm4.3898-5.4419c0.69446-1.1236-2.6547-1.1121-4.434 0.01531-0.95612 0.60583-0.58161 0.85969 1.2682 0.85969 1.4438 0 2.8684-0.39375 3.1658-0.875zm-0.11996-3.9441c-0.85723-1.387-1.4573-1.1284-1.4573 0.62812 0 0.85746 0.45734 1.2764 1.0163 0.9309s0.75742-1.047 0.44098-1.559zm-2.4573-0.54753c0-0.21085-0.9-0.38337-2-0.38337s-2 0.40787-2 0.90638 0.9 0.67103 2 0.38337 2-0.69553 2-0.90638zm0.25-9.0456c-0.6875-0.27741-1.8125-0.27741-2.5 0s-0.125 0.50439 1.25 0.50439 1.9375-0.22698 1.25-0.50439zm20.389 34.968c-1.1262-1.1262-0.68589-2.3062 0.86052-2.3062 0.825 0 1.5 0.42344 1.5 0.94098 0 1.261-1.5616 2.1641-2.3605 1.3652zm-30.514-1.1812c0.41825-1.2547 1.875-1.5461 1.875-0.375 0 0.4125-0.50625 0.91875-1.125 1.125s-0.95625-0.13125-0.75-0.75zm20.042-0.125c0.50335-1.51 2.1114-1.6657 2.5833-0.25 0.22917 0.6875-0.33333 1.25-1.25 1.25s-1.5167-0.45-1.3333-1zm-24.527-0.69385c-1.1262-1.1262-0.68589-2.3062 0.86052-2.3062 0.825 0 1.5 0.42344 1.5 0.94098 0 1.261-1.5616 2.1641-2.3605 1.3652zm28.791-0.41795c-0.86201-1.3948 1.7409-3.1164 2.9236-1.9337 0.96192 0.96192 0.03523 3.0455-1.3545 3.0455-0.48508 0-1.1912-0.50031-1.5691-1.1118zm-41.264-0.8882c0.50335-1.51 2.1114-1.6657 2.5833-0.25 0.22917 0.6875-0.33333 1.25-1.25 1.25s-1.5167-0.45-1.3333-1zm8.8333-0.44098c0-0.85746 0.45-1.559 1-1.559 1.2939 0 1.2939 1.7003 0 2.5-0.55 0.33992-1-0.08352-1-0.94098zm42 0.44098c0-0.55 0.675-1 1.5-1s1.5 0.45 1.5 1-0.675 1-1.5 1-1.5-0.45-1.5-1zm-54-3c0-0.55 0.675-1 1.5-1s1.5 0.45 1.5 1-0.675 1-1.5 1-1.5-0.45-1.5-1zm20-0.5c0-0.91667 0.5625-1.4792 1.25-1.25 1.4157 0.47189 1.26 2.08-0.25 2.5833-0.55 0.18334-1-0.41666-1-1.3333zm19 0c0-0.825 0.675-1.5 1.5-1.5s1.5 0.675 1.5 1.5-0.675 1.5-1.5 1.5-1.5-0.675-1.5-1.5zm18 0.5c0-0.55 0.45-1 1-1s1 0.45 1 1-0.45 1-1 1-1-0.45-1-1zm-51.127-2.3129c-2.753-1.8603-3.3145-2.8219-3.0556-5.2331 0.53425-4.9752 5.8135-15.142 10.477-20.177 2.4526-2.648 4.2019-5.4091 3.9253-6.1958-0.28962-0.82372 0.44338-0.54119 1.7471 0.67341 1.2353 1.1509 1.9704 2.5386 1.6335 3.0837s-0.04728 1.1984 0.64365 1.4516c1.0051 0.36838 1.0064 0.72526 0.00623 1.7854-0.6875 0.72875-1.25 0.86-1.25 0.29167s-0.6125-1.0333-1.3611-1.0333c-1.778 0-1.5527 2.8014 0.36111 4.4909 1.2982 1.1461 1.2109 1.2631-0.64867 0.87012-1.8844-0.39825-2.4033 0.36143-4.2189 6.1758-1.1386 3.6464-2.3683 8.5524-2.7327 10.902s-0.99807 4.4796-1.4083 4.7331-2.2636-0.56464-4.1186-1.8181zm2.1272-0.15196c0-0.25565-1.0125-0.95547-2.25-1.5552-2.1606-1.047-2.1729-1.0286-0.30887 0.46481 2.0403 1.6346 2.5589 1.8556 2.5589 1.0904zm2.2601-8.5471c1.024-1.1493 0.97865-1.1972-0.26012-0.27492-0.825 0.61421-1.875 1.1175-2.3333 1.1184s-1.0621 0.23044-1.3416 0.51 0.21249 0.40251 1.0934 0.27321 2.1597-0.86133 2.8416-1.6267zm-2.2601-1.4989c1.2358-0.10238 4.3705-2.4317 3.309-2.4588-0.65504-0.01673-1.4736 0.42693-1.8191 0.9859s-0.99603 0.78893-1.4457 0.51101-1.4311 0.25113-2.1809 1.1756c-1.1741 1.4476-1.1551 1.5523 0.13669 0.7543 0.825-0.50965 1.725-0.94529 2-0.96807zm4.2759-4.1428c-0.92457-0.37445-0.8501-1.0666 0.30434-2.8284 1.0857-1.6569 1.2037-2.5334 0.40758-3.0254-0.61648-0.381-1.2082-0.53517-1.315-0.3426s-1.0893 1.4674-2.1835 2.8329c-1.9022 2.3741-1.9045 2.4178-0.05211 1 1.7414-1.3328 1.8747-1.3157 1.3189 0.16946-0.67672 1.8083-0.02691 2.8918 1.6605 2.7688 0.62903-0.04584 0.57-0.28684-0.14078-0.5747zm4.249 15.694c-0.84806-1.3722-0.09731-2.4024 1.3806-1.8944 0.60526 0.20803 0.68263 0.91401 0.1875 1.7109-0.62501 1.006-1.0304 1.0534-1.5681 0.18347zm27.142 0.2931c-1.1506-1.1506-0.72824-2.3333 0.83333-2.3333 0.825 0 1.5 0.675 1.5 1.5 0 1.5616-1.1827 1.984-2.3333 0.83333zm-31.027-1.0272c-1.1262-1.1262-0.68589-2.3062 0.86052-2.3062 0.825 0 1.5 0.42344 1.5 0.94098 0 1.261-1.5616 2.1641-2.3605 1.3652zm34.361-1.8399c0-7.1278-6.9153-24.472-11.641-29.199-3.2158-3.2158-2.4306-3.8702 2.0773-1.7311 7.256 3.4432 18.564 19.566 18.564 26.468 0 3.1113-2.3342 5.5485-6.25 6.5258-2.4998 0.62388-2.75 0.43608-2.75-2.0643zm6.1311-7.8082c-0.61257-0.7381-0.89267-1.6381-0.62244-2s0.19034-0.43201-0.17753-0.15581-1.5702-0.2863-2.6719-1.25-1.6741-1.1897-1.2721-0.50218 0.29186 1.25-0.24477 1.25-1.2027-0.5625-1.4801-1.25c-0.38017-0.94216-0.52383-0.95082-0.58333-0.03518-0.08442 1.2989 3.3298 3.5431 4.1471 2.7258 0.26894-0.26894 1.0582 0.19689 1.7539 1.0352s1.49 1.5242 1.765 1.5242-0.0012-0.6039-0.61377-1.342zm-3.1311-6.158c-1.2918-1.375-1.9552-2.5-1.4743-2.5 1.3885 0-1.3424-2.3558-3.0156-2.6014-2.2044-0.32354-1.9185 0.19478 2.2399 4.0609 4.3699 4.0627 5.6418 4.6509 2.25 1.0405zm-6-9.441c0-0.51754-0.375-1.1728-0.83333-1.456s-0.83334 0.14017-0.83334 0.94098 0.375 1.456 0.83334 1.456 0.83333-0.42344 0.83333-0.94098zm14.5 23.941c-0.33992-0.55-0.14148-1 0.44098-1s1.059 0.45 1.059 1c0 1.2814-0.70806 1.2814-1.5 0zm-60.5-1c0-0.55 0.675-1 1.5-1s1.5 0.45 1.5 1-0.675 1-1.5 1-1.5-0.45-1.5-1zm38.333-1.456c0-0.80081 0.375-1.2242 0.83334-0.94098 1.08 0.66748 1.08 2.397 0 2.397-0.45834 0-0.83334-0.65521-0.83334-1.456zm2.6667 0.10819c0-0.81196 1.1927-1.3817 3-1.4331 1.65-0.04691 3 0.38275 3 0.95481s-0.66059 0.78662-1.468 0.47679-1.734-0.13297-2.059 0.39301c-0.87373 1.4137-2.473 1.1605-2.473-0.39149zm-18.875-0.52718c0.41825-1.2547 1.875-1.5461 1.875-0.375 0 0.4125-0.50625 0.91875-1.125 1.125s-0.95625-0.13125-0.75-0.75zm-6.542-0.99079c-0.43077-0.697-0.51316-1.5373-0.18309-1.8674 0.89497-0.89496 1.8708 0.4213 1.3874 1.8714-0.33872 1.0162-0.57427 1.0154-1.2043-0.00404zm2.5837-0.13421c0.50335-1.51 2.1114-1.6657 2.5833-0.25 0.22917 0.6875-0.33333 1.25-1.25 1.25s-1.5167-0.45-1.3333-1zm41.958-0.875c0.41825-1.2547 1.875-1.5461 1.875-0.375 0 0.4125-0.50625 0.91875-1.125 1.125s-0.95625-0.13125-0.75-0.75zm-59.125-1.066c0-0.51754 0.45-1.2191 1-1.559s1 0.08352 1 0.94098-0.45 1.559-1 1.559-1-0.42344-1-0.94098zm40-1.618c0-0.85746 0.45-1.2809 1-0.94098 1.2939 0.79968 1.2939 2.5 0 2.5-0.55 0-1-0.70156-1-1.559zm3.583 0.69323c-0.43077-0.697-0.51316-1.5373-0.18309-1.8674 0.89497-0.89496 1.8708 0.4213 1.3874 1.8714-0.33872 1.0162-0.57427 1.0154-1.2043-0.00404zm-22.03-1.0488c-0.32198-0.52097-0.15917-1.2106 0.3618-1.5326s1.2106-0.15917 1.5326 0.3618 0.15917 1.2106-0.3618 1.5326-1.2106 0.15917-1.5326-0.3618zm-6.1066-1.1725c-0.36954-0.59793-0.17109-1.5879 0.44098-2.2 0.81716-0.81716 1.1129-0.52829 1.1129 1.0871 0 2.4145-0.51946 2.7866-1.5538 1.1129zm2.5538-0.41287c0-0.825 0.45-1.5 1-1.5s1 0.675 1 1.5-0.45 1.5-1 1.5-1-0.675-1-1.5zm39.554 0.58713c-1.0403-1.6832 0.4312-3.5021 1.759-2.1743 0.78284 0.78284 0.78284 1.3914 0 2.1743s-1.2752 0.78285-1.759 0zm-56.554-2.0871c0-0.55 0.675-1 1.5-1s1.5 0.45 1.5 1-0.675 1-1.5 1-1.5-0.45-1.5-1zm35-2c0-0.55 0.675-1 1.5-1s1.5 0.45 1.5 1-0.675 1-1.5 1-1.5-0.45-1.5-1zm5 0.05902c0-0.51754 0.45-1.2191 1-1.559s1 0.08352 1 0.94098-0.45 1.559-1 1.559-1-0.42344-1-0.94098zm15-0.55902c0-0.91667 0.5625-1.4792 1.25-1.25 1.4157 0.47189 1.26 2.08-0.25 2.5833-0.55 0.18334-1-0.41666-1-1.3333zm-52.5-1.5c0.33992-0.55 1.068-1 1.618-1s0.72189 0.45 0.38197 1-1.068 1-1.618 1-0.72189-0.45-0.38197-1zm13.5-0.55902c0-0.85746 0.45-1.2809 1-0.94098 1.2939 0.79968 1.2939 2.5 0 2.5-0.55 0-1-0.70156-1-1.559zm4.5 0.55902c0.79968-1.2939 2.5-1.2939 2.5 0 0 0.55-0.70156 1-1.559 1s-1.2809-0.45-0.94098-1zm32.5-2c0-0.55 0.45-1 1-1s1 0.45 1 1-0.45 1-1 1-1-0.45-1-1zm-18-1c0-0.55 0.45-1 1-1s1 0.45 1 1-0.45 1-1 1-1-0.45-1-1zm3.5528 0.08541c-0.32198-0.52097-0.15917-1.2106 0.3618-1.5326s1.2106-0.15917 1.5326 0.3618 0.15917 1.2106-0.3618 1.5326-1.2106 0.15917-1.5326-0.3618zm-33.553-1.0854c0-0.55 0.45-1 1-1s1 0.45 1 1-0.45 1-1 1-1-0.45-1-1zm16-1c0-0.55 0.675-1 1.5-1s1.5 0.45 1.5 1-0.675 1-1.5 1-1.5-0.45-1.5-1zm30 0c0-0.55 0.45-1 1-1s1 0.45 1 1-0.45 1-1 1-1-0.45-1-1zm-43-3c0-0.55 0.45-1 1-1s1 0.45 1 1-0.45 1-1 1-1-0.45-1-1zm40.694 0.36052c-0.35171-0.35171-0.39562-1.034-0.09757-1.5163 0.63919-1.0342 2.4037-0.14245 2.4037 1.2148 0 1.0751-1.3554 1.2523-2.3062 0.3015zm-25.694-1.8015c0-0.85746 0.45-1.559 1-1.559 1.2939 0 1.2939 1.7003 0 2.5-0.55 0.33992-1-0.08352-1-0.94098zm13 0.44098c0-0.55 0.45-1 1-1s1 0.45 1 1-0.45 1-1 1-1-0.45-1-1zm-26-1.441c0-0.24254 0.45-0.7191 1-1.059s1-0.14148 1 0.44098-0.45 1.059-1 1.059-1-0.19844-1-0.44098zm36-0.55902c0-0.55 0.45-1 1-1s1 0.45 1 1-0.45 1-1 1-1-0.45-1-1zm-24.765-3.1652c-1.4452-1.4452 1.2263-3.7876 4.2652-3.7396 1.836 0.02899 1.8168 0.10524-0.23335 0.92981-1.4462 0.58166-2.0253 1.4404-1.643 2.4366 0.69588 1.8134-0.72641 2.0356-2.3888 0.37319zm21.765 0.22422c0-0.58246 0.45-1.059 1-1.059 1.2814 0 1.2814 0.70806 0 1.5-0.55 0.33992-1 0.14148-1-0.44098zm-13.5-6.059c-0.33992-0.55-0.14148-1 0.44098-1s1.059 0.45 1.059 1c0 1.2814-0.70806 1.2814-1.5 0zm-59.212 46.241c0.88598-3.1574 3.6024-8.7594 6.0365-12.449s4.1818-6.952 3.8838-7.25c-1.1064-1.1065-5.0053-0.49154-6.2285 0.98235-0.69572 0.83829-1.4969 1.2922-1.7804 1.0087s-1.1385 0.00154-1.8999 0.63345c-2.0164 1.6735-4.0901-0.50889-2.4087-2.5349 0.92385-1.1132 0.92992-1.6241 0.02594-2.1828-0.66942-0.41372-1.591 0.00455-2.1293 0.96642-0.79765 1.4253-1.2153 1.4876-2.6183 0.3904-1.4589-1.141-1.5129-1.1048-0.42796 0.28656 0.68273 0.8756 0.97624 1.8571 0.65224 2.1811-1.0392 1.0392-3.393-0.4316-3.4089-2.1301-0.00843-0.90365-0.49482-2.318-1.0809-3.143-0.80857-1.1382-0.9096-0.77646-0.41888 1.5 0.94021 4.3616 2.7909 5.9579 5.3313 4.5984 1.7104-0.91538 2.1545-0.76607 2.684 0.90238 0.76432 2.4082 1.8317 2.5244 3.9283 0.42782 2.5738-2.5738 1.7812 0.02031-0.96735 3.1659-1.3963 1.598-4.1914 6.2219-6.2112 10.275l-3.6725 7.3697 2.2882 1.8529c3.4554 2.798 6.383 0.41636 8.4224-6.8516zm126.01 4.331c1.6851-1.2779 1.4135-1.9912-4.2713-11.218-3.339-5.4194-7.3863-11.429-8.9942-13.354-2.7541-3.2974-3.0228-3.4017-4.6415-1.8014s-1.5166 1.9218 1.8969 5.7c3.6995 4.095 7.0126 10.358 8.2718 15.636 0.79032 3.3129 3.1763 6.4819 4.8438 6.4335 0.60225-0.0175 1.9048-0.6459 2.8945-1.3965zm-117.5-0.42577c0.84625-0.53681 1.3857-3.5771 1.5498-8.7347 0.18288-5.748 0.85146-9.1209 2.445-12.335 2.8093-5.6659 2.1028-6.4556-1.1564-1.2926-3.2297 5.1161-5.018 9.4511-6.5671 15.919-1.5849 6.6173-0.23175 8.9557 3.7287 6.4434zm-57.619-2.5763c0.72679-0.78669 2.3784-3.1492 3.6702-5.25 3.2054-5.2128 11.649-12.055 17.401-14.1 2.6125-0.92893 4.75-2.0531 4.75-2.4981s-0.5625-0.69608-1.25-0.55792-2.4875-0.07569-4-0.47521c-2.2225-0.58708-2.75-1.2982-2.75-3.7074 0-1.7349-0.52809-2.981-1.2634-2.981-2.377 0-11.784 7.083-14.636 11.02-4.0856 5.6401-7.4544 14.433-6.6926 17.468 0.70125 2.794 2.758 3.2602 4.7709 1.0814zm162.75 0.49362c1.2136-0.76802 1.2344-1.5657 0.1362-5.2347-1.7644-5.8946-4.6528-11.732-7.5759-15.309l-2.4353-2.9808 1.3416 4.4808c0.73787 2.4644 1.4039 7.3643 1.4801 10.889 0.17936 8.2989 2.5306 11.018 7.0534 8.1555zm58.545-3.9597c1.7865-8.134-9.8575-22.504-21.589-26.643-3.8558-1.3604-3.8989-1.349-2.7836 0.73494 0.95825 1.7905 0.76778 2.3982-1.2359 3.9429-1.3028 1.0044-2.9312 1.6232-3.6187 1.3752s-1.2483-0.12749-1.2462 0.26774 2.0132 1.545 4.4693 2.555c6.6106 2.7185 12.794 7.8518 16.889 14.022 4.9108 7.3984 8.0312 8.6806 9.1152 3.7454zm-68.678-3.4246c2.6052-7.2044 0.45697-15.611-5.7958-22.682l-3.9772-4.4973 2.611 5.8608c2.9078 6.527 4.2318 17.147 2.5334 20.321-0.78249 1.4621-0.76161 2.3273 0.07635 3.1653 1.9455 1.9455 3.2978 1.3015 4.5523-2.1678zm-151.49-12.997c7.0087-7.1336 12.089-10.386 18.19-11.645 2.3522-0.48535 3-1.15 3-3.078 0-2.3633-0.25304-2.4577-6.5-2.4251-8.2898 0.04326-14.602 2.9748-21.75 10.101-4.578 4.5643-5.25 5.7439-5.25 9.2162 0 3.8038 0.81578 4.8892 3.8102 5.0696 0.72063 0.04342 4.5456-3.2141 8.5-7.239zm225.37 5.2407c1.4366-1.4366 0.16919-6.8171-2.699-11.458-4.9122-7.9481-16.79-13.363-27.676-12.616-1.9806 0.13589-2.0977 0.43834-1.1842 3.0589 0.66355 1.9035 1.9411 3.1362 3.698 3.5684 6.3633 1.5654 16.015 9.1907 19.965 15.773 1.7346 2.8906 5.8142 3.7548 7.8962 1.6727zm6.3885-1.9579c4.2104-2.2534 1.52-11.396-5.1185-17.394-6.6774-6.0327-12.237-8.0475-21.947-7.9543-6.722 0.06447-7.6633-0.08406-4.5-0.71007 10.539-2.0857 29.775-0.32595 39.121 3.5791 4.7383 1.9798 5.3795 1.9152 5.3795-0.54228 0-4.3853-10.163-11.268-19.158-12.974-6.5122-1.235-10.682-0.16881-22.137 5.6605-6.1697 3.1396-9.4335 4.2729-10.934 3.7968-2.0355-0.64604-1.9971-0.75069 0.79505-2.1665 5.6029-2.8411 11.602-9.5913 14.896-16.761 4.0879-8.8974 5.2944-15.269 6.5322-34.5 1.231-19.124 3.147-27.611 7.6364-33.823 4.0061-5.5436 4.8038-7.0754 4.0679-7.8113-1.2603-1.2603-4.8054 1.0145-7.6863 4.932-5.4072 7.3526-7.1562 15.082-7.6263 33.702-0.50714 20.088-1.6746 27.391-5.8349 36.5-3.366 7.37-6.5408 11.313-12.919 16.046-3.6818 2.7323-3.7657 2.9152-1.75 3.8146 1.1645 0.5196 2.1172 1.3525 2.1172 1.8509s0.42513 0.64346 0.94474 0.32232c1.5923-0.98411 14.52 2.1605 19.681 4.7872 2.6806 1.3644 5.8473 3.5377 7.037 4.8296 3.0122 3.271 7.4925 12.001 6.922 13.488-0.39161 1.0205 0.39234 1.8226 2.2306 2.2823 0.17366 0.04342 1.1862-0.38688 2.25-0.95623zm-61.813-2.8228c0.57263-2.1898-0.86405-5.142-2.5023-5.142-0.83947 0-0.82605 0.32426 0.04969 1.2 0.66 0.66 1.2 2.01 1.2 3 0 2.2897-3.5497 2.4158-4.4166 0.15687-0.34679-0.90372-0.90906-1.3646-1.2495-1.0242s-0.04974 1.3048 0.64598 2.1431c1.7822 2.1474 5.678 1.9401 6.2727-0.3338zm-136.62 0.09266c0.62246-0.40408 1.0464-1.8597 0.94203-3.2347s0.16295-2.983 0.594-3.5732c0.52667-0.72124-0.19227-0.93-2.192-0.6365-2.6533 0.38943-2.9758 0.15358-2.9758-2.1768 0-1.4374-0.47656-2.6135-1.059-2.6135s-0.8127-0.39854-0.51165-0.88565-0.6849-1.1205-2.191-1.4076l-2.7383-0.52195 2.75 2.1952c1.5125 1.2073 2.75 3.142 2.75 4.2992 0 1.3959 0.82034 2.3099 2.4376 2.7158 3.264 0.81921 3.0524 4.4439-0.30863 5.2875-1.7184 0.43129-2.8378 0.06862-3.7846-1.2262-1.1394-1.5582-1.3444-1.5934-1.3444-0.23079 0 2.4043 4.9966 3.7198 7.6318 2.0092zm144.35-1.7163c1.0625-1.2803 1.5027-1.2904 3.2387-0.07442 2.5289 1.7713 6.7765 0.13877 6.7765-2.6045 0-1.2364 0.73766-1.8445 2.25-1.8548 3.7362-0.02543 4.8365-1.3024 4.1367-4.801-0.3502-1.751-1.0793-3.1837-1.6202-3.1837s-0.71397 1.0735-0.38466 2.3856c0.37889 1.5096 0.0515 2.8397-0.8916 3.6224-1.7711 1.4699-2.0198-0.07856-0.29033-1.808 0.66-0.66 0.90253-1.2 0.53896-1.2-1.3204 0-4.739 4.4216-4.739 6.1295 0 2.3397-1.5864 3.1911-4.5568 2.4456-1.615-0.40534-2.4432-1.3209-2.4432-2.7011 0-1.4524 0.4602-1.9113 1.5118-1.5078 2.7019 1.0368 6.2249-1.2923 5.7458-3.7985-0.33875-1.7721 0.23959-2.531 2.7079-3.5534 2.0559-0.85157 2.9482-1.7965 2.5865-2.739-0.30368-0.79137-0.55215-2.0867-0.55215-2.8785s-1.1066-1.9439-2.4592-2.5601c-1.9222-0.87582-2.2568-1.4988-1.5322-2.8527 0.67043-1.2527 0.42974-2.1822-0.86952-3.3581-2.0861-1.8879-3.5858-2.1578-2.534-0.45593 0.48618 0.78665 0.1779 0.96074-0.94099 0.53138-0.91522-0.3512-1.664-0.20267-1.664 0.33006 0 0.86037 2.1702 1.4154 4.25 1.087 0.4125-0.06513 0.75 0.28051 0.75 0.76808s-1.3191 1.0801-2.9313 1.3167c-2.2146 0.32504-3.0474-0.01396-3.4064-1.3865-0.26129-0.99919-1.0223-1.8167-1.6912-1.8167-0.93032 0-0.9424 0.32974-0.05142 1.4033 0.95994 1.1566 0.63559 1.3667-1.8454 1.1949-1.7872-0.12373-3.2237 0.34838-3.5359 1.1621-0.37351 0.97336 0.02742 1.1948 1.3837 0.7644 1.0502-0.33333 2.2125-0.11591 2.5827 0.48317 0.47715 0.77204 1.0468 0.77917 1.9561 0.02449 0.97235-0.80699 1.5794-0.34917 2.5073 1.8911 1.4167 3.4201 0.71024 5.2191-1.7503 4.4574-1.5005-0.4645-1.4898-0.38567 0.08439 0.62267 1.3666 0.87538 2.1456 0.86965 3.222-0.02369 1.2206-1.013 1.2235-1.6476 0.02059-4.5265l-1.399-3.3483 2.4944 0.94835c5.1529 1.9591 6.482 3.0762 6.1704 5.186-0.17087 1.1572-0.93582 2.3101-1.6999 2.5621-0.96006 0.31657-1.1324 0.03186-0.55804-0.92167 0.70526-1.1707 0.57488-1.1718-0.8608-0.00729-0.93058 0.75485-1.692 1.0602-1.692 0.67858s-0.68802-0.00585-1.5289 0.83506-2.1909 1.2749-3 0.96444-1.4711-0.09219-1.4711 0.48507c0 1.0393 2.0247 0.92279 5.0831-0.29245 1.278-0.5078 1.4996-0.06 1.1498 2.3235-0.59458 4.0511-3.1516 4.3994-7.2402 0.98615-3.9956-3.3357-5.369-3.6138-4.512-0.91368 0.69707 2.1963-1.8576 4.0413-5.6649 4.0913-2.0352 0.02672-2.1064 0.15238-0.58804 1.0372 2.1586 1.2579 7.7723-1.38 7.7723-3.6523 0-0.84333 0.45734-1.2507 1.0163-0.90522s0.74523 1.0667 0.41391 1.6028-0.10688 1.5718 0.49875 2.3015c0.82542 0.99456 0.62045 1.9205-0.81852 3.6975-1.8921 2.3366-1.9498 2.3434-4.0151 0.47439-1.1525-1.043-2.0954-1.3989-2.0954-0.791 0 1.1986 2.8088 3.1252 4.6276 3.1743 0.62015 0.01673 1.6809-0.63632 2.3572-1.4512zm-146.55-0.40507c0.30141-0.48768-0.0859-1.4128-0.86069-2.0558-1.1322-0.93962-1.3413-0.81463-1.0655 0.63669 0.18876 0.9932 0.37763 1.9183 0.41971 2.0558 0.16769 0.54794 0.98882 0.20091 1.5065-0.63669zm-43.43-1.1978c0-0.52811 1.7803-2.8916 3.9562-5.2522 4.7661-5.1706 13.333-9.7039 19.803-10.479l4.7408-0.56794-5.1973-1.1889c-3.4835-0.79689-6.7809-0.89445-10-0.29586-6.8073 1.2658-15.187 5.7444-16.882 9.0226-1.3502 2.611-1.9335 7.9992-0.97016 8.9626 0.89655 0.89655 4.5499 0.73494 4.5499-0.20126zm65.122 0.01912c1.0949-0.58596 2.3868-2.0485 2.8709-3.25 0.82759-2.054 0.884-2.0202 0.94359 0.56537 0.03701 1.6055 0.62315 2.75 1.4084 2.75 2.0855 0 4.8839-3.6439 4.3586-5.6756-0.39835-1.5409-0.48967-1.4938-0.58765 0.30316-0.0638 1.1702-0.78568 2.6833-1.6042 3.3626-1.5394 1.2776-1.6275 1.1841-2.7368-2.9028-0.21089-0.77694-1.0919-1.5166-1.9578-1.6437-1.1329-0.16628-1.424 0.34377-1.0383 1.819 0.3691 1.4114 0.1678 1.8224-0.64619 1.3194-0.69871-0.43182-1.0699-0.21331-0.90753 0.53424 0.44396 2.0437-3.4598 2.2834-4.9091 0.30133-0.72386-0.98993-1.3161-1.4118-1.3161-0.93748 0 0.88865 2.9892 4.5199 3.7207 4.5199 0.22591 0 1.3066-0.47942 2.4014-1.0654zm111.47-0.69994c1.3382-0.90387 2.5256-5.2347 1.4353-5.2347-0.43436 0-1.0251 0.9-1.3128 2-0.31292 1.1966-1.364 2-2.6166 2-2.5474 0-2.7312-1.5427-0.34362-2.8831 1.663-0.93363 1.6633-1.0158 0.00574-1.6545-0.95934-0.36961-1.4818-1.0967-1.161-1.6158 0.34783-0.5628 1.1621-0.4634 2.0172 0.24623 1.1776 0.97729 1.3094 0.86556 0.73736-0.62506-0.53937-1.4056-0.32616-1.6729 0.94509-1.1851 0.90287 0.34646 1.8612 0.27459 2.1296-0.15973s-0.05467-0.83829-0.71798-0.89772c-3.2249-0.28897-5.1331-1.0065-5.4851-2.0626-0.21315-0.63945-0.86979-1.1626-1.4592-1.1626s-0.32691 0.82293 0.58333 1.8287c2.0228 2.2352 2.1278 3.2899 0.25614 2.5717-0.76937-0.29523-1.6668-0.10326-1.9943 0.4266s0.12769 1.2409 1.0115 1.58c1.3104 0.50286 1.3762 0.89462 0.35624 2.1235s-0.91817 1.8743 0.54237 3.4882c1.8929 2.0916 3.2813 2.4246 5.0707 1.2159zm20.54-0.98469c1.2439-1.5861 1.2085-1.6214-0.37756-0.37756-1.6658 1.3064-2.1955 2.1276-1.3724 2.1276 0.20765 0 0.99515-0.7875 1.75-1.75zm-159.57-0.68888c1.9213-1.4242 1.9212-1.4574-0.0041-3.25-1.3341-1.2421-1.5658-1.303-0.73767-0.1938 1.5038 2.014-0.67169 4.2594-3.1904 3.2929-2.3128-0.88751-2.016-4.1519 0.44861-4.9342 2.7239-0.86452 1.9812-1.5651-0.86903-0.81979-1.6124 0.42166-2.2063 1.3307-2.2063 3.377 0 3.8918 3.1046 5.0884 6.5589 2.5278zm19.676-0.9734c0.94467-1.3986 0.92556-1.7861-0.17379-3.5234-0.7529-1.1898-1.1784-1.2117-2.4847-0.12755-0.86692 0.71948-1.5693 1.8155-1.5609 2.4357s0.45153 0.45256 0.98469-0.37244c0.86167-1.3333 0.97278-1.3333 1 0s0.14849 1.3333 1.0914 0c0.82349-1.1644 0.97604-1.1849 0.68189-0.09159-0.20842 0.77462-1.3677 1.5593-2.5761 1.7437-2.1367 0.32609-2.654-0.52029-2.2321-3.6521 0.15988-1.1869-0.0602-1.2448-1.0544-0.27713-2.1149 2.0584 0.38176 6.2698 3.282 5.5362 1.269-0.321 2.6379-1.0731 3.042-1.6714zm111.43-0.15494c0.33077-0.86197 0.05403-2.0995-0.61496-2.75-0.94545-0.91935-1.1421-0.73734-0.88278 0.81722 0.21004 1.2594-0.22191 2-1.1664 2-0.825 0-1.4375-0.7875-1.3611-1.75s-0.26111-1.75-0.75-1.75c-1.0332 0-1.205 3.3506-0.22222 4.3333 1.2427 1.2427 4.3929 0.67503 4.9975-0.90055zm-133.28-1.6158c-0.28881-0.4673-0.94401-0.59075-1.456-0.27431-1.3084 0.80862-1.1611 1.124 0.52511 1.124 0.80081 0 1.2197-0.38234 0.9309-0.84965zm13.084-2.7701c0.32032-0.5183-0.33131-0.76639-1.4481-0.55132-2.8817 0.55496-4.1481 1.4929-3.4786 2.5762 0.61358 0.9928 3.8952-0.35599 4.9266-2.0249zm113.28-1.5157c-0.24528-2.4578-1.5759-6.1763-2.9569-8.2631-6.3199-9.55-5.0893-10.839 8.4306-8.8316 5.7915 0.85996 12.528 1.5636 14.97 1.5636 5.5222 0 14.375-2.5633 18.165-5.2594 2.4594-1.7497 2.6342-2.1633 1.2434-2.9417-1.2542-0.70188-1.384-1.3438-0.5766-2.8523 1.6902-3.1582-2.9724-2.4848-10.244 1.4795-3.9739 2.1664-8.3066 3.6485-11.784 4.0311-7.0478 0.77533-29.113-0.46521-28.413-1.5974 0.29237-0.47306 5.7925-0.74754 12.222-0.60995 12.644 0.27057 16.586-0.91307 19.94-5.9875 1.3167-1.9924 1.3055-2.3042-0.10187-2.8443-1.0036-0.38511-2.4739 0.4319-4.0272 2.2377-2.4122 2.8044-2.6194 2.8483-14.783 3.132-19.015 0.44354-23.318 3.7271-17.072 13.027 2.9327 4.3667 14.372 18.185 15.054 18.185 0.20963 0 0.18047-2.011-0.06482-4.4688zm21.487 3.1171c0.60761 0.37552 0.77953 0.19221 0.39828-0.42467-0.36895-0.59698-0.20614-1.3726 0.3618-1.7236s0.77373-1.0571 0.45729-1.5691 0.26123-0.9309 1.2837-0.9309c1.9895 0 4.259-1.7878 4.259-3.355 0-0.52524-0.9-0.1405-2 0.85499-1.93 1.7466-2.07 1.7466-4 0-1.1342-1.0264-2-1.31-2-0.65499 0 0.63525-0.40787 1.155-0.90638 1.155-0.81617 0-0.63288-2.1723 0.49117-5.821 0.30453-0.98856 1.1775-0.77235 3.4687 0.85909 1.6839 1.1991 3.2845 1.9574 3.5567 1.6851 0.86191-0.86191-6.445-4.8479-9.6246-5.2503-1.6775-0.2123-2.8031 0.01336-2.5015 0.50147s0.1108 1.158-0.42415 1.4886c-1.3483 0.83331-0.28359 3.2037 1.439 3.2037 0.77714 0 1.1812-0.375 0.89795-0.83334s-0.03847-0.83333 0.54399-0.83333c1.6475 0 1.2453 2.9913-0.49186 3.6579-0.89406 0.34308-2.5881-0.3793-4-1.7057-2.7424-2.5763-3.3645-1.6212-0.79413 1.2191 0.91024 1.0058 2.6352 1.8287 3.8333 1.8287 2.9863 0 3.622 0.88774 2.4213 3.3815-0.99143 2.0592-0.97645 2.0642 0.53518 0.17739 0.85535-1.0676 1.5552-2.3801 1.5552-2.9167 0-1.3827 1.4949 0.27636 1.5238 1.6911 0.01309 0.64167-0.54941 1.7613-1.25 2.4881s-1.2383 1.8518-1.1949 2.5c0.05512 0.82297 0.23175 0.79954 0.58541-0.07766 0.27855-0.69093 0.98755-0.9589 1.5756-0.59549zm-6.2399-12.648c0.825-0.53316 2.175-0.94464 3-0.9144 0.98906 0.03625 0.81874 0.34772-0.5 0.9144-2.7491 1.1813-4.328 1.1813-2.5 0zm-111.63 10.541c2.0658-2.229 2.425-2.313 3.8408-0.89722 2.4706 2.4706 5.3368 0.8178 7.2446-4.1778 0.94075-2.4633 2.0996-4.2383 2.5751-3.9444 1.0071 0.62241 3.4095-3.4104 2.546-4.2739-0.31956-0.31956-0.58102-0.02947-0.58102 0.64466s-0.43084 0.95941-0.95741 0.63397-1.7207 0.8855-2.6537 2.691-2.4146 3.8786-3.2926 4.6069-1.0338 1.0392-0.34632 0.69098c1.7294-0.87602 1.5739 0.97119-0.2062 2.4485-1.5685 1.3017-3.9452 0.4948-3.0082-1.0213 0.31253-0.5057-0.13013-0.65146-0.98369-0.32392-0.92712 0.35577-1.5653 0.04921-1.5852-0.76145-0.02151-0.87746-0.651-0.61817-1.7813 0.73374-0.96143 1.1499-2.5466 1.9735-3.5225 1.8303-1.4273-0.20948-1.544 0.01734-0.59623 1.1593 0.93181 1.1228 0.85299 1.4197-0.37681 1.4197-0.85528 0-1.8515-0.93391-2.2138-2.0754s-0.88369-1.8504-1.1587-1.5754-0.20359 1.4339 0.15869 2.5754c0.89172 2.8096 4.1046 2.6309 6.8984-0.38366zm-9.7675-3.155c0.05882-1.1627 0.39846-2.5857 0.75476-3.1622 0.86654-1.4021-2.0646-0.92092-3.5718 0.58635-0.91984 0.91984-0.88425 1.4736 0.15682 2.4399 1.0894 1.0112 1.1936 0.98167 0.5455-0.15451-0.54125-0.94879-0.42132-1.1697 0.3696-0.6809 1.414 0.87392 0.5443 2.5854-1.3138 2.5854-2.2337 0-2.7227-3.1466-0.82208-5.2901 1.7259-1.9465 1.7144-1.9696-0.4202-0.85-3.1001 1.626-3.5602 2.7567-2.0896 5.1358 1.7324 2.8025 6.24 2.3725 6.3908-0.60965zm-9.81 0.93374c-2.2573-0.59418-3.2735-4.0407-1.7371-5.8919 0.67382-0.8119 0.99695-1.7044 0.71808-1.9832s-1.25 0.62687-2.1581 2.0128c-1.3654 2.0839-1.4338 2.8678-0.39491 4.5312 0.69087 1.1063 2.1604 1.9592 3.2656 1.8954 1.6173-0.09336 1.6771-0.20349 0.30644-0.56428zm123.09-1.5697c-0.08729-1.6932-0.22918-1.8169-0.57333-0.5-0.25152 0.9625-1.2118 1.7431-2.134 1.7347-1.4601-0.01334-1.483-0.15467-0.17668-1.0943 1.2865-0.92543 1.2627-1.0034-0.16724-0.54782-0.91698 0.29215-1.9042-0.08633-2.1938-0.84106s-0.09742-1.5153 0.42711-1.6902-0.06325-0.95121-1.3062-1.7253c-1.9445-1.211-2.1045-1.2105-1.1464 0.00329 0.61243 0.77587 1.0267 2.4023 0.92054 3.6143s0.14919 1.9922 0.56739 1.7337 1.043-0.01259 1.3885 0.54638 1.5016 1.0163 2.5691 1.0163c1.3806 0 1.9075-0.64963 1.825-2.25zm-173.24-5.718c7.3866-2.7637 23.891-2.7434 32.324 0.03977 7.6014 2.5086 8.3434 0.9056 1.3148-2.8406-6.9801-3.7204-19.136-7.2312-25.037-7.2312-12.131 0-23.341 8.3742-20.638 15.417 0.51825 1.3505 1.026 1.228 3.4844-0.84053 1.5828-1.3318 5.4315-3.377 8.5528-4.5448zm68.9 4.92c2.1458-2.371 2.8384-5.246 1.1264-4.6753-0.6434 0.21446-1.1698 1.0274-1.1698 1.8066 0 1.4286-2.334 3.826-3.7822 3.8849-0.43023 0.01749-1.1892-0.9807-1.6866-2.2182-0.90437-2.25-0.90439-2.25-0.96777-0.08333-0.10554 3.6074 3.6962 4.3615 6.48 1.2854zm-27.143-3.1867c1.6799-1.1219 2.8036-0.90372 2.0046 0.3892-0.44563 0.72104-0.27393 0.88282 0.45729 0.4309 1.5166-0.93732 0.70095-2.205-1.8476-2.8714-1.1093-0.2901-1.784-0.15051-1.4993 0.31019s0.06035 1.1203-0.49862 1.4658-0.98078 1.3891-0.93736 2.3191c0.06443 1.3801 0.18393 1.4152 0.64994 0.19098 0.31405-0.825 1.066-1.8306 1.671-2.2347zm9.4617 1.9014c0.82691-0.99637 0.77361-1.3333-0.21089-1.3333-0.7246 0-1.3175 0.6-1.3175 1.3333 0 1.6595 0.15105 1.6595 1.5284 0zm32.062-8.1667c0.83915-1.1-0.37534-0.22117-2.6989 1.953-3.8157 3.5704-6.0349 3.9772-2.9746 0.54528 1.0468-1.1738 0.99114-1.2078-0.34201-0.20868-0.8756 0.6562-1.9256 0.8595-2.3333 0.45177s-0.59133-0.06632-0.40799 0.75868c0.18333 0.825 0.7703 1.813 1.3044 2.1956s0.65745 1.0092 0.27417 1.3925-1.3828 0.12765-2.221-0.56807c-1.254-1.0407-1.5242-0.99036-1.5242 0.28417 0 0.85202 0.78289 1.6999 1.7398 1.8842 1.5761 0.30353 4.2638-2.2392 9.1837-8.6884zm-101.99 3.8856c5.2027-7.5928 15.743-13.311 24.823-13.467l4.7393-0.08122-3-1.3737c-4.5332-2.0757-15.18-1.7919-20.323 0.5417-5.8753 2.6663-9.7045 5.5079-12.681 9.4105-2.1551 2.8255-2.355 3.6906-1.4513 6.2827 1.3837 3.9692 4.6453 3.4266 7.8931-1.3132zm85.459 3.7811c0.28327-0.45834-0.14017-0.83334-0.94098-0.83334s-1.456 0.375-1.456 0.83334c0 1.08 1.7295 1.08 2.397 0zm139.11-0.40799c0.45008 0.40772 0.48111 0.15697 0.06897-0.55724-0.57734-1.0005-1.0732-1.0298-2.1603-0.12755-0.77603 0.64405-1.411 1.396-1.411 1.671s0.6039-0.0012 1.342-0.61377 1.7102-0.78017 2.1603-0.37244zm-30.618-2.0087c-0.08729-1.6932-0.22918-1.8169-0.57333-0.5-0.63351 2.4242-2.7915 2.1879-4.5662-0.5-2.0529-3.1093-6.8192-7.75-7.9598-7.75-0.51842 0 1.1179 2.0605 3.6364 4.579s4.579 4.9934 4.579 5.5 1.125 0.92105 2.5 0.92105c1.9603 0 2.475-0.48573 2.384-2.25zm99.342-3.6996c-2.5308-7.0306-12.706-14.954-21.226-16.528-3.125-0.57742-9.1515 0.26464-14.58 2.0372-1.4816 0.48379-1.3526 0.1646 0.56499-1.3977 1.3668-1.1136 2.6534-1.8564 2.8591-1.6507s2.5916-0.50007 5.302-1.5684c2.7233-1.0734 7.3392-1.9424 10.318-1.9424 5.0477 0 5.4896-0.20013 6.963-3.1536 2.1007-4.211 2.0848-4.2596-1.8551-5.6843-2.9916-1.0818-3.9855-0.97778-7.8028 0.81655-2.406 1.1309-6.0846 4.1021-8.1747 6.6025s-4.0387 4.3077-4.3303 4.0162 0.86087-2.1143 2.5609-4.0505c5.0598-5.7628 6.5899-16.298 2.8213-19.425-1.0282-0.85328-1.533 0.16865-2.4081 4.874-1.3693 7.3632-5.0156 14.767-10.497 21.313-2.6903 3.2132-3.4387 4.5995-2.095 3.8804 1.1498-0.61538 2.4469-0.7972 2.8824-0.40405s0.50983 0.21983 0.16519-0.38515c-0.43354-0.76104 0.98066-0.96895 4.5897-0.67476 11.239 0.91612 19.604 5.3621 24.753 13.155 3.5376 5.3545 6.8743 6.8052 8.6055 3.7413 0.6281-1.1117 0.89087-2.7189 0.58392-3.5716zm-210.23 2.4323c2.0796-1.2032 2.1637-1.4026 0.5-1.1856-1.1 0.14343-2.5314 0.59261-3.1809 0.99817-1.7944 1.1205-2.6728-1.1628-1.1552-3.0028 1.1994-1.4542 1.106-1.4973-0.91391-0.42102-2.5474 1.3574-2.7738 2.2047-1.05 3.9285 1.5356 1.5356 2.7084 1.4714 5.8-0.3173zm-12.351-0.95625c-0.311-0.81046 0.20336-1.9694 1.143-2.5755 1.5631-1.0082 1.5526-1.053-0.12332-0.52645-1.0075 0.31653-2.02 0.57551-2.25 0.57551s-0.41821 0.9-0.41821 2 0.49814 2 1.107 2 0.85253-0.6631 0.54153-1.4736zm4.0182-0.02645c0-0.825-0.375-1.5-0.83334-1.5-0.99871 0-1.0988 1.4012-0.16666 2.3333s1 0.86602 1-0.83333zm-14.667-1.4575c0-0.40895-2.1853-2.102-4.8562-3.7623-6.007-3.7342-13.329-13.739-15.574-21.28-1.2452-4.1839-1.6102-9.3287-1.5252-21.5 0.17554-25.127 0.14987-25.393-3.1412-32.474-3.8725-8.3328-7.4832-13.026-10.022-13.026-1.6315 0-1.8831 0.42958-1.3179 2.25 0.38422 1.2375 1.5722 3.4904 2.64 5.0064 5.9705 8.4767 9.0903 23.534 8.1719 39.439-0.91225 15.799 2.5564 27.041 11.191 36.272 2.5887 2.7676 4.2525 5.0319 3.6973 5.0319-2.0861 0-9.551-9.3868-12.581-15.82-2.8729-6.0995-3.1953-7.8086-3.7127-19.68-0.48944-11.23-0.92765-13.784-3.2188-18.762-2.4969-5.4248-4.9851-7.8375-6.5102-6.3124-0.36981 0.36981 0.53081 4.1379 2.0014 8.3735 1.8035 5.1948 2.8454 10.658 3.2013 16.785 0.57271 9.8617 2.2546 15.827 6.1091 21.666 1.3614 2.0625 2.0519 3.75 1.5345 3.75-1.6862 0-7.0351-10.565-8.4068-16.604-1.5767-6.9426-3.9998-8.0862-4.4926-2.1205-0.43299 5.2413 3.6341 13.67 9.1422 18.945 4.3649 4.1807 19.726 13.298 18.174 10.787-0.51735-0.83709-0.31167-1.1099 0.60613-0.80396 0.76406 0.25469 1.3892 0.95057 1.3892 1.5464s0.40965 1.4583 0.91032 1.9167c0.53746 0.492 0.58285 0.26819 0.11081-0.5464-0.5501-0.9493-0.36614-1.2223 0.58967-0.875 0.76406 0.2776 1.2821 0.99479 1.1512 1.5937-0.13741 0.62871 0.46028 0.82106 1.414 0.45506 1.1009-0.42245 1.4132-0.24746 0.93607 0.52454-0.46779 0.75689-0.178 0.95204 0.83595 0.56295 0.85357-0.32755 1.5519-0.93013 1.5519-1.3391zm4.7434 0.87371c-1.3802-0.80374-1.5334-1.4402-0.71482-2.9696 0.72959-1.3632 0.72217-1.9466-0.02477-1.9466-1.4107 0-2.3652 2.6157-1.6422 4.5 0.31658 0.825 1.3772 1.4863 2.357 1.4696 1.6926-0.02889 1.6938-0.08142 0.02478-1.0534zm25.675 0.47681c0.86999-0.33384 1.5818-1.0247 1.5818-1.5352s-0.96823-0.41001-2.1516 0.22332c-1.8327 0.98083-2.0597 0.91194-1.5314-0.46482 0.34114-0.88898 0.23252-1.6163-0.24138-1.6163-1.1002 0-2.1293 2.6129-1.34 3.4022 0.75739 0.75739 1.691 0.75505 3.6826-0.00922zm107.58-2.2872c0-0.99461-0.86437-1.7453-2.1183-1.8398-2.0368-0.15343-2.0464-0.10513-0.25 1.2554 3.0813 2.3336-0.1113 1.6594-4.7796-1.0094-6.4663-3.6966-7.1253-3.0366-0.80783 0.80909 5.654 3.4418 7.9558 3.6688 7.9558 0.78468zm-99.527-1.772c1.0849-0.73361 1.625-1.3338 1.2003-1.3338-1.0531 0-6.6728 2.9428-6.6728 3.4943 0 0.64421 3.1834-0.61255 5.4725-2.1605zm109.3 1.4787c-0.21771-0.65312-0.93051-1.3657-1.584-1.5836-0.73075-0.24358-0.95424 0.21359-0.58051 1.1875 0.69752 1.8177 2.7645 2.1959 2.1645 0.39606zm27.229-1.6752c1.375-0.83173 3.3091-2.1922 4.298-3.0232s2.4909-1.6126 3.3377-1.7369 2.3243-0.936 3.2832-1.8038 1.9319-1.4643 2.1623-1.3256 0.32112 0.07945 0.20168-0.13166 1.4568-2.2856 3.5028-4.61c7.0659-8.0273 11.151-20.223 8.4128-25.116-0.96152-1.7181-1.104-1.6742-2.0506 0.63175-0.55953 1.363-1.9807 5.6282-3.1581 9.4782-2.457 8.034-7.7921 18.14-11.099 21.026-1.7138 1.4953-1.4977 0.88269 0.89119-2.5259 4.2509-6.0653 7.8157-15.949 9.8076-27.194 0.90678-5.1186 2.7985-11.932 4.2039-15.14 2.1083-4.8132 2.312-5.9837 1.1647-6.6928-1.7981-1.1113-3.4736 0.31515-6.3973 5.4465-1.7607 3.0902-2.4675 6.2626-2.9141 13.08-1.1915 18.188-8.2142 32.73-19.67 40.729-1.9084 1.3326-2.0177 1.5791-0.47636 1.0748 1.1-0.35993 3.125-1.3349 4.5-2.1667zm-174-0.01595c0-0.48327-1.3451-1.4359-2.9892-2.1168s-4.5496-2.9653-6.4567-5.0763c-7.2474-8.022-10.154-17.63-9.1576-30.275 1.8436-23.402 1.8837-35.294 0.13679-40.553-1.8652-5.6158-5.8784-11.1-8.1222-11.1-1.9064 0-1.777 1.3624 0.56541 5.954 3.6405 7.136 4.3727 12.879 4.4679 35.046 0.06095 14.199 0.52247 22.939 1.359 25.737 1.8879 6.3149 9.0626 16.129 14.562 19.919 5.255 3.6214 5.6342 3.7874 5.6342 2.4654zm8.25 0.2164c-0.6875-0.27741-1.8125-0.27741-2.5 0s-0.125 0.50439 1.25 0.50439 1.9375-0.22698 1.25-0.50439zm16.994-5.8847c-6.6555-1.792-10.103-4.0444-10.87-7.1021-0.75906-3.0243-3.3531-4.5013-5.649-3.2164-2.6464 1.481-2.0722 3.4983 1.8464 6.4871s10.979 5.2425 16.429 5.2451c3.1708 0.00152 3.0056-0.13144-1.7564-1.4137zm-55.887-5.2224c-2.1363-2.0732-5.3758-6.8921-7.1989-10.709-2.8026-5.8672-3.264-7.8345-2.9865-12.732 0.18056-3.1862-0.01582-5.7922-0.43641-5.7912s-1.6831 1.4643-2.8057 3.2518c-3.0718 4.8915-2.2049 11.236 2.4137 17.665 4.0569 5.6469 3.2871 7.0894-0.87277 1.6355-2.7812-3.6463-9.6392-7.5503-13.263-7.5503-3.0894 0-5.6845 4.24-4.2432 6.933 0.88601 1.6555 2.077 2.067 5.982 2.067 2.6816 0 7.6126 0.85181 10.958 1.8929s5.8336 1.4911 5.5301 1c-1.0506-1.7 0.56909-0.87749 5.1341 2.6071 5.9603 4.5496 6.6481 4.446 1.7891-0.2694zm113.63-1.6717c-0.00842-0.58237-0.41006-1.6822-0.89252-2.444-1.2774-2.0171-3.4105 2.3067-2.5208 5.1098 0.65953 2.078 0.7276 2.087 2.0554 0.2711 0.7553-1.0329 1.3664-2.3546 1.358-2.9369zm65.015 1.4056c1.925-0.96343 4.3248-2.6638 5.333-3.7785 1.7812-1.9696 1.776-2.0573-0.18425-3.1064-3.1627-1.6926-3.954-1.3483-6.6248 2.8825-1.3756 2.1792-3.7438 4.6556-5.2626 5.5032l-2.7614 1.5411 3-0.64508c1.65-0.3548 4.575-1.4334 6.5-2.3968zm29.396-2.7631c0.79595-1.5392 2.4691-5.7017 3.7181-9.25 2.0519-5.8292 2.3247-8.8625 2.8285-31.451 0.52634-23.599 0.68373-25.213 2.8076-28.807 1.2375-2.0939 2.25-4.4564 2.25-5.25 0-2.3726-3.4502-1.6362-6.1243 1.3072-5.3336 5.8706-5.8483 10.029-3.2621 26.358 2.363 14.919 1.583 33.002-1.8394 42.642-2.6917 7.5819-2.8283 9.189-0.37843 4.4514zm10.574-66.701c0-0.55-0.43621-0.325-0.96937 0.5s-0.96937 1.95-0.96937 2.5 0.43621 0.325 0.96937-0.5 0.96937-1.95 0.96937-2.5z"/>
 </g>
</svg>
