<?xml version='1.0' encoding='utf-8'?>
<svg xmlns="http://www.w3.org/2000/svg" width="224.33mm" height="215.92mm" version="1.1" viewBox="0 0 224.33 215.92"><g transform="translate(-1386.2 -764.14)"><path d="m1552.7 764.14c-0.089 0.0128-0.092 0.37621-0.099 1.1266-0.01 0.80037-0.091 3.1518-0.1855 5.2255-0.095 2.0737-0.102 3.7703-0.016 3.7703 1.7318 0 2.33-6.5005 0.8521-9.2604-0.3088-0.57671-0.4683-0.87401-0.5519-0.86197zm-108.9 0.62632c-0.1072-0.01-0.2386 0.20633-0.4062 0.57103-1.0028 2.1825-0.9382 8.1419 0.093 8.5654 1.0096 0.41439 1.0075 0.41787 0.9105-2.2288-0.1885-5.1245-0.301-6.8802-0.5973-6.9076zm111.02 3.5522c-0.2016 0.0112-0.2121 0.77777-0.1587 2.3714 0.095 2.8369 0.037 2.7516 1.2475 1.8283 0.8993-0.68599 0.8991-0.68599-0.021-2.5135-0.5631-1.1179-0.8897-1.6961-1.0676-1.6862zm-112.74 0.0289c-0.162 9e-3 -0.4668 0.56561-1.0418 1.5937-0.9865 1.7642-0.9869 1.7642-0.089 2.5135 1.2794 1.0676 1.3147 1.0199 1.3147-1.7642 0-1.6135 0.01-2.3532-0.1835-2.343zm66.558 3.1424c-1.1631 0.0146-2.317 0.13721-3.453 0.37362-7.3042 1.5201-6.1136 10.677 2.1219 16.317 0.048 0.0331-0.578 0.9331-1.3922 2.0004-4.6464 6.0906-5.913 13.131-3.2887 18.284 0.5328 1.0462 0.6701 1.0562 1.9022 0.13487 0.4586-0.34304 0.4622-0.44753 0.066-1.9761-0.23-0.88754-0.4181-2.1822-0.4181-2.8768 0-1.5324 0.6037-4.9752 0.7322-4.1755 0.081 0.50305 0.3621 0.60732 2.3916 0.88677 10.855 1.4947 22.755 5.438 34.712 11.503 5.2226 2.649 3.8876 2.5106 8.7493 0.90692 2.2457-0.74078 5.6085-1.7378 7.473-2.2159 4.6665-1.1964 0.5555-3.9078-5.8896-3.8845-3.527 0.0128-5.5974-0.36394-7.9287-1.4433-1.5908-0.73654-2.1988-0.89414-2.9311-0.75809-1.3383 0.2486-1.3324 0.23171-0.7762 2.1766 0.2802 0.97991 0.5096 1.8353 0.5096 1.9007s-0.387-0.24534-0.8599-0.6904c-3.5493-3.3399-9.4195-6.7453-16.312-9.4635-7.4951-2.9558-9.8917-4.9244-11.382-9.3478-0.9264-2.75-0.4367-3.4039 4.0721-5.4379 9.3996-4.2402 19.306 2.3659 16.333 10.892-0.2444 0.7012-0.2118 0.8027 0.2992 0.93224 0.3154 0.08 1.396 0.68678 2.4014 1.3482 2.2688 1.4925 2.2759 1.4837 1.2144-1.5074-5.0041-14.102-17.103-24.02-28.347-23.879zm-20.31 0.1509c-11.581 0.1403-22.624 8.9854-28.157 22.755-1.5504 3.8593-1.5482 4.1659 0.024 3.0365 0.7215-0.51832 1.8548-1.1827 2.5187-1.4764 1.1788-0.52144 1.2015-0.55361 0.9622-1.388-2.3185-8.0842 6.2223-14.701 14.803-11.467 2.7121 1.0221 6.3836 3.2253 6.3836 3.8308 0 4.4241-4.2739 8.6209-11.603 11.394-6.0192 2.2772-13.094 6.2481-16.506 9.2651-1.3854 1.2247-1.4729 0.96144-0.5571-1.6769 0.1958-0.564 0.3561-1.0595 0.3561-1.1012 0-0.55885-2.2421-0.32198-3.4773 0.36742-2.056 1.1476-3.369 1.4163-7.3706 1.5084-3.9123 0.0901-5.6514 0.50456-8.5328 2.0319-1.6327 0.86542-1.9082 1.2614-0.8765 1.2614 0.8216 0 8.0137 2.0672 11.107 3.1926 2.3594 0.85829 2.3592 0.85856 1.7564 1.3467h-5e-4c-0.9838 0.79663-0.5255 0.59707 4.0024-1.742 12.191-6.2977 23.834-10.355 34.215-11.923 4.3174-0.65214 4.3244-0.65373 4.4297-1.1348 0.1389-0.63447 0.7297 2.7726 0.7297 4.208 0 0.64873-0.1817 1.8764-0.4036 2.728-0.2218 0.85164-0.3707 1.5698-0.3307 1.5963 0.04 0.0264 0.4411 0.30173 0.8909 0.61185 0.8178 0.56388 0.8178 0.56376 1.3653-0.41652 2.751-4.9259 1.5096-11.969-3.2127-18.229-1.4357-1.9034-1.4359-1.9034 0.3395-3.1988 7.7332-5.6423 7.0488-14.825-1.1431-15.336-0.5716-0.0357-1.1425-0.0498-1.7121-0.0429zm20.519 1.2232c5.325 0 6.7193 7.4081 1.8139 9.6366-4.0586 1.8438-8.3438-2.426-6.6069-6.5831 0.8145-1.9495 2.5473-3.0536 4.793-3.0536zm-20.868 0.0315c1.8862-0.0404 3.8037 0.89309 4.7501 2.822 1.1862 2.4174 0.03 5.6605-2.4132 6.7701-4.2205 1.9166-8.674-2.324-6.8999-6.5701 0.8218-1.9668 2.6769-2.9816 4.563-3.022zm-55.75 2.0805c-0.05 3.2e-4 -0.2072 0.14783-0.4713 0.39584-2.2888 2.149-3.9544 8.7169-2.7229 10.737 0.871 1.4284 4.7378 5.2922 6.4224 6.4172 2.0232 1.351 1.911 1.4247 1.911-1.264 0-3.9867 1.7961-6.7885 6.3169-9.8537 1.9161-1.2991-0.083-5.5779-2.5962-5.5557-2.4773 0.0219-7.8622 6.1524-8.4956 9.6718-0.3204 1.78-0.5376 1.8822-1.0201 0.48007-1.1267-3.2737-1.0461-7.4423 0.1917-9.9436 0.3801-0.77137 0.5343-1.0852 0.461-1.0847zm132.56 0.10903c-0.1067 0.025 0.031 0.46364 0.432 1.2738 1.1368 2.2966 1.0894 7.1417-0.098 9.9828-0.4237 1.0141-0.4239 1.0145-0.9146-0.91777-0.9307-3.665-3.3836-6.8881-6.6565-8.7473-1.8668-1.0604-1.9857-1.0264-4.4028 1.2785-2.2172 2.1142-2.2414 1.9122 0.4501 3.7982 4.2221 2.9586 5.6622 5.2431 5.8255 9.2439h-5e-4c0.1243 3.0427-0.02 2.986 2.6194 1.0289 3.3147-2.4576 6.4203-6.25 6.4203-7.8393 0-2.1132-1.5362-6.4217-2.9915-8.3902-0.37-0.50039-0.6007-0.73103-0.6837-0.71159zm-12.691 6.7381c-0.2711-5e-3 -0.2848 0.65278-0.4134 2.295-0.2109 2.694-0.1327 2.7481 1.5374 1.0583 1.2423-1.2568 1.2426-1.2568 0.025-2.4102-0.6164-0.58395-0.9515-0.93969-1.1493-0.9431zm-107.49 0.0729c-0.1754-4e-3 -0.4633 0.27667-0.9596 0.7028-1.3791 1.1835-1.3793 1.1895-0.033 2.65h5e-4c1.421 1.541 1.454 1.5225 1.3519-0.7338-0.087-1.9153-0.086-2.613-0.3597-2.619zm78.82 0.56792c-0.5166-5e-3 -1.3321 0.17454-2.65 0.5116-3.0114 0.77017-7.3463 3.1739-7.3463 4.0731 0 0.19095 0.1833 0.96372 0.4072 1.7177 0.4779 1.609 0.4492 1.6011 2.0702 0.57309 1.979-1.255 4.087-2.2426 6.4523-3.0231 2.3774-0.78449 2.3599-0.76 2.0128-2.8598-0.1116-0.67493-0.282-0.98635-0.9462-0.9927zm-49.608 0.0811c-2.2783 1e-3 -1.6837 2.9565 0.9823 3.8969 2.0479 0.72244 5.0904 2.2013 6.4823 3.1507 1.1747 0.80129 1.3981 0.69069 1.8676-0.92449 0.7351-2.5284-3.5894-5.4679-8.9751-6.1009-0.1261-0.0148-0.2451-0.0223-0.3571-0.0222zm-32.543 2.0236c-0.2366 0.0166-0.445 0.31994-0.862 0.92604-3.0436 4.4238-2.5152 8.5926 1.3343 10.522 2.5132 1.2595 2.4371 1.2703 3.577-0.52141 0.5323-0.83675 1.7934-2.5044 2.8019-3.7062 1.1882-1.416 1.7115-2.2276 1.4873-2.3053-3.9437-1.3674-5.4311-2.2063-7.3086-4.1217-0.5291-0.53972-0.7934-0.80983-1.0299-0.79323zm114.23 0.0961c-0.3411 6e-3 -0.7253 0.33979-1.3131 0.92759-1.3846 1.3846-3.8926 2.8247-6.0301 3.4623-1.4123 0.42127-1.4123 0.42117 0.462 2.6701 1.0308 1.2369 2.305 2.9414 2.8319 3.7874 1.1056 1.775 1.2114 1.7846 3.8995 0.35915 3.0062-1.5941 3.7644-5.1928 1.8769-8.909-0.8209-1.6163-1.2284-2.3065-1.7271-2.2975zm-27.682 2.835c-0.6639 8e-3 -1.3694 0.16944-2.0955 0.5209-3.4259 1.6585-2.8058 7.5479 0.8801 8.3576 0.389 0.0854 0.8265 0.19898 0.972 0.25218 0.5249 0.19182 2.1306-0.18028 2.7781-0.64389 4.0144-2.8743 1.5223-8.5373-2.5347-8.4868zm-59.119 0.0145c-0.8213-3e-3 -1.6815 0.24215-2.5099 0.80977-2.6568 1.8202-2.6226 5.932 0.064 7.7577h5e-4c1.8753 1.2743 4.7079 0.61495 6.0751-1.4139 2.2187-3.2923-0.4077-7.1401-3.6298-7.1536zm59.702 1.8293c2.5412 0 3.0208 4.4184 0.5721 5.272-0.8863 0.30895-0.9424 0.31269-1.5307 0.0977-2.842-1.0389-2.069-5.3697 0.9586-5.3697zm-60.031 0.3421c0.6017-8.7e-4 1.2384 0.24421 1.8164 0.82217 1.3772 1.3772 1.0757 3.5951-0.5829 4.2881-1.3962 0.58338-2.424 0.31946-3.1662-0.81338-1.362-2.0786 0.1275-4.2943 1.9327-4.2969zm-20.155 4.1465c-0.2223-6e-3 -0.3521 0.0816-0.5152 0.22634-0.6139 0.54491-1.5037 2.4483-1.2992 2.7792 0.082 0.1328 0.6861 0.16793 1.3421 0.078 0.656-0.0899 2.4557-0.17385 3.9997-0.18655 2.8073-0.0229 2.8073-0.023-0.3674-1.5689-1.9744-0.96142-2.7357-1.3164-3.16-1.3281zm100.47 0.0367c-0.4353-2e-3 -1.0593 0.28891-2.2221 0.79323-4.5594 1.9775-4.5385 1.9352-1.0289 2.1032 1.6735 0.0801 3.4823 0.16944 4.0194 0.19844 1.2748 0.0689 1.4391-0.26894 0.7178-1.4733-0.6793-1.1341-0.9267-1.6194-1.4862-1.6216zm-84.586 2.266c-0.2275-4e-3 -0.4765 0.0279-0.7431 0.10439-2.5196 0.7226-4.9629 2.8679-5.6115 4.9268-0.2667 0.84664-0.5414 1.6878-0.6114 1.8696-0.2086 0.54515 0.064 0.40835 2.9001-1.4593 1.4953-0.98465 3.5193-2.2048 4.4979-2.7115 1.7097-0.88509 1.1608-2.7-0.432-2.7301zm68.843 0.0439c-0.4392-4e-3 -0.8015 0.12647-1.0366 0.42529-0.2794 0.3552-0.7431 0.72064-1.0304 0.81184-0.8421 0.26729-0.6399 0.46213 1.7771 1.7172 1.2611 0.65484 3.254 1.8632 4.4287 2.6851 2.3882 1.671 2.5344 1.6222 1.8557-0.61908-0.74-2.4443-4.0913-5.0019-5.9945-5.0204zm-91.549 1.124c-5.866 0.0458-13.859 3.4353-17.899 8.1525-0.8789 1.0261-1.0739 1.3833-0.6935 1.2707 0.2911-0.0861 1.3031-0.34856 2.249-0.58343 1.0534-0.26156 2.3988-0.87433 3.4721-1.5813 6.3135-4.1584 14.031-6.0964 19.005-4.7728 2.395 0.63738 1.6619-0.0376-1.8397-1.6934-1.1754-0.55579-2.6514-0.80503-4.2938-0.7922zm114.02 0.0481c-1.7922-6e-3 -3.4056 0.27385-4.6829 0.88315-1.7115 0.81639-3.6542 2.2187-2.5136 1.8144 5.0527-1.7911 13.97 0.19689 20.078 4.4762 1.0687 0.74867 2.2311 1.2686 3.7041 1.6568 1.1807 0.31118 2.2459 0.57921 2.3673 0.59531 0.3014 0.0404-1.1641-1.7684-2.2479-2.7745-4.3442-4.0328-11.329-6.632-16.705-6.6513zm-50.156 5.2488c-0.8876-4e-3 -0.8294 0.35592-0.8294 1.1942 0 1.1459 0.037 1.2098 0.5953 1.034 4.7446-1.4934 9.0316 1.6822 9.0196 6.6802 0 1.8538 0.02 1.9293 0.6801 2.0836 11.601 2.7119 23.468 7.7869 30.186 12.909 0.6549 0.49921 1.2057 0.91501 1.2237 0.92501s0.6689-0.90208 1.4464-2.0268c0.7774-1.1247 1.9335-2.6828 2.5684-3.4623 0.635-0.77957 1.1146-1.4528 1.0666-1.496-6.9497-6.2278-27.917-14.888-41.697-17.223-2.3069-0.39079-3.5693-0.61472-4.2597-0.61805zm-15.547 0.11989c-7.7741-4e-3 -31.348 8.7481-42.499 16.611-1.837 1.2954-1.8263 1.1171-0.186 3.1502 0.7344 0.9102 1.7762 2.3385 2.3151 3.174 1.2055 1.8688 0.8392 1.9059 4.3718-0.44338 7.0925-4.7168 16.457-8.7527 25.469-10.977 3.4617-0.85421 3.4618-0.8544 3.4618-2.7683 0-4.8509 4.9449-8.4466 9.1503-6.6539 0.3971 0.16934 0.463 0.0455 0.463-0.87333 0-0.84123-0.9331-1.2193-2.5466-1.2201zm64.416 0.69092c-0.5944-6.1e-4 -1.1968 0.0237-1.8055 0.0734-7.4774 0.61052-8.2398 1.5735-1.5891 2.0076 9.2274 0.60231 15.507 5.2328 17.064 12.582 0.7839 3.7001 0.5422 4.7208-1.2191 5.1434-1.3754 0.32996-2.7624 1.1428-4.0726 2.3869-0.8417 0.79931-2.5092 0.51734-5.4276-0.91725-1.0174-0.50014-0.3039 0.25761 2.7368 2.9068 1.2256 1.0677 1.2356 1.0901 1.2356 2.7373 0 1.8002 0.4877 2.9649 1.434 3.4241 2.0261 0.98295 3.7558-0.49404 2.1022-1.7947-0.9384-0.73819-1.1549-0.6921-1.1549 0.24547 0 0.94885-0.6235 1.0772-1.0811 0.22221-0.3511-0.65603-0.1289-3.6785 0.3343-4.5439 0.8252-1.5419 4.6412-4.7215 4.7424-3.9517 0.059 0.45061-0.066 2.0842-0.1923 2.5187-0.4421 1.5158 2.5944-1.381 3.4836-3.3233 4.375-9.5564-4.5039-19.705-16.591-19.717zm-110.95 0.12402c-14.251-0.0342-24.161 14.469-15.155 22.178 1.4361 1.2294 1.5968 1.1875 1.4878-0.38602-0.1107-1.5972 0.2281-1.7044 1.7962-0.56844 2.7896 2.0207 4.3887 5.9755 3.1688 7.8372-0.6086 0.9289-0.9555 0.83567-0.9555-0.25683 0-1.0708-0.1933-1.1342-1.1549-0.37776-0.7473 0.58788-0.8924 1.2671-0.3798 1.7797 1.5592 1.5592 3.916-0.53392 3.916-3.4778 0-1.8006 0.3838-2.3496 2.989-4.2752 1.7223-1.273 1.785-1.8155 0.1219-1.0578-3.1252 1.4239-3.618 1.4307-5.287 0.0713-1.3787-1.123-2.1796-1.507-3.9641-1.9012-0.8854-0.19481-1.1541-1.2911-0.8754-3.5218 1.0207-8.169 7.6013-13.564 17.202-14.102 7.6091-0.42703 5.3687-1.9212-2.9105-1.941zm128.41 3.8685c-0.1551 4e-3 0.029 0.32215 0.448 0.95601 3.6615 5.533 2.317 14.551-2.959 19.846-2.2088 2.2168-2.2087 2.2168-2.2087 3.9026 0 1.948-0.042 1.9302 2.3363 0.98289 12.227-4.8696 14.318-17.918 3.9688-24.763-0.9366-0.61949-1.4304-0.9288-1.5854-0.92449zm-146.56 0.25683c-0.2022 0.0138-0.7507 0.35363-1.7187 1.0247-5.5368 3.8387-7.4675 7.9347-6.0482 12.832 1.722 5.9423 5.2692 9.8076 10.896 11.874 3.0526 1.1208 2.9277-1.781-0.2139-4.9702-5.343-5.4242-6.835-14.451-3.2768-19.828 0.4193-0.63364 0.5639-0.94605 0.3617-0.93224zm83.066 0.92139c-2.8567 0.0124-5.5528 3.2514-4.4726 6.5242 0.3362 1.0188 2.0883 2.7056 3.0189 2.9063 4.9815 1.0743 7.8456-5.8751 3.6096-8.7581-0.6891-0.46898-1.4278-0.67548-2.1559-0.67231zm-19.411 0.11317c-0.8907-7e-3 -1.7668 0.2262-2.4774 0.73226-2.7963 1.9911-2.3413 6.633 0.8025 8.1892 4.1475 2.053 8.2073-2.7479 5.7309-6.7768-0.8335-1.3561-2.4684-2.1321-4.056-2.1446zm19.777 1.9172c1.9009-6e-3 3.1741 2.5426 1.6309 4.3765-0.5398 0.64156-0.8945 0.81391-1.6738 0.81391-2.4807 0-3.294-3.7501-1.0635-4.9036 0.3812-0.1971 0.7544-0.28569 1.1064-0.2868zm-20.012 0.0558c0.5326-5e-3 1.0808 0.18839 1.5602 0.63872 0.937 0.88009 0.942 2.9146 0.01 3.8468-1.277 1.2771-3.3201 0.67061-3.8613-1.1462-0.5358-1.7986 0.819-3.3262 2.2913-3.3393zm9.8925 1.9596c-3.7042 0-3.7042-2.5e-4 -3.7042 1.0061 0 4.2975-5.1364 7.1121-8.9855 4.9237-1.1642-0.66193-1.1732-0.66266-0.6615-0.0636 0.7847 0.91849 1.2353 1.2458 2.1064 1.5306 2.863 0.93605 6.6434-0.34102 9.0185-3.0463 2.0518-2.337 2.589-2.3343 4.6964 0.0222 3.2794 3.6672 8.0327 4.4215 10.648 1.6898 0.7726-0.80701 0.7725-0.80718-0.5198-0.0853-3.7517 2.0957-8.8594-0.84503-8.8884-5.1175-0.01-0.8599-0.01-0.85989-3.7098-0.85989zm-22.21 8.8842c-4.068 0.0147-8.1763 0.67675-12.137 1.9921-2.1496 0.71381-1.9753 0.87428 0.3659 0.33641 6.1777-1.4193 20.404-0.44605 27.486 1.8805 3.4523 1.1343 2.5133 0.22646-1.4919-1.4423-4.4619-1.8591-9.3128-2.7845-14.222-2.7668zm43.78 0.0372c-4.6795 0.0469-9.1849 0.9033-13.185 2.559-2.1854 0.90463-4.1527 1.9468-4.1527 2.1999 0 0.074 0.1952 0.0597 0.4341-0.032 7.8349-3.0065 22.254-3.9964 31.051-2.1311 1.1662 0.24725 0.01-0.35644-1.5813-0.82269-4.173-1.2259-8.4376-1.8144-12.567-1.773zm-45.368 3.8349c-7.9166-0.0504-14.913 2.2494-21.892 6.981-1.9451 1.3187-2.6817 1.6876-2.9869 1.4966-0.5833-0.36531-1.8616-3.5746-2.0469-5.1387-0.1661-1.4025-0.4197-1.2912-0.7039 0.30902-0.4599 2.5897 0.9348 6.1291 3.36 8.5266 1.5436 1.526 1.5438 1.5259 0.083 2.8608-2.149 1.9641-2.4195 3.2153-1.0376 4.8018 0.3464 0.39764 0.3183 0.54239-0.26 1.3229-1.9126 2.5815-3.3764 5.9502-4.0209 9.2552-0.3499 1.7945-0.8831 3.967-1.1849 4.8276-0.3017 0.86061-0.5003 1.6136-0.4403 1.6733 0.1151 0.11504 2.3753-3.9289 2.697-4.8256 0.1044-0.29105 0.6614-1.3332 1.2376-2.3161 0.9266-1.5808 1.0886-2.1206 1.4025-4.6716 0.5681-4.6152 0.7041-4.7903 2.6257-3.3745 3.336 2.458 3.6803 3.106 4.0023 7.5344 0.2833 3.8946 0.6238 2.2908 0.6238-2.9771 0-5.3864 3.9356-11.488 5.6916-8.8341 1.6726 2.5274 3.8604 3.2466 7.1799 2.3596 4.2552-1.1369 6.5095-1.4512 8.3303-1.1606 1.5292 0.24403 1.5834 0.27304 0.5736 0.30644-1.1313 0.0374-7.8945 1.4015-9.0284 1.8211-0.5532 0.20471-0.5742 0.26588-0.1984 0.57775 1.0584 0.87836 0.075 0.82422-3.8871-0.21343-4.1309-1.082-6.4064-1.0323-3.9269 0.0858 1.052 0.47439 1.052 0.47442-0.6284 2.0965-3.3158 3.2007-3.0422 8.3633 0.6599 12.448 1.7399 1.9199 2.7363 3.4351 1.5306 2.3275-0.3621-0.33261-1.6218-0.90081-2.7993-1.2624-1.7527-0.53826-2.2886-0.83603-2.9559-1.6438-0.8154-0.98671-0.8152-0.98702-0.7482 2.188 0.075 3.5838-0.1747 4.3856-2.4919 7.9954-0.6335 0.98695-1.5517 2.7194-2.0407 3.8504-1.0428 2.4119-1.096 2.4337-0.7343 0.2992 0.4948-2.9197 0.052-2.9245-1.4733-0.016-2.5611 4.8843-6.6127 9.0248-11.238 11.485-2.8084 1.4938-2.9687 1.42-0.465-0.21446 3.8058-2.4846 6.2061-5.2774 8.0532-9.371 0.9264-2.0531 1.5328-2.8121 2.989-3.7414 2.5237-1.6106 4.2656-9.8004 3.1434-14.778-0.3565-1.5812-0.3563-1.5813-0.9963 0.63562-2.9935 10.369-11.275 19.593-20.801 23.17-0.6945 0.26068-1.2037 0.53314-1.1307 0.60564 0.6908 0.69083 10.852-4.8772 14.141-7.7489 1.7995-1.5711 0.375 0.26649-1.7317 2.234-3.827 3.574-7.9843 5.8647-11.339 6.2477-1.6441 0.18769-4.3361-3.2648-5.5821-7.1587-0.5932-1.8521-0.5929-1.8518-0.6139 0.67231-0.047 5.5085-3.33 11.297-7.6947 13.568-0.5121 0.26498-0.7398 0.32451-0.5121 0.13229 0.2277-0.19225 0.8802-0.7368 1.4496-1.2097 1.3387-1.1118 1.2066-1.0883-1.7617 0.31006-6.798 3.2026-14.457 4.957-23.33 5.3439-3.625 0.158-4.1679 0.23809-4.0979 0.60461 0.073 0.37987 1.8709 0.43994 17.805 0.5979 9.748 0.0966 18.854 0.30339 20.237 0.45889 1.3824 0.15549 3.2875 0.287 4.2334 0.293 1.7198 0.0105 1.7198 0.0107 1.0583 0.5333-1.2963 1.0243-4.3046 1.6157-10.147 1.9952-2.6063 0.16933-2.6067 0.16932-3.1435 1.3994-0.6742 1.5449-0.4576 1.3724-2.2448 1.7896-1.5302 0.35722-1.5301 0.35734-0.075 0.23203 0.8004-0.0689 9.3134-0.15145 18.918-0.18345 9.6044-0.032 16.212-0.11791 14.684-0.19121-2.7779-0.1333-2.7778-0.13328-0.044-0.27491 2.7339-0.14166 2.7337-0.14187 3.6059-2.4004 1.5458-4.0024 4.5838-9.4579 5.9609-10.704 0.4268-0.38627 0.5312-0.81484 0.5312-2.1808 0-1.5316 0.2256-4.1301 0.7173-8.2724 0.1669-1.4057 0.1828-1.3537 0.4801 1.5244 0.3554 3.4392 0.508 3.8018 0.7803 1.8578 0.2248-1.6058 0.6544-0.90077 1.0428 1.711 0.222 1.4923 0.064 1.4591 1.9446 0.41393 3.1068-1.7266 4.7951-3.0644 8.7933-6.9655 6.2837-6.1311 10.057-7.5218 13.704-5.0519 1.5688 1.0625 1.6447 1.3898 0.4026 1.7296-1.6598 0.4541-2.5829 1.1868-4.1925 3.3254-0.8409 1.1174-1.7485 2.1686-2.0169 2.3363-0.6976 0.43562-0.6056 0.78738 0.1069 0.40876 0.3275-0.17399 1.8193-1.182 3.3151-2.2402 3.9358-2.7842 5.2162-3.0175 9.3767-1.7089 2.5232 0.79356 2.1537 2.6852-1.5674 8.0192-2.6554 3.8063-2.926 4.1224-2.3156 2.7099 1.3907-3.2185 2.9089-8.0698 2.5254-8.0698-0.1142 0-0.4338 0.50521-0.7105 1.1224-0.9029 2.0134-4.1338 6.5438-6.3578 8.9147-0.059 0.0633 0.4134-1.0083 1.0511-2.3812 1.9822-4.2674 2.3253-5.9681 0.679-3.3662-0.4869 0.76952-1.791 2.649-2.898 4.177-1.107 1.528-2.51 3.6042-3.1176 4.6137-1.085 1.8026-1.4893 2.1895-0.7069 0.67644 0.4831-0.93414 3.3451-9.3083 3.223-9.4304-0.048-0.0477-0.613 0.95355-1.2562 2.2252s-1.9963 3.6812-3.0066 5.3547-2.1154 3.5785-2.4556 4.2333c-0.3402 0.65485-0.54 0.89807-0.445 0.54054 0.095-0.35756 0.5184-1.9649 0.94-3.5719s1.1747-3.7254 1.6738-4.7077c1.9069-3.7536-0.1037-0.93691-2.3771 3.33-0.84 1.5766-2.04 4.1248-2.667 5.6632-1.2191 2.9915-1.3513 3.01-1.4986 0.20929-0.1147-2.1809-2.3315 1.4406-2.5234 4.1222-0.1711 2.3915-0.5031 1.8774-0.7395-1.1446-0.2553-3.2641-0.2248-3.2976-2.4107 2.6996-1.1176 3.0667-1.2518 3.2228-1.0227 1.1937 0.2561-2.2687-0.1069-3.1679-0.7255-1.7973-0.5254 1.1642-2.8241 4.2182-5.966 7.9256-6.9294 8.1765-9.7159 18.646-7.5893 28.514 0.5373 2.4932 0.3704 2.4298-0.4785-0.1819-2.3676-7.284-2.3226-21.548 0.1008-31.901 0.2837-1.212 0.5157-2.2538 0.5157-2.3151 0-0.68982-35.353-0.0229-36.156 0.68213-0.4972 0.43656-1.0191 0.79375-1.1596 0.79375s-0.2553 0.11906-0.2553 0.26458c0 0.17108 3.6233 0.28063 10.253 0.30903 11.264 0.0483 11.445 0.0278-6.0193 0.66869-6.5326 0.23971 2.7896 1.0678 13.097 1.1632 6.6146 0.0612 6.6146 0.0612 0.1323 0.25631-6.95 0.20923-12.009 0.49839-11.831 0.67645 0.06 0.0604 3.0863 0.22352 6.7241 0.36277 10.732 0.41079 15.067 1.0982 9.2294 1.463-3.7993 0.23738-4.2652 0.65006-0.7643 0.67696 1.4274 0.0109 3.9645 0.16591 5.6379 0.34416 3.3402 0.35573 3.4556 0.34432-9.3927 0.93225-5.0956 0.23318-2.0146 0.4785 8.9519 0.71313 4.3414 0.0929 7.7942 0.2658 7.6729 0.38447-0.1213 0.11869-1.7684 0.49212-3.6602 0.82941-3.4398 0.6133-3.4397 0.61298 0.066 0.68678 5.712 0.12028 3.1319 0.90968-4.2824 1.31-1.968 0.10625-2.7044 0.22575-2.3032 0.37413 0.4929 0.18235 7.0913 0.73788 8.9245 0.75138 0.5439 4e-3 0.5533 0.10201 0.5643 5.7588 0.02 10.492 1.7288 17.36 5.5051 22.115 1.4031 1.7671 1.6319 1.8008 1.0217 0.15089-0.5852-1.5825-0.7788-6.3538-0.3194-7.8729 0.3251-1.0749 0.3483-0.8997 0.3483 2.6458 0 4.3825 0.247 5.442 2.2422 9.6175 1.7622 3.688 2.2174 4.2366 1.6459 1.9844-0.5309-2.0921-0.6196-12.154-0.1224-13.891 0.2765-0.96618 0.2867-0.90855 0.1204 0.66146-1.6133 15.232 8.5106 25.941 13.325 14.095 0.5855-1.4406 0.5854-1.4402 0.9002 0.36742 1.2085 6.9397 4.9824 12.37 12.352 17.775 2.9571 2.1685 4.0085 3.28 7.3721 7.7938v-5.2e-4c1.724 2.3133 1.7896 2.3113 2.4009-0.0749 0.7553-2.948 0.236-5.2021-1.6531-7.1753-0.6645-0.6941-1.0431-1.4513-1.3886-2.7781-0.5791-2.2237-1.1073-3.4972-2.159-5.2064-0.4417-0.7179-0.7497-1.3587-0.6837-1.4247 0.2347-0.2346 2.4279 2.8486 3.8365 5.3935 1.7947 3.2428 3.6645 5.6155 5.2539 6.6683 1.666 1.1035 1.6814 0.89583 0.082-1.078-0.7483-0.9233-1.8168-2.6309-2.375-3.7951-1.4361-2.9953-1.5899-3.8943-0.2-1.1694 1.2673 2.4845 3.5318 5.8927 4.5522 6.8513 0.6481 0.6089 0.6481 0.60907 1.589-1.4557 1.0579-2.3214 2.4565-4.288 3.6809-5.1754 0.663-0.4806 0.7387-0.49745 0.3902-0.0879-1.5525 1.8249-2.2654 5.6737-1.5746 8.5054 1.073 4.3985 0.9643 4.3124 2.5492 2.019 2.7219-3.9384 4.1419-5.453 7.3944-7.8889 7.9715-5.97 12.469-12.323 13.87-19.59 0.567-2.9411 0.6304-3.0517 0.8294-1.4552 0.2073 1.6644-0.1481 6.7629-0.5437 7.8037-0.4902 1.2892-0.2496 1.3313 0.8238 0.14366 1.3136-1.4533 2.788-4.4941 4.0633-8.3798 0.7756-2.3631 1.2025-3.2216 2.157-4.3398 3.1121-3.6459 4.4126-10.139 2.9341-14.647-0.6397-1.9506-0.033-1.0786 1.1354 1.6304 2.7298 6.3318 3.1782 13.945 1.1637 19.752-0.8244 2.3762-0.6822 2.4286 0.6222 0.22893 2.7823-4.6921 3.9559-10.28 3.1833-15.156-0.2671-1.6864 0.2098-0.46109 0.757 1.9446 0.5146 2.2625 0.3646 4.7434-0.4098 6.7815-0.7339 1.9314-0.569 1.9244 1.0015-0.0403 3.9138-4.896 5.6364-11.744 5.6524-22.474 0.01-5.7182 0.01-5.7182 4.8839-5.8518 3.1075-0.0852 4.9843-0.24252 5.1754-0.43357 0.2233-0.22334-0.068-0.29983-1.142-0.29972-2.175 1.8e-4 -9.0781-0.81626-9.3798-1.1095-0.1715-0.16605 1.1039-0.22608 3.6241-0.16898 4.3565 0.0986 4.3382 0.0174-0.1845-0.82838-1.7463-0.32652-3.334-0.68112-3.5285-0.78806-0.3451-0.18984 8.4991-0.52521 14.882-0.56431 5.4875-0.0337 6.1941-0.37532 1.2139-0.58704-12.832-0.54557-13.479-0.71241-4.3708-1.125 3.883-0.17589 5.4715-0.57087 2.5368-0.63097-8.5251-0.17457-4.446-1.1105 6.9784-1.6009 9.8461-0.42272 8.5122-0.71535-4.7475-1.0418-8.202-0.20195-8.202-0.20195-1.3229-0.24185 9.8056-0.0569 23.344-0.93921 16.801-1.095-13.783-0.32827-19.79-0.72581-12.303-0.81391 7.0156-0.0826 12.702-0.17951 13.576-0.23151 0.5742-0.0342 0.063-0.54983-0.5452-0.54983-0.538 0-0.5415-0.0167-0.076-0.35709 1.1845-0.86607-0.7624-0.96583-18.815-0.96583-10.524 0-17.556 0.0973-17.556 0.2434 0 0.13404 0.2332 1.2354 0.5178 2.4474 2.2351 9.518 2.0985 24.455-0.2919 31.918-0.9835 3.0704-1.1406 3.0412-0.4346-0.0806 2.3256-10.284-0.5488-20.723-8.2052-29.799-2.2337-2.6477-4.6626-5.9582-5.1387-7.0032-0.558-1.2247-0.7876-0.64821-0.6946 1.7446 0.1123 2.8898 0.1398 2.8821-0.6996 0.19844-1.9396-6.2014-2.2792-6.554-2.8645-2.9766-0.3159 1.931-0.3952 2.1561-0.4232 1.1906-0.083-2.8895-2.4429-7.5257-2.6014-5.1103-0.2362 3.5994-0.3015 3.6286-1.3658 0.61237-1.0896-3.0881-4.1487-9.2223-5.2121-10.451-0.6869-0.7937-0.687-0.79359-0.2393-0.0398 0.767 1.291 2.7468 7.9693 2.4505 8.2656-0.1536 0.15356-3.2813-5.1403-5.0162-8.4904-2.1846-4.2184-2.2076-4.0428-0.2336 1.7596 0.859 2.5247 1.4245 4.3666 1.2568 4.0928s-0.9978-1.4644-1.8443-2.6458c-0.8464-1.1814-2.3921-3.3734-3.4355-4.871-1.0433-1.4976-1.9336-2.6144-1.9776-2.4815-0.096 0.28919 1.2595 3.758 2.2215 5.6829 0.772 1.5446 0.6882 1.4901-1.1394-0.74311-1.9009-2.3227-3.6225-4.8261-4.4582-6.4823-1.4303-2.8348-0.4742 1.4496 1.3085 5.8632 0.7849 1.9432 0.7602 1.9196-1.8407-1.7549-4.2158-5.9563-4.4824-7.4977-1.4609-8.4522 3.8588-1.219 5.1882-0.92623 9.3266 2.0541 1.1175 0.80486 2.4272 1.6674 2.9104 1.9172 1.0054 0.5198 0.9955 0.50096-0.8341-1.6516-0.5134-0.6041-1.3842-1.641-1.9348-2.3042-0.757-0.91176-1.3892-1.3472-2.5926-1.7859-1.5915-0.5803-1.5912-0.58053-0.7374-1.4614 3.1993-3.3009 7.948-1.7639 14.775 4.7821 2.1793 2.0895 4.6624 4.2576 5.5181 4.8178 1.557 1.0194 3.9842 2.5255 4.3304 2.6872 0.1013 0.0473 0.2287-0.5474 0.2837-1.3208 0.077-1.0869 0.1473-1.2717 0.3091-0.8139 0.3567 1.0095 0.5942 0.4552 1.2397-2.8949 0.679-3.5243 0.8995-2.6556 1.4511 5.719 0.1901 2.8869 0.1898 2.8868 1.4836 4.5961 1.4431 1.9066 3.5143 5.8444 4.9702 9.4501 0.9614 2.3812 0.9611 2.3813 3.7218 2.5042 2.7612 0.12295 2.7611 0.12305-0.017 0.27905-1.5279 0.0858 5.0205 0.1801 14.552 0.2098 9.5316 0.0298 17.985 0.10879 18.785 0.17519 1.4552 0.12081 1.4554 0.12071 0.052-0.1571-1.3556-0.26842-1.4261-0.32614-2.0815-1.7105-0.6063-1.2804-0.7666-1.4337-1.5074-1.4407-5.0772-0.0472-9.7598-0.83153-11.544-1.9337-1.4688-0.9071 3.0103-1.1901 21.564-1.3617 17.968-0.16619 21.299-0.28926 21.299-0.78652 0-0.2471-1.0539-0.38091-4.0349-0.51315-9.6463-0.42791-16.808-2.2362-24.937-6.2962-4.5056-2.2504-6.7141-6.1074-6.7681-11.817-0.022-2.2872-0.021-2.2872-0.6154-0.43512-2.7575 8.5979-8.4043 8.6831-17.021 0.25683-2.0536-2.0082-2.0536-2.0081-0.4661-0.85111 4.158 3.0304 12.108 7.0957 12.706 6.4978 0.069-0.0687-0.8572-0.49833-2.0572-0.95498-8.2558-3.1416-16.131-11.95-19.399-21.697-1.4043-4.1885-2.0722 2.7416-0.7788 8.0801 0.9568 3.9493 1.1754 4.3543 3.0314 5.6146 1.4891 1.0112 1.7266 1.3145 2.9186 3.7254 2.0422 4.1307 3.8554 6.3193 7.2167 8.7101 1.708 1.2149 1.4234 1.2838-0.5938 0.14366-4.3107-2.4366-8.0564-6.3458-10.586-11.048-1.4811-2.7531-1.9536-2.3019-1.1788 1.1255 0.1914 0.84651-1.0564-1.3663-1.4919-2.6458-0.1734-0.50932-0.822-1.7053-1.4412-2.6577-2.1034-3.2358-2.6457-5.1728-2.2185-7.9261 0.4408-2.841 0.2213-2.953-0.9979-0.50901-1.0659 2.1366-2.1237 3.5014-5.7996 7.4796-2.1424 2.3186-1.8794 1.1691 1.2325-5.3826 3.9724-8.3633 4.2422-12.613 1.0134-15.963-0.7044-0.73086-1.2483-1.3611-1.2093-1.4004s0.6029-0.31814 1.2532-0.6196c1.8305-0.84871-0.5116-0.52431-3.6127 0.50023-3.5066 1.1585-4.5362 1.2845-5.007 0.61237-0.6372-0.90982-6.0169-2.8604-9.1157-3.3052-0.5505-0.079-0.4616-0.15265 0.5292-0.43925 2.3585-0.68226 9.3948 0.65461 7.507 1.4263-0.7553 0.30869-0.7553 0.30848 0.4331 0.60513 5.5757 1.3919 7.0114 0.42641 8.3271-5.6007 0.1671-0.76517 0.173-0.76111 1.1446 0.80409 0.5371 0.86533 1.6659 2.546 2.5084 3.7346 1.5317 2.1612 1.5319 2.1611 1.3545 4.5103-0.3117 4.1292 0.165 8.2355 0.5844 5.0338 0.5053-3.8574 0.7621-4.5914 1.8955-5.4183 0.5411-0.39484 1.5094-1.1125 2.1518-1.5947 1.7725-1.3307 2.4622-0.52426 2.9089 3.4019 0.2221 1.9518 4.5839 12.125 5.1986 12.125 0.16 0-0.1857-1.5964-0.6015-2.7781-0.2048-0.58208-0.6646-2.4871-1.0221-4.2333-0.6787-3.3155-2.5704-7.375-4.2819-9.1896-0.6464-0.68532-0.6586-0.74927-0.2321-1.2206 1.5364-1.6977-0.104-5.0729-2.4629-5.0669-0.2255 5.5e-4 0.01 0.25129 0.5158 0.55707 1.9894 1.1944 2.6522 2.3726 1.7539 3.1182-0.2883 0.23921-0.4312 0.13616-0.6941-0.49868-0.1821-0.43974-0.8822-1.2044-1.5554-1.6996-2.3252-1.7106-3.0831-2.8826-1.4594-2.2567 2.2391 0.86304 6.8749-7.2648 6.2699-10.993-0.1938-1.1941-0.6108-1.4812-0.6108-0.42065 0 1.5304-1.8848 5.8425-2.5538 5.8425-0.1779 0-1.4918-0.79365-2.9197-1.7637-11.659-7.9208-22.746-8.9133-39.541-3.5393-4.786 1.5314-7.4758 1.5329-12.015 6e-3 -6.5673-2.2086-12.414-3.3436-17.831-3.3781zm-1.9188 5.2085c2.0023-0.0701 4.3331 0.29151 7.0626 1.0588 1.0186 0.28638 3.9311 1.0677 6.472 1.7363 8.0167 2.1097 10.257 4.5824 8.2196 9.0718v5.1e-4c-0.5531 1.2185-1.5947 1.6174-1.5947 0.61082 0-0.47577-0.053-0.48553-0.7276-0.13384-0.9422 0.49148-3.2358 0.48534-5.6715-0.015-3.1482-0.64664-3.6017-0.95137-6.5562-4.4049-2.6667-3.1172-3.5639-3.8424-2.3766-1.9213 0.3319 0.53724 0.4947 0.92948 0.3612 0.87178-0.1336-0.0577-1.0164-0.5074-1.9616-0.99942-5.2485-2.732-7.5744-2.521-11.473 1.0418-1.4997 1.3706-1.4994 1.3707-0.9488 0.0863 1.9745-4.6062 4.7894-6.8494 9.1943-7.0037zm48.77 0.34107c0.8656 0.0669-0.6338 1.0685-4.0603 3.3579-6.65 4.4434-10.915 6.5502-8.1142 4.008 1.1585-1.0514 1.1586-1.0517-0.8258-0.10541-1.0914 0.52047-2.282 1.0871-2.6458 1.2588-0.4619 0.21804-0.7291 0.62871-0.8857 1.3617-0.1233 0.57732-0.3147 1.2281-0.4253 1.4464-0.4433 0.8753-0.9818 0.53791-1.7782-1.1141-2.0769-4.3079-1.2013-5.695 4.4054-6.9799 1.6772-0.38436 5.1926-1.2217 7.8119-1.8604 3.7409-0.91209 5.8447-1.4251 6.518-1.373zm2.9569 1.7363c2.4056 0.0111 4.9433 0.55785 6.7298 1.45 2.0538 1.0257 1.8707 1.1294-2.0061 1.1364-3.5097 6e-3 -3.6866 0.0342-6.0626 0.9555-2.5561 0.99108-2.9297 0.91261-1.8992-0.39739 1.3486-1.7145-2.5425 1.5216-5.5888 4.6478-1.6015 1.6436-2.1136 1.9062-4.8265 2.4769-2.6599 0.55954-3.2827 0.50101-4.1765-0.39275-1.0692-1.0692-1.0176-1.164 1.08-1.987 1.0193-0.39989 4.0255-1.9876 6.6807-3.5285 7.6144-4.419 7.507-4.3729 10.069-4.361zm-25.482 2.4774c3.8059-0.0344 3.8696 3e-3 2.7306 1.5885-0.7803 1.0862-0.9935 1.6933-1.2883 3.667-0.1943 1.3009-0.4837 2.6085-0.6428 2.9058-0.9639 1.8012-2.2317 0.24953-2.7802-3.4024-0.3926-2.614-0.9883-4.2288-1.5818-4.286-1.0958-0.1056 1.5326-0.45434 3.5625-0.47284zm-15.014 2.7078c-0.058-4e-3 0.063 0.10083 0.3297 0.32194 0.7844 0.65127 3.192 1.6859 4.8725 2.0939 1.6402 0.39822 2.4035 0.47872 2.4035 0.25322 0-0.77785-1.4766-1.8714-3.175-2.3508-0.5343-0.15084-0.4835-0.0693 0.2646 0.42427 1.824 1.2033-1.3002 0.83291-4.1011-0.48628-0.3525-0.166-0.5431-0.25313-0.5942-0.25631zm-30.276 1.6325c0.2591 0.0334-0.06 0.59761-1.2082 1.7632-1.3189 1.3384-1.9351 2.17-1.9761 2.668-0.066 0.79743-0.2092 0.88235-0.6853 0.40618-0.591-0.591-0.3577-1.6584 0.5426-2.4831 1.7057-1.5625 2.9938-2.3973 3.327-2.3544zm45.041 7.0146c2.3257 3e-3 4.6768 0.60389 4.3667 1.6469-0.7891 2.6547-0.5606 3.0617 3.1466 5.6059 2.2166 1.5212 2.2166 1.521 3.714 1.0857 1.8394-0.5347 2.3296-0.2976 6.2197 3.0045 2.8938 2.4564 3.263 2.619 2.0971 0.92449-0.8954-1.3014-0.7972-1.351 1.4242-0.72295 0.3535 0.1 0.2326-0.18742-0.463-1.0986-1.0985-1.4391-1.2269-2.5268-0.3659-3.0985 0.5611-0.37256 0.531-0.41129-1.1834-1.5384-1.8957-1.2464-2.0727-1.4875-0.7555-1.0284 0.9639 0.33602 3.1263 0.0323 5.7288-0.80408 1.5875-0.51017 1.5876-0.51013-1.9843-0.39895-5.0185 0.15618-3.007-0.52607 3.175-1.0769 5.7487-0.51225 7.3243-0.49885 8.4666 0.0718 3.4392 1.718 5.3206 11.194 1.9844 9.9947-1.4542-0.5229-1.6388-0.49897-1.8242 0.23978-0.4291 1.7098-6.7646 3.9445-8.8992 3.1388-1.0906-0.41166-0.9823-0.0508 0.3385 1.1296 2.1377 1.9106 3.0135 4.134 1.1906 3.0226-2.7246-1.6613-1.8592 1.0436 2.6676 8.337 1.9849 3.1981 1.0807 2.35-2.8216-2.6458-4.1135-5.2663-5.9714-7.3501-7.9819-8.9529-6.4219-5.1198-12.572-4.792-12.909 0.68781-0.1617 2.6334 0.3724 3.6241 1.0325 1.9151 1.2064-3.1234 3.1326-3.9109 4.9992-2.0443 2.4771 2.4771 2.1284 5.8968-0.5581 5.4751-3.2483-0.5099-4.4507-0.34497-6.2761 0.86041-2.7752 1.8325-5.9629 2.2228-7.9365 0.97152-3.6338-2.3039-3.895-2.3658-7.6972-1.8206-2.0752 0.29761-2.607-0.69264-1.8454-3.436 1.0643-3.8335 4.7805-3.9911 6.2043-0.26303 0.7491 1.9616 1.3844 0.82317 1.1136-1.9958-0.7754-8.0697-10.663-4.4381-20.18 7.412-1.9283 2.4011-3.9501 4.8419-4.4927 5.424-1.1021 1.1823-1.1079 1.1943 1.282-2.6458 1.8633-2.9941 3.5767-6.7191 3.7833-8.2264 0.1954-1.4254 0.126-1.4147-2.2459 0.3514-0.8783 0.65395-0.8781 0.65432-0.2361-0.62994 1.4121-2.8248 1.1878-3.3017-2.6061-5.5345-4.8979-2.8826-5.092-3.4989-2.3048-7.3298 1.049-1.4418 1.5339-1.7565 3.3797-2.1926 1.6357-0.38642 0.3888-0.7711-1.9694-0.60772-1.6251 0.11258-1.6494 0.016-0.2269-0.9064 1.1859-0.76896 2.3471-0.90613 3.9011-0.46044 0.4992 0.14316 3.234 0.567 6.0771 0.94155 2.8431 0.37457 5.2037 0.71549 5.2467 0.75809 0.095 0.0951-3.854 0.41042-5.488 0.43822-1.4733 0.025 0.9953 1.121 3.2489 1.4423 1.2644 0.18026 1.2644 0.18024-0.1323 1.0258-3.7159 2.2496-3.8351 2.4229-2.2748 3.3176 2.1613 1.2394 2.9844 1.1303 5.949-0.79013 5.7384-3.7174 8.0566-4.2426 9.3622-2.1208 0.463 0.7525 0.8823 1.3272 0.9323 1.2774 0.3383-0.33792 0.623-3.9458 0.4025-5.0953-0.1948-1.0151-0.1698-1.4527 0.1075-1.882 0.5139-0.79536 2.3072-1.1551 4.116-1.1529zm-45.629 2.4531c-0.072 0.0173-0.3114 0.51992-0.5545 1.171-0.5762 1.5433-2.0107 4.2007-3.3311 6.1707-0.5413 0.80769-1.8943 3.1966-3.007 5.3087-2.6049 4.9445-4.6973 7.7294-9.1225 12.141-3.7532 3.7416-3.7898 3.8218-0.5178 1.1374 6.7144-5.5085 12.07-12.281 13.156-16.636 0.2875-1.1532 0.9628-3.049 1.5002-4.2132 1.0651-2.3074 2.0393-4.9262 1.8888-5.0767 0-3e-3 -0.01-4e-3 -0.012-3e-3zm75.451 1.2309c-1.3903 0.0164-3.1344 0.53142-5.2307 1.5456-2.8635 1.3854-3.1945 1.7708-0.7374 0.85783 3.0343-1.1274 6.9463-1.3002 8.7162-0.38499 0.8792 0.45466 0.9631 0.18572 0.2321-0.74362-0.6807-0.86527-1.6742-1.2902-2.9802-1.2749zm15.966 0.20774c-0.011 2e-3 -0.017 0.016-0.019 0.0413-0.01 0.20291 0.5152 1.5194 1.1597 2.9254s1.4593 3.5756 1.8102 4.8214c1.3967 4.9594 6.7252 11.689 13.647 17.234 2.9982 2.4032 2.9987 2.2237 0-0.59066-4.5885-4.3065-7.8066-8.5622-10.415-13.775-0.6907-1.3802-2.0316-3.6938-2.9797-5.1408-0.948-1.447-2.0584-3.3534-2.4675-4.237-0.3581-0.77315-0.6607-1.2963-0.7375-1.279zm-72.653 1.003c-1.964 0.0121-2.6455 0.57132-3.0324 1.9203-0.1338 0.46765-0.2056 0.85008-0.1596 0.85008s0.8832-0.37395 1.8598-0.83096c1.3194-0.61738 2.2622-0.85881 3.668-0.94051 3.0943-0.17976 3.4893-0.40446 1.2304-0.69918-1.5157-0.19776-2.6734-0.30522-3.5662-0.29972zm20.119 2.7957c-0.2561 0.0119-0.01 0.48066 0.7674 1.3637 0.6717 0.76399 1.5438 2.0681 1.9384 2.8975 0.7972 1.6756 1.2544 1.992 0.9735 0.67438-0.3604-1.6905-1.4696-3.6346-2.4556-4.3046-0.6377-0.43332-1.0485-0.6391-1.2237-0.63097zm80.433 7.6926c-1.8338-0.0125-3.9904 1.2747-4.6622 3.3104-0.245 0.74221-0.3637 0.83511-0.7809 0.61185-0.6036-0.32305-1.5276-5e-3 -2.221 0.76481-0.3641 0.40423-0.8183 0.55965-1.6376 0.55965-1.3479 0-1.662 0.33675-0.8465 0.90796 0.7382 0.5171 1.424 0.52328 2.8339 0.0258 0.9706-0.34243 1.1208-0.34243 1.2522 0 0.082 0.21402 0.3813 0.38912 0.6645 0.38912s0.9529 0.29766 1.4883 0.66146c1.437 0.97641 3.6663 0.94468 4.7501-0.0677 0.7807-0.72927 0.7806-0.72927 1.2309-0.13229 0.4266 0.5656 1.9626 0.89191 1.6247 0.3452-0.8519-1.3784 3.3836-0.92599 7.0032 0.74776 1.6683 0.77145 3.7042 0.5234 3.7042-0.45114 0-0.35483-2.5092-0.90588-3.9837-0.87488-1.3328 0.0281-1.665-0.092-3.5611-1.2893-2.4509-1.5477-5.1552-1.6292-5.1552-0.15554 0 0.14137-0.3573-0.0851-0.7938-0.50333-1.476-1.4141-0.8453-3.514 0.9669-3.22 0.8583 0.1393 0.8668 0.131 0.479-0.46095-0.5236-0.79914-1.3953-1.1624-2.3559-1.1689zm-147.53 0.0326c-0.6319-0.0127-1.2451 0.12636-1.7735 0.44855-1.0491 0.63966-1.162 1.3104-0.1892 1.1245 1.3118-0.25079 2.2659 1.5548 1.3798 2.6112-0.8531 1.017-1.1872 1.0969-2.018 0.48266-1.0738-0.79385-2.2508-0.576-4.3067 0.79685-0.884 0.59031-1.9207 1.0858-2.3043 1.1012-4.3411 0.17346-6.1976 0.89457-4.5134 1.7539 0.9039 0.46119 1.0456 0.43928 3.6231-0.56534 4.2118-1.6416 5.4679-1.764 6.2756-0.61081 0.4191 0.59841 1.5836 0.32775 1.8768-0.43615 0.1023-0.26662 0.3508-0.15252 0.9292 0.42581 1 0.99993 3.4797 0.99103 4.5522-0.0165 0.3388-0.3183 0.9229-0.57878 1.2981-0.57878s0.7494-0.1751 0.8314-0.38912c0.1314-0.34243 0.2816-0.34243 1.2522 0 1.4785 0.52168 2.1794 0.49022 2.9254-0.13126 0.7096-0.59118 0.7314-0.57219-0.7297-0.64389-0.7528-0.037-1.3609-0.28182-1.9663-0.79117-0.664-0.55877-1.0868-0.71252-1.7451-0.63562-0.7581 0.0885-0.8885 0.0132-1.0211-0.59066-0.4206-1.9145-2.481-3.3174-4.3765-3.3554zm31.4 4.9785c0.044-0.0448 0.066 0.0932 0.073 0.39584 0.014 0.59722 0.2816 2.6808 0.5953 4.6302 1.1367 7.063 0.6847 13.52-1.2252 17.513h-5e-4c-1.176 2.4586-1.8887 3.4761-2.1488 3.067-0.45-0.70884-0.4395-8.137 0.016-11.083 0.8971-5.799 0.902-5.7783-0.6682-2.9104-3.4042 6.218-5.5467 9.2155-7.2202 10.101-0.3445 0.18225-0.126-0.1817 0.5544-0.92346 1.3314-1.4514 2.683-3.5204 3.4712-5.3128 0.3131-0.71225 1.4089-2.7621 2.4349-4.5558 2.3617-4.129 3.1043-5.9586 3.6939-9.0982 0.2192-1.1675 0.351-1.7486 0.4237-1.8231zm84.83 0.49971c0.047 6e-3 0.1375 0.50203 0.232 1.3183 0.3616 3.1227 1.1706 5.2151 3.5311 9.1333 0.6137 1.0186 1.7914 3.1758 2.6169 4.7935 0.8255 1.6177 2.2206 3.8203 3.1006 4.8948 1.5999 1.9536 1.6003 1.9536-0.7318-0.45321-2.0328-2.0981-2.6331-2.9566-4.6793-6.6926-1.2909-2.3572-2.3773-4.2509-2.4133-4.208-0.067 0.08 0.1136 1.5567 0.6708 5.4777 0.1886 1.3295 0.2646 3.778 0.1886 6.0854-0.1771 5.3595-0.3195 5.5731-1.7115 2.5652-2.4591-5.3136-2.9699-11.298-1.5694-18.385 0.3849-1.9476 0.7148-3.9121 0.7338-4.3656 0-0.11337 0.016-0.16573 0.031-0.16381zm-22.645 7.1381c-0.1125-8e-3 0.073 0.3264 0.679 1.1203 0.4988 0.65339 1.4199 2.123 2.0469 3.2654 1.9249 3.5073 4.2013 5.3764 7.6822 6.3082 2.3663 0.63349 2.3758 0.47558 0.043-0.74931-2.5573-1.3429-2.94-1.67-5.2767-4.5144-2.2757-2.7703-4.864-5.4082-5.1749-5.4302zm-39.744 0.27078c-0.4668 0-1.9496 1.383-3.4282 3.1977-3.2838 4.0303-4.8882 5.5142-7.1411 6.6048-2.2792 1.1033-2.2081 1.2814 0.2552 0.63976 3.39-0.88297 5.826-2.9512 7.8771-6.6885 0.6031-1.0988 1.4431-2.3929 1.8671-2.8758 0.4239-0.48286 0.6803-0.87798 0.5699-0.87798zm118.34 1.7213c-1.0327 0.0105-2.204 0.75884-3.1724 2.1327-0.4546 0.64498-1.0376 1.173-1.2955 1.173s-0.5826 0.21293-0.722 0.47336-0.5607 0.63797-0.9358 0.83871c-0.8085 0.43272-0.8852 0.95396-0.168 1.1415 0.6259 0.16367 0.8056 7e-3 0.8196-0.7121 0.01-0.47701 0.066-0.45016 0.4171 0.19844 0.2234 0.41219 0.903 0.98225 1.5105 1.2666l5e-4 -5.2e-4c1.1786 0.5517 3.3813 0.51971 4.4731-0.0646 0.3848-0.20554 0.7143-0.20377 1.1751 6e-3 1.3792 0.62837 3.5492 0.36818 2.2583-0.27079-0.6245-0.30914-1.0917-0.69568-1.0377-0.85938 0.1837-0.55864 1.2255-0.46499 2.3849 0.21446 1.3931 0.81642 2.0614 0.8534 2.6985 0.14934 0.4678-0.51676 0.4623-0.52916-0.2408-0.52916-0.8516 0-1.4712-0.30533-3.0381-1.4971-1.3858-1.054-2.4916-1.1478-3.4059-0.28887-0.6228 0.58507-0.6402 0.58642-1.0093 0.0816-0.7467-1.0212-0.3102-2.2645 0.7948-2.2645 0.5225 0 0.5215-0.0134-0.047-0.58188-0.4157-0.41563-0.9189-0.61271-1.4599-0.6072zm-196.87 0.18294c-0.361 2.3e-4 -0.6968 0.0694-0.9814 0.22169-0.6678 0.35737-0.655 0.78445 0.023 0.78445 0.838 0 1.2345 1.1384 0.6873 1.9735-0.5312 0.81082-0.7311 0.83193-1.3544 0.14314-0.7903-0.87325-1.938-0.6754-3.8365 0.66146-1.1784 0.82984-1.9558 1.1906-2.5652 1.1906-1.0385 0-1.1408 0.41906-0.2062 0.84491 0.5669 0.25826 0.9006 0.19294 2.205-0.43047 2.2462-1.0736 3.8285-0.50196 1.7079 0.61702-1.0092 0.53262-1.0095 0.53255 0.5292 0.54415 0.8464 6e-3 1.7696-0.11168 2.0515-0.26251 0.3741-0.20021 0.8159-0.16411 1.6361 0.13384 1.6406 0.59597 3.6213 0.39637 4.9785-0.50178 0.6732-0.44555 1.1744-0.6273 1.2759-0.46302 0.219 0.35435 1.9389 5e-3 2.0815-0.42323 0.065-0.19576-0.1439-0.3235-0.5291-0.3235-0.3506 0-0.9171-0.29765-1.2589-0.66145-0.4212-0.44839-0.9048-0.66146-1.5012-0.66146-0.484 0-0.88-0.12581-0.88-0.27906 0-1.5184-2.3242-3.1095-4.0633-3.1083zm98.387 0.87385c1.8672 0 1.8674-1e-5 2.2976 1.7198 0.2367 0.94588 0.508 1.9127 0.603 2.1482 0.122 0.3025-0.01 0.47625-0.4377 0.59169-1.8116 0.48519-5.6298 0.0728-5.3671-0.57981 0.098-0.24194 0.3708-1.2142 0.6072-2.1601 0.4299-1.7198 0.4298-1.7198 2.297-1.7198zm58.588 4.4938c0.1162 0.0208 0.3519 0.12227 0.7297 0.28422 5.2919 2.2686 7.7809 2.8814 8.8707 2.1838 1.1347-0.72646 1.6088-0.81416 1.1927-0.22014-0.6084 0.8686-2.3488 2.1222-2.9404 2.1182-0.4415-3e-3 -0.4787-0.0551-0.1762-0.2465 0.4141-0.26196-0.7242-0.69411-1.312-0.49816-0.4109 0.13695 2.7072 2.6563 3.7594 3.0375 0.8738 0.31661 0.8739 0.31643 0.08 0.33073-1.9211 0.0346-8.1092-3.929-9.8862-6.3324-0.372-0.50318-0.5114-0.692-0.3178-0.65732zm-118.18 0.46199c1.2598-0.10171-1.0511 2.0736-5.3775 4.8007-1.7743 1.1184-2.6986 1.5324-3.6297 1.6257-1.214 0.1216-1.2234 0.11734-0.3354-0.15968 2.4701-0.77058 3.3028-1.8884 1.9306-2.5921-1.7378-0.89117-2.422-1.8195-1.4888-2.02 0.6453-0.13864 4.0697-1.129 5.593-1.6175 0.2528-0.0811 0.069 0.11559-0.4078 0.43718-0.4772 0.32157-1.7273 0.86322-2.7781 1.2036-1.0508 0.34031-1.63 0.62397-1.2872 0.63097 1.0331 0.0196 3.6944-0.76136 6.3189-1.8536 0.6902-0.28722 1.1713-0.43179 1.462-0.45526zm87.164 3.6396c-0.1659-0.0331 0.296 0.50278 1.4335 1.617 2.5775 2.5246 3.7013 4.2277 6.1247 9.2821 2.4409 5.091 3.3266 6.4388 6.4441 9.8051 2.5344 2.7366 4.0242 5.1546 5.0147 8.139 0.8227 2.479 0.7112 0.7929-0.2698-4.0804-1.2865-6.3908-2.8546-10.267-6.3929-15.802-1.641-2.5669-1.7779-2.4008-0.3323 0.40307 1.4632 2.8379 3.7477 9.4248 3.2686 9.4248-0.043 0-0.3409-0.44649-0.662-0.99219-2.7927-4.7466-9.8559-13.938-12.295-16.001-1.3737-1.1613-2.1673-1.7632-2.3332-1.7963zm-55.068 0.0548c-0.064-8.3e-4 -0.3469 0.18545-0.8113 0.5023-2.9731 2.0283-11.696 12.761-14.138 17.395-1.6272 3.0883 0.6229-3.9424 2.5265-7.8941 1.8856-3.9146 1.8756-4.0083-0.1132-1.0247-3.765 5.6484-7.1939 15.362-7.1939 20.379 0 0.81521 0.1062 0.63179 1.0299-1.7704 1.0397-2.7042 2.0556-4.3032 4.1373-6.5143 2.8784-3.0574 4.3452-5.2481 6.6156-9.8785 2.5664-5.2342 3.3193-6.3582 6.274-9.3684 1.2786-1.3027 1.7794-1.8238 1.6728-1.8252zm-25.89 0.49455c0.086 0.0209-0.1866 0.42352-0.7669 1.1839-2.654 3.4777-6.8034 6.6332-10.271 7.8104-1.9493 0.66175-5.3727 0.81952-11.774 0.5426-3.5694-0.15443-3.632-0.16718-1.7198-0.34003 1.0914-0.0987 2.845-0.38877 3.8969-0.64492 1.9474-0.47405 2.5032-0.40304 1.9611 0.25011-0.7432 0.89559 5.6901-0.35327 8.5876-1.6671 2.3208-1.0523 5.8456-3.4133 7.8739-5.2741 1.3993-1.2837 2.1015-1.8877 2.2118-1.8609zm106.92 0.0134c0.062-0.0371 0.436 0.30665 1.2552 1.1126 2.9844 2.936 8.5054 6.2704 11.884 7.1773 2.4168 0.64887 6.5212 0.87323 5.8208 0.31832-0.7194-0.56995-0.1521-0.58049 2.3812-0.0439 1.0186 0.21577 2.626 0.41053 3.5719 0.43253 1.0879 0.0252 0.1157 0.16552-2.6458 0.38189-7.9432 0.62238-9.9563 0.41424-13.626-1.4072-2.9489-1.4636-7.1003-5.1563-8.4439-7.5112-0.159-0.27873-0.234-0.43815-0.1969-0.46044zm-54.172 1.9131c4.0361-0.14548 8.2579 1.5296 11.404 4.8457 0.7137 0.75226 0.7137 0.7519-10.807 0.7519-12.893 0-12.384 0.22946-7.3887-3.3311 2.0154-1.4364 4.3702-2.1792 6.7918-2.2665zm68.668 1.3131c0.3642-1e-3 1.0489 0.0515 2.0329 0.1633 2.7192 0.30898 3.2443 0.56596 5.4571 2.6717 0.9369 0.89154 2.0679 1.781 2.5135 1.9766 0.4452 0.19566 0.6317 0.35347 0.4134 0.35347-0.8582-5e-3 -2.026-0.50853-2.8768-1.2413-0.5301-0.45659-1.3175-0.826-1.94-0.9095-1.2715-0.17055-1.5535-0.40119-0.9213-0.75499 0.9849-0.55115 0.093-0.98731-3.7352-1.8273-1.268-0.27818-1.5506-0.43003-0.9436-0.43202zm-136.27 0.0512c0.5249 0.0244-0.2356 0.23796-2.3068 0.65216-2.1138 0.42272-2.6379 0.8401-1.9746 1.573 0.4962 0.54806 0.4945 0.55294-0.2279 0.55294-0.7906 0-2.5285 0.72739-2.5285 1.0583 0 0.11237-0.3869 0.3877-0.8599 0.61133-1.4743 0.69696-2.6948 0.87438-1.5214 0.22118 0.5093-0.28353 1.7027-1.278 2.6521-2.2102 1.8909-1.8566 2.702-2.1941 5.8146-2.4205 0.4596-0.0334 0.7774-0.0464 0.9524-0.0382zm169.4 3.082c-0.5006 3e-3 -0.7586 0.0618-0.7586 0.17519 0 0.28951 1.1872 0.47936 5.1594 0.8263 4.1353 0.36121 6.4823 0.33152 6.4823-0.0827 0-0.28588-0.845-0.40249-3.9026-0.53692-2.1464-0.0944-4.7658-0.24183-5.8208-0.32763-0.4717-0.0384-0.8593-0.0561-1.1597-0.0543zm-203.61 0.13436c-0.9924 5e-3 -2.3634 0.0477-4.0607 0.13436-6.1038 0.31181-5.9667 0.29285-5.6715 0.7705 0.2205 0.35684 4.2114 0.21486 9.0646-0.32298 3.2697-0.36235 3.204-0.59457 0.6676-0.58188zm2.3482 3.4644c-5.6079 3e-3 -10.018 0.10107-10.365 0.32039-0.6197 0.3919-0.1802 0.57644 1.8918 0.79375 1.9368 0.20318 1.9368 0.20285-0.1137 0.23875-2.8602 0.0501-2.635 0.55765 0.2646 0.59635 4.8406 0.0647 6.0427 0.41475 1.572 0.45785-2.7113 0.0262-4.1254 0.13339-4.0194 0.30489 0.097 0.15772 1.9469 0.27404 4.5796 0.28784 6.6021 0.0347 8.1114 0.34399 2.8288 0.57981-2.3283 0.10397-5.2156 0.18965-6.4162 0.18965-1.2782 5e-4 -2.1828 0.11068-2.1828 0.26562 0 0.37382 23.799 0.35326 26.222-0.0227 2.5516-0.39589 3.8036-1.0252 2.0882-1.0496-8.0962-0.11475 1.2165-1.2215 10.914-1.2971 2.6302-0.0205 1.668-0.40987-2.5136-1.017-2.7309-0.39649-15.404-0.65389-24.75-0.64854zm197.16 0.0522c-8.8195 9e-3 -19.137 0.16608-20.873 0.42427-1.4552 0.2164-3.2149 0.46782-3.9104 0.55862-1.921 0.25077-1.7706 0.61732 0.2568 0.62632 28.89 0.20212-6.144 4.692 39.108 2.3735-0.09-0.14552-1.1386-0.26562-2.3306-0.26562-1.192-5e-4 -4.0723-0.0868-6.4006-0.19172-5.3067-0.23924-3.628-0.53534 3.2566-0.57464 2.9794-0.017 4.5227-0.1188 4.4163-0.29094-0.097-0.15647-1.9677-0.28184-4.5796-0.30644-4.7829-0.0451-3.3749-0.38744 1.8676-0.45424 3.101-0.0395 3.5406-0.54233 0.5292-0.60513-2.0505-0.0428-2.0505-0.0428-0.1535-0.19844 1.9918-0.1634 2.5818-0.41616 1.9317-0.82734-0.3055-0.1932-6.259-0.27535-13.119-0.2682zm-90.088 3.2815c1.3671-1e-4 8.7192 3.3249 11.164 5.1134 1.7547 1.2835 3.0571 3.5715 3.2872 5.7743 0.1382 1.3229 0.1385 1.3229-0.2176 0.26458-0.5416-1.6099-0.9423-2.2427-2.3802-3.7631-1.7191-1.8177-1.904-1.7613-0.8403 0.25735 1.5771 2.993 1.9276 4.7412 0.7235 3.6075-2.2185-2.0888-4.4771-3.5133-2.7833-1.7554 10.079 10.461 11.869 39.089 3.1517 50.418-1.0344 1.3442-3.6116 3.7636-3.6116 3.3905 0-0.0748 0.6011-0.93047 1.3358-1.9012 6.4993-8.5868 8.7971-24.736 4.9734-34.957-0.7652-2.0451-0.8275-1.6657-0.337 2.0629 0.9201 6.9934 0.067 17.706-1.7038 21.405-0.6494 1.3562-0.6535 1.4645 0.1132-2.7817 2.3184-12.84 0.2507-23.847-6.4161-34.153-3.082-4.7646-7.0835-12.549-6.6497-12.936 0.035-0.031 0.1-0.046 0.1906-0.046zm-15.172 0.18448c2.0152-0.19228 0.5568 3.3935-5.0224 12.517-7.2877 11.917-9.2207 22.457-6.6161 36.07 0.2124 1.1097 0.3251 2.0788 0.2501 2.1534-0.075 0.0745-0.1354 0.0817-0.1354 0.016s-0.2503-0.82947-0.556-1.6976c-1.9077-5.4184-2.384-15.228-1.1421-23.521 0.21-1.4026-0.878 1.2073-1.4702 3.5269-2.7319 10.699 0.2406 26.093 6.5293 33.813 0.6286 0.77169 1.1119 1.4004 1.0739 1.4004-0.3315-0.0134-2.8458-2.3056-3.7864-3.452-8.8553-10.793-7.3864-39.593 2.5978-50.935 1.4703-1.6704 1.1429-1.659-0.9818 0.0341-0.9988 0.79597-1.8693 1.3943-1.9343 1.3291-0.2079-0.20794 0.4914-2.0849 1.4128-3.792 1.0916-2.0222 0.8609-2.0881-0.8779-0.2496-1.4634 1.5473-2.0991 2.6199-2.6175 4.4168-0.4215 1.4611-0.2531-0.65479 0.1928-2.4231 0.8089-3.2082 6.7194-7.4738 12.634-9.1183 0.165-0.0459 0.3147-0.0756 0.449-0.0884zm11.354 0.63717c0.3105 0.0298 0.8136 0.7815 1.3968 2.1942 0.6257 1.5156 0.9563 1.4168 0.7973-0.23771-0.3913-4.0721 3.3022 4.07 4.7936 10.567 0.9301 4.052 1.6164 5.5634 3.6602 8.0615 1.7625 2.1542 1.9086 2.1395 0.9111-0.0925-0.7208-1.6128-1.4857-4.175-1.3013-4.3594 0.2827-0.28266 3.2327 7.1443 3.6706 9.2408 1.6674 7.9835 0.3378 18.294-3.1781 24.644-0.3227 0.58207-0.5116 0.8202-0.4206 0.52917 0.2092-0.66939 1.4566-8.5953 1.4366-9.1281-0.01-0.21828-0.4633 0.97235-1.0119 2.6458-1.6003 4.8821-6.4246 15.654-6.8295 15.249-0.067-0.0674 0.01-0.3626 0.1633-0.65629 0.5538-1.0348 1.6136-6.0205 1.7523-8.2429 0.1405-2.249 0.1406-2.249-0.879 0.52917-1.1823 3.2215-2.6712 6.5769-3.962 8.9297h-5e-4c-1.1821 2.1545-1.3019 2.1014-0.2992-0.13229 1.065-2.3724 2.1555-6.3303 2.8613-10.385 0.3166-1.819 0.9562-4.617 1.4216-6.2177 1.5921-5.4755 1.1413-12.534-1.2593-19.711-0.9886-2.9558-0.9968-2.8144-0.1489 2.6458 0.2824 1.819 0.5762 4.736 0.6522 6.4823 0.1384 3.175 0.1384 3.1754-0.2672 0.68368-0.359-2.2052-1.4323-6.6331-2.9879-12.325-0.8506-3.1127-1.3698-6.7836-1.3818-9.7741-0.027-6.6422-0.9451 0.15138-1.1953 8.848-0.1405 4.8851-0.082 7.3083 0.2744 11.305 0.4572 5.1279 0.3574 7.1705-0.4036 8.2744-0.1959 0.2844-0.2126 0.13443-0.059-0.52917 0.4323-1.8663-0.4938-8.3372-1.31-9.1534-0.5811-0.58105-1.8149 7.0979-1.4495 9.0212 0.2011 1.0583 0.201 1.0583-0.2646 0.26458-0.3852-0.65643-0.4885-1.6635-0.5979-5.8208-0.2149-8.1663-1.4693-2.9302-1.4263 5.9531 0.029 5.9064 0.026 5.9396-0.3798 4.2333-0.7341-3.0864-0.5773-10.273 0.3116-14.288 1.551-7.0032 1.61-7.5042 1.573-13.229-0.046-7.1026-0.4188-9.6317-0.6816-4.6302-0.2276 4.3302-0.7263 7.3682-2.0546 12.514-1.0093 3.9102-1.9794 8.8115-2.1834 11.033-0.054 0.58209-0.1176-0.0895-0.1416-1.4929-0.05-2.8765 0.3151-7.0162 0.8915-10.112 0.5249-2.8184 0.4623-3.0101-0.2848-0.8723-2.3083 6.6056-2.906 16.028-1.3369 21.076 0.3845 1.2369 0.9945 3.9158 1.3555 5.9531 0.7075 3.992 1.6909 7.7454 2.5218 9.6237 0.2856 0.64547 0.4595 1.2344 0.3855 1.3074-0.2247 0.2248-3.1894-6.2564-4.2741-9.3436-1.5273-4.3478-1.5064-0.0579 0.026 5.2322 0.3464 1.1958 0.5869 2.2164 0.5349 2.2686-0.3613 0.36123-5.9726-12.497-6.6332-15.2-0.2455-1.0044-0.5262-1.9162-0.6232-2.0262-0.3543-0.40074 0.3511 4.9695 1.1808 8.9891 0.5884 2.8505-2.3709-4.5544-3.189-7.9794-1.5283-6.3992-1.3666-15.127 0.3649-19.684 0.7884-2.075 3.0682-7.1582 3.1662-7.06 0.2092 0.20915-0.8973 3.5814-1.7162 5.2307-1.1284 2.2726-0.8694 2.2364 1.0464-0.14728 2.0465-2.5463 2.9888-4.5502 3.6324-7.7241 1.4418-7.1108 5.0245-15.06 5.0245-11.148 0 1.5672 0.3473 1.9854 0.6495 0.78134 0.6121-2.4386 1.5894-3.1683 1.8852-1.4072 0.2862 1.7041 0.292 1.7125 0.6181 0.92605 0.3291-0.79371 0.329-0.79376 0.7131-0.0662 0.48 0.90929 1.4199 0.99663 1.4299 0.13229 0-0.32742 0.1194-0.77391 0.2604-0.99219 0.2056-0.31763 0.2605-0.27133 0.2605 0.231 0 0.54436 0.06 0.58111 0.4258 0.2775 0.4038-0.33512 1.4042 0.46924 1.4242 1.1452 0 0.10913 0.1009 0.19844 0.217 0.19844 0.1201 0 0.1704-0.80368 0.1204-1.7859-0.045-0.87867 0.08-1.2918 0.3215-1.2687zm-21.166 2.5254c0.06 0-0.5393 0.6123-1.3306 1.3606-1.7669 1.6711-3.0856 3.623-4.0835 6.043-0.9077 2.2011-1.9878 3.8215-3.9708 5.9578-1.6471 1.7744-2.8058 3.3864-3.7088 5.1594-0.3336 0.65484-0.9228 2.0565-1.3095 3.1145-0.9006 2.464-1.0671 2.2383-1.0671-1.4495 0-3.6152 0.5409-6.4885 1.6469-8.7478 0.9479-1.9363 1.197-1.9807 0.6428-0.11472-0.813 2.7373-0.8439 4.5962-0.054 3.2587 0.8791-1.4887 5.4528-7.8373 7.0977-9.8521 1.4673-1.7972 5.2723-4.7299 6.1371-4.7299zm36.612 0.42116c0.1 0.0174 0.3736 0.16567 0.8118 0.40256 2.4695 1.3349 7.1023 6.7385 11.182 13.042 1.2923 1.9969 1.418 0.65253 0.3193-3.4148-0.079-0.29104 0.1209-0.11244 0.4434 0.39688 0.9868 1.5584 1.5863 3.7108 1.8056 6.4823 0.2099 2.6513 0.012 6.9631-0.2853 6.2177-0.087-0.21828-0.4803-1.3494-0.8738-2.5135-1.0239-3.0289-2.112-4.9423-3.9595-6.9629-2.5119-2.7472-3.2533-3.8058-4.4245-6.3164-1.336-2.8638-2.2716-4.2908-4.0235-6.1376-0.8452-0.89092-1.1618-1.2252-0.9953-1.1963zm6.767 15.84c0.03-0.0217 0.3053 0.19767 0.8552 0.63665 3.2249 2.5742 4.3381 5.6031 2.8593 7.7794-0.3691 0.54308-0.7819 0.98702-0.9178 0.98702s0.058-0.44647 0.4305-0.99218c1.3718-2.0083 0.9524-3.2276-2.6138-7.6001-0.429-0.52592-0.6437-0.78906-0.6134-0.8108zm-51.022 0.11317c0.079 0.0534-0.2116 0.50067-0.9782 1.3761-2.7329 3.1208-3.2677 4.8574-2.0898 6.7892 0.7405 1.2145 0.9384 1.0925 1.4355-0.88625 0.2413-0.96057 0.7856-2.4191 1.2093-3.2411 0.8434-1.6364 2.0309-3.4041 1.7156-2.5533-1.8151 4.8961-2.3628 7.647-1.7518 8.7886 0.2575 0.48115 0.1997 0.5592-0.5209 0.70331-0.4459 0.0892-1.1479 0.52303-1.5601 0.96428s-0.9382 1.3051-1.1684 1.9198c-0.4186 1.1177-0.4184 1.1181-0.2718-0.0641 0.081-0.65021 0.4906-1.8594 0.911-2.6867 0.7644-1.5042 0.7645-1.5041 0.2253-1.9921-2.0757-1.8785-1.7321-4.6264 0.9307-7.4419 1.0989-1.1619 1.8119-1.7445 1.9136-1.6759zm50.224 1.6971c0.014-1e-3 0.034 0.0158 0.062 0.0522 0.854 1.1225 1.9184 3.5489 2.6898 6.1299 0.4421 1.4796 0.984 2.9679 1.204 3.3073 0.22 0.33938 0.5394 1.1754 0.7095 1.8578 0.1703 0.68244 0.2573 1.3964 0.1943 1.586-0.063 0.18958-0.2039-0.0121-0.3126-0.44752-0.333-1.3336-1.1934-2.4636-2.2205-2.9166-0.9791-0.43175-0.9793-0.43144-0.9023-2.5926 0.067-1.8992-0.035-2.4823-0.8439-4.8074-0.443-1.2733-0.677-2.1616-0.5803-2.1689zm-34.651 0.86041c-0.095 4e-3 -0.3053 0.53082-0.6299 1.5818-2.8133 9.1082-2.2773 16.308 1.5291 20.541 1.4886 1.6557 1.5051 1.6309 0.434-0.64028-2.1817-4.6264-2.6695-11.131-1.4603-19.486 0.1932-1.3352 0.2346-2.0015 0.1271-1.9968zm20.037 0.0842c-0.1063-1e-3 -0.075 0.57771 0.1256 1.7467 1.3756 8.0317 0.9223 15.017-1.2749 19.642-0.4695 0.98819-0.9054 1.9153-0.9684 2.0609s0.2688-0.0926 0.7374-0.52917c4.1379-3.8546 4.937-11.635 2.1524-20.957-0.3893-1.3033-0.6589-1.9615-0.7721-1.9627zm-6.2425 8.4181c0.073 7e-3 0.2383 0.55263 0.5095 1.5942 0.6754 2.5936 0.8091 7.0818 0.2987 10.021-0.544 3.132-1.0264 4.3337-0.8402 2.0934 0.3586-4.3129 0.4271-8.4711 0.1808-10.973-0.1833-1.8626-0.2424-2.7441-0.1488-2.7352zm-9.3834 19.224c0.062-0.10639 0.4595 0.80875 1.1327 2.6939 0.6251 1.7503 1.2833 3.4572 1.463 3.793 0.1777 0.33581 0.2598 0.67765 0.1778 0.75965-0.2271 0.22707-1.697-3.0687-2.2836-5.1201-0.3841-1.343-0.5383-2.0437-0.4899-2.1265z" stroke-width=".26458"/></g></svg>