<?xml version='1.0' encoding='utf-8'?>
<svg xmlns="http://www.w3.org/2000/svg" width="241.05mm" height="205.9mm" version="1.1" viewBox="0 0 241.05 205.9"><g transform="translate(-1103.1 -674.52)"><path d="m1213.3 674.52c-0.1505-0.0195-0.1592 0.13405-0.034 0.45527 2.3966 6.1514 1.7943 19.438-1.3012 28.707-1.0551 3.1592-0.9556 3.2528 0.3948 0.37104 1.9536-4.1689 4.2032-12.299 4.2302-15.287 0.016-1.837 0.474-0.0738 0.7979 3.0758 1.7431 16.949-7.7726 31.446-23.198 35.342-4.5342 1.1451-4.8929 1.012-1.6635-0.61547 8.0787-4.071 13.674-9.3317 17.096-16.073 1.08-2.128 1.1114-1.9043-0.3824-2.7099-3.017-1.6269-8.1711-2.5063-13.019-2.221-2.2524 0.13251-2.8891 0.088-3.3037-0.23048-1.1304-0.86831-3.5997-0.32449-5.0426 1.1105-0.4912 0.48842-1.6006 1.0667-2.9104 1.5172-7.9672 2.7403-17.924 12.068-20.857 19.539-0.3163 0.80568-3.8275-4.3752-4.9754-7.3417-2.2936-5.927-2.4341-13.965-0.353-20.165 0.8847-2.6354 0.8957-2.6201-1.1637-1.5379-15.263 8.0207-14.275 37.571 1.5533 46.467 1.06 0.59409 1.0599 0.59445 1.0599 2.3316 0.01 3.7886 0.03 3.8128 2.4743 2.5146 2.9996-1.5935 6.5245-2.8938 11.017-4.0633 3.837-0.99873 3.8371-0.99852 3.9011-2.296 0.7135-14.356 2.6949-20.74 8.7715-28.259 5.0146-6.2046 14.429-9.844 19.559-7.5608 0.836 0.37214 0.7208 0.39168-2.3812 0.40618-13.997 0.0658-24.03 14.22-24.03 33.902 0 2.427 0.011 2.4701 0.5953 2.3404 4.1662-0.92466 15.289-1.7316 23.865-1.7286 17.842 4e-3 35.777 3.2322 44.728 8.0517 1.1642 0.6268 2.1495 1.1551 2.1895 1.1736 0.04 0.0186-0.093-0.29383-0.2956-0.69401s-0.4487-1.4616-0.5467-2.359c-0.098-0.89738-0.4023-2.4409-0.6765-3.4298-0.4986-1.798-0.4985-1.7977 0.37-2.759 10.7-11.844 9.2471-35.673-2.5481-41.79-1.6147-0.8374-1.6408-0.77464-0.7359 1.7823 2.8482 8.0488 1.9466 17.301-2.3337 23.946-1.1873 1.8431-1.0669 1.835-2.0862 0.13591-3.4764-5.7952-9.5997-11.703-14.152-13.654-1.2297-0.5271-1.2293-0.52695-1.0872-5.2431 0.4039-13.406-2.8549-22.96-10.386-30.447-1.791-1.7805-2.8092-2.6614-3.1404-2.7042zm-21.977 30.948c1.5099 0 1.5705 0.67386 0.1235 1.3751-1.4634 0.70924-3.8402 0.94807-3.6158 0.36329 0.097-0.25213 0.1762-0.50589 0.1762-0.56379 0-0.36505 2.2852-1.1746 3.3161-1.1746zm28.321 2.2722c0.05 0.0608-0.077 0.63561-0.388 1.7141-3.3995 11.787-13.445 20.859-26.954 24.343-4.1857 1.0792-5.4943 1.001-1.9136-0.1142 12.465-3.8821 24.363-14.11 28.586-24.573 0.3942-0.97686 0.6205-1.4302 0.6702-1.3694zm-35.676 2.003c0.4403-7e-3 0.8283 0.0623 1.1203 0.21859 0.9328 0.49921 0.023 1.2249-2.4991 1.9942-3.339 1.0185-4.2669 0.87051-2.8504-0.45476 1.1129-1.0412 2.9081-1.7384 4.2292-1.758zm-34.556 1.7952c0.2409 0.0148 0.3622 1.1454 0.3622 3.3931 0 8.5202 3.7352 15.447 10.147 18.817 1.8562 0.97565 1.8098 0.82385 1.0836 3.5207-0.3304 1.2271-0.1852 1.2295-2.7641-0.0403-8.6104-4.2398-12.097-11.636-10.107-21.443 0.5781-2.8488 1.0049-4.2651 1.278-4.2483zm33.404 0.91571c0.9439 0.0445 1.3998 1.0625 0.308 2.1544-0.7059 0.70583-1.4437 0.83166-1.9436 0.33176-0.4615-0.46149-0.3885-1.3901 0.1458-1.8593 0.5312-0.46655 1.0608-0.64707 1.4898-0.62683zm-5.5625 3.5843c0.453 0.0217 0.9316 0.28295 1.4646 0.78084 1.12 1.0462 1.0542 1.1941-0.6992 1.5648-0.8367 0.17685-1.819 0.55521-2.1828 0.84077-1.3409 1.0526-1.5179-0.34312-0.2631-2.0753 0.5584-0.77077 1.0981-1.1389 1.6805-1.111zm-2.2003 0.14418c0.3161 0.0127 0.019 0.54624-0.7385 1.7105-1.2949 1.9913-1.7216 2.1992-2.6794 1.3069-0.736-0.68569-0.4347-1.1195 1.4945-2.1534 1.0607-0.56845 1.6775-0.87388 1.9234-0.86403zm2.8391 2.7916c0.5114-6e-3 0.9538 0.1816 1.158 0.62994 0.3593 0.78867 0.1203 1.844-0.5751 2.5394-1.0879 1.088-3.1683 0.4054-3.1683-1.0397 0-1.1664 1.4602-2.1162 2.5854-2.1296zm-7.5334 0.51677c1.0144 0 1.3034 1.528 0.4501 2.3812-0.5234 0.52342-1.3345 0.69434-1.6759 0.35295-0.6389-0.63892 0.3004-2.7342 1.2258-2.7342zm1.9849 5.3051c0.5829 0.0149 1.2148 0.30225 1.8195 0.90692 1.247 1.247 1.0978 1.8012-0.5473 2.0366-0.8394 0.12006-1.6329 0.46204-2.2804 0.98237-1.1472 0.92196-1.3204 0.84961-1.3204-0.55191 0-2.1214 1.0461-3.4067 2.3286-3.374zm-3.3657 0.786c0.708 0.0401 0.6521 1.0913-0.5163 2.9817-1.053 1.7038-1.3535 1.8286-2.4747 1.0258-1.2315-0.8817-1.232-0.87753 0.1162-2.1859 1.3112-1.2724 2.3241-1.8528 2.8748-1.8216zm4.5392 2.682c0.1985-4e-3 0.4008 0.0174 0.6031 0.0682 1.2616 0.31665 1.5872 2.4239 0.5369 3.4742-1.2187 1.2187-3.1754 0.7594-3.4706-0.81442-0.2628-1.4009 0.9415-2.6977 2.3306-2.728zm-8.9012 1.8144c1.3834-0.0101 1.8663 2.2235 0.6976 3.2267-0.8107 0.69578-1.3675 0.75488-1.9193 0.20309-1.1242-1.1242-0.307-3.4187 1.2217-3.4298zm4.0256 4.6814c0.6259-6e-3 1.3564 0.195 2.1735 0.61185 1.2847 0.6532 1.2849 0.5748 0 2.0345-0.5786 0.65741-1.1981 1.5986-1.3762 2.0914-0.3701 1.0235-0.6088 1.1098-1.0614 0.38499-0.2418-0.38711-0.4326-0.44946-0.7906-0.25787-0.2596 0.13896-0.6352 0.56344-0.8341 0.9431-0.5164 0.98488-0.7668-0.35849-0.5343-2.8608 0.1785-1.9202 1.0506-2.9341 2.4278-2.9471zm-4.1776 2.3415c0.2645-0.0453 0.4364 0.31316 0.5928 1.0625 0.3132 1.5006 0.1521 3.6727-0.2429 3.2747-0.1779-0.17918-0.8214-0.26753-1.5343-0.21083-1.4881 0.11837-1.4833-0.26259 0.037-2.7657 0.5261-0.86627 0.8833-1.3153 1.1477-1.3606zm7.8264 0.94516c0.4408-0.0245 0.8741 0.18059 1.3085 0.61495 1.0451 1.0451 0.63 2.8818-0.7984 3.5326-2.2204 1.0117-3.6268-1.5437-1.8629-3.3848 0.464-0.48429 0.9121-0.73825 1.3528-0.76275zm-8.6945 3.7316c0.2818 0.0336 0.576 0.18021 0.863 0.46715 0.859 0.85897 0.6287 3.3641-0.3705 4.0313-0.755 0.50411-1.5109 0.19783-1.9183-0.77721-0.7892-1.8891 0.2046-3.8669 1.4258-3.7212zm40.85 1.572c-16.688-0.0128-33.073 2.5769-42.711 7.5499-2.2115 1.1412-2.3048 1.224-1.8898 1.6826 0.4428 0.48898 0.4266 3.6991-0.042 8.2667-0.1562 1.5225-0.1473 1.5479 0.8753 2.5208 1.0332 0.98282 1.0329 0.98261 0.9189 4.9956-0.151 5.3144-0.2428 5.0746 2.6701 6.9861 1.3419 0.88061 2.4709 1.6319 2.5099 1.6697 0.038 0.0378-1.1276 4.1475-2.5916 9.1328-3.0509 10.389-3.091 9.1168 0.3406 10.787 1.725 0.83955 2.0291 1.0833 1.9079 1.5281-0.079 0.29104-0.3894 1.4222-0.6894 2.5135-1.5896 5.783-0.526 13.578 2.5843 18.941 0.805 1.3879 0.8107 1.3409-0.4066 3.3445-2.8669 4.719-5.7732 11.334-9.1974 20.934-5.3924 15.117-8.3402 20.253-13.434 23.408-2.0037 1.2411-1.0531 1.5726 1.2206 0.42582 4.2977-2.1676 7.1273-6.8997 11.969-20.015 3.3274-9.0126 7.6502-19.266 7.9798-18.929 0.037 0.038-0.2292 0.95248-0.5917 2.0319-1.0006 2.9795-1.3584 5.2785-1.8004 11.564-0.6998 9.9521-1.8684 15.127-4.2762 18.941-0.875 1.3862-1.0074 1.1618-0.384-0.65009 0.8789-2.5545 1.3766-6.4532 1.4956-11.71 0.133-5.8774 0.1326-5.8769-2.788 2.1332-3.7396 10.257-6.483 15.103-9.5364 16.847-1.4153 0.80817-1.3826 0.84912 1.1803 1.4919 1.2291 0.30827 2.8067 0.8014 3.5058 1.0961 5.6552 2.3837 27.514-3.6739 43.012-11.92 10.753-5.721 17.309-10.616 25.463-19.013 9.2933-9.57 14.331-14.475 17.135-16.686 3.2664-2.5744 3.1676-2.083 1.1819-5.8679-1.3383-2.5504-1.338-2.5504 0.07-4.6302 12.859-18.991 30.942-28.011 43.969-21.935 1.4079 0.65662 1.4076 0.65675 0.085 0.47543-7.3593-1.0086-17.121 1.1182-23.439 5.1067-0.9687 0.61153-0.9685 0.61126-1.1048 3.7378-0.1192 2.7341-0.4873 4.8407-1.14 6.5252-0.104 0.26839 0.9891-0.68411 2.4288-2.1167 7.1375-7.1024 14.575-10.013 28.303-11.076 3.0397-0.2354 5.5586-0.45903 5.5966-0.49713s-1.0916-0.5216-2.51-1.0744c-5.6123-2.1872-9.3205-4.3448-12.104-7.042-1.8529-1.7954-1.8534-1.7957-3.5724-1.4402-3.7163 0.76859-6.9208 0.99463-12.565 0.88522-3.1296-0.0607-5.6901-0.0134-5.6901 0.10542 0 0.11883 0.506 0.76639 1.1245 1.4387 2.5619 2.7848-2.6755-0.0602-5.6224-3.0541-3.5377-3.5941-7.7903-11.056-4.4462-7.8016 4.523 4.4016 11.098 7.039 18.954 7.6026 1.9401 0.13922 1.9402 0.13932-0.5426-1.1059-11.197-5.6156-19.195-17.923-16.572-25.501 1.1355-3.2814-0.7793-4.7105-10.38-7.7473-10.313-3.262-23.475-4.846-36.455-4.856zm2.9714 1.743c7.784 0.18383 13.248 0.62177 14.067 1.1271 0.5466 0.33715 0.9254 0.41582 1.1907 0.24804 1.4058-0.88908 11.564 0.96329 20.31 3.7036 6.4568 2.0231 8.3336 3.0014 7.1706 3.7378-0.4969 0.31467-3.024-0.42116-4.9294-1.4356-1.0829-0.57656-7.0546-2.2542-10.551-2.9642-1.6803-0.34116-3.2049-0.74522-3.3885-0.89762-0.1836-0.15242-0.4055-0.20542-0.4935-0.11782s-1.8031-0.0263-3.8121-0.25322c-4.7314-0.53443-6.9666-0.69316-10.532-0.74776-2.3085-0.0353-3.1414-0.1549-4.0266-0.57826-1.035-0.49498-1.1508-0.50214-1.5932-0.1018-0.3981 0.36025-9.597 1.1272-10.067 0.83923-1.0521-0.64503 4.0829-2.6202 6.6539-2.5595zm-13.003 0.31213c0.6257 2e-3 1.2689 0.0215 1.9265 0.0584 1.8259 0.10239-0.4275 2.6063-2.3389 2.5993-0.4596-2e-3 -2.2377 0.19397-3.9507 0.43511-3.0796 0.43344-3.7607 0.38475-3.1512-0.22479 0.391-0.3909 0.4035-0.73639 0.027-0.73639-0.1574 0-0.9909 0.41302-1.8521 0.91777-1.9348 1.134-2.0009 0.84521-0.1809-0.79116 1.6166-1.4534 5.1405-2.2735 9.5204-2.2583zm-12.555 1.5673c0.2566 0.0139 0.4406 0.0613 0.5286 0.14935 0.4189 0.41896-3.2311 3.587-4.5578 3.9558-3.005 0.83552-3.4942 0.74421-2.6789-0.50023 0.6902-1.0533 0.4838-1.2578-0.6352-0.6289-1.2744 0.71625-1.6534 0.48976-0.7761-0.46405 0.9633-1.0475 6.3229-2.6095 8.1194-2.512zm-11.528 2.3363c0.7543-0.0595 1.2412 0.28107 1.0118 1.1782-0.5297 2.0718-0.8538 2.6238-1.8288 3.1156-1.9685 0.99279-2.2005 0.98232-1.9994-0.0894 0.2124-1.1321 0.046-1.1828-0.8196-0.24908-0.76 0.82005-0.8825 0.37186-0.2878-1.0516 0.6662-1.5945 2.6665-2.8045 3.9238-2.9037zm-5.301 1.8242c0.2634 0.0803 0.1306 0.65002-0.1623 2.3296-0.4725 2.7091-0.6982 3.1972-1.7265 3.729-1.1583 0.59902-1.2751 0.51975-1.4624-0.98961-0.3905-3.1466 0.036-4.0042 2.3983-4.8183 0.4941-0.1703 0.7949-0.29878 0.9529-0.25063zm36.736 2.8474c1.8416 0.0459 6.005 1.2219 9.9368 3.0696 2.5534 1.1999 9.3404 5.0775 11.692 6.6797 1.3802 0.94051 1.4105 0.78683 0.1442-0.72812-1.2198-1.4592-3.8403-3.6024-5.6885-4.6519-1.4008-0.79547-1.4012-0.79521-0.354-0.62219 3.0215 0.49916 7.8535 3.5916 11.266 7.2104 2.291 2.4293 2.4178 2.5226 2.2381 1.649-0.5367-2.6094-3.2608-8.0844-5.3775-10.808-1.357-1.7459-1.2338-1.7673 0.7612-0.13436 7.8554 6.4298 13.646 15.768 15.974 25.758 0.4005 1.7191 0.4006 1.7189-0.3188 0.79427-7.2635-9.3356-29.92-25.929-35.404-25.929-1.2783 0 2.0541 3.1656 5.4808 5.2064 1.5096 0.899 2.9832 1.8239 3.2742 2.0547 0.5136 0.40725-0.2871 0.0102-6.2989-3.1244-3.388-1.7665-3.4069-1.771-2.2644-0.49868 0.4901 0.54571 1.2935 1.6225 1.7854 2.3926 0.4918 0.77015 1.2655 1.5953 1.7193 1.834 0.7803 0.41026 0.7935 0.4424 0.2434 0.58446-0.5655 0.14602-0.5306 0.272 1.2505 4.5155 3.1797 7.5751 4.8499 10.241 7.9561 12.696 0.7395 0.58455 1.2446 1.054 1.1224 1.0434-1.1365-0.0989-5.9043-2.3309-8.0274-3.7579-2.3143-1.5555-2.3812-1.6616-2.3812-3.775 0-7.4629-3.869-16.168-8.9866-20.222-1.118-0.88551-0.8486-1.2646 0.2564-1.2371zm-14.518 1.2506c0.9206 0.0216 1.1508 0.24305 0.2987 0.72813-2.3541 1.3401-4.0303 2.7023-5.1527 4.1889-1.148 1.5205-1.2211 1.998-0.1824 1.1886 2.0627-1.6076 4.1141-1.7794 7.3086-0.61185 1.8177 0.6644 4.8726 2.1317 3.7378 1.7952-1.5159-0.44937-5.1633-0.74787-7.6032-0.62219-4.9039 0.25257-4.9088 0.25466-11.216 4.9248-3.0879 2.2863-5.7585 4.2444-5.9345 4.3512-0.1905 0.11557-0.7526-0.19695-1.3891-0.77205-1.1954-1.0801-1.2102-1.0614-0.6929 0.8816 0.3897 1.4639 0.305 1.5876-0.7726 1.1245-0.2911-0.12506-1.0203-0.23568-1.6206-0.24598-1.3462-0.0229-1.4221-0.2782-1.4221-4.8049 0-4.2895 1.766-6.1384 8.276-8.6641 4.6261-1.7948 13.604-3.5266 16.365-3.4618zm-1.958 9.3131c0.3955 0.0113 0.8505 0.0862 1.4919 0.17157 2.9184 0.38838 8.8976 2.5386 8.8976 3.1998 0 0.27348-1.442 0.46731-5.8208 0.78238-2.11 0.15182-5.4439 0.39974-7.4084 0.55087-1.9645 0.15116-3.9886 0.34252-4.4979 0.42582-1.1357 0.18577-1.0746 0.12159 1.9844-2.0867 3.518-2.5397 4.1665-3.0775 5.3532-3.0437zm13.731 6.8657c0.1293-7e-3 0.2768 0.0155 0.463 0.0527 1.1642 0.23286 1.3435 0.52398 1.2775 2.0743-0.1335 3.1283-1.7812 5.8037-6.8373 11.101-1.3857 1.4517-0.9853 2.6119 2.4836 7.1928 2.6735 3.5308 2.6848 3.552 1.1916 2.2717-1.7546-1.5044-4.2278-3.0072-6.1309-3.7254-1.4217-0.5365-4.5629-1.304-4.7377-1.1576-0.3566 0.29869 2.8165 4.8778 6.0891 8.7871 1.005 1.2006 1.7917 2.173 1.7477 2.1606s-1.0317-0.48246-2.1958-1.0444c-2.4039-1.1603-5.1187-1.955-8.2021-2.4014-1.1642-0.16854-2.1527-0.33607-2.1957-0.37207s0.2443-0.72344 0.6387-1.5276c0.717-1.462 0.7169-1.4618-0.9307-4.2457-2.1714-3.6687-2.3994-3.866-6.1334-5.301-3.5863-1.3782-3.5651-1.3786-3.8236 0.15089-0.1029 0.60962-0.4108 1.7585-0.6842 2.5533-0.2735 0.79486-0.4971 1.4861-0.4971 1.5358s0.5656-0.31142 1.2568-0.80253c3.461-2.459 5.8968-2.2663 5.8828 0.46612-0.01 1.235-0.2278 1.412-2.3823 1.9001-2.3269 0.52721-4.1401 1.2917-6.8972 2.9073-2.1204 1.2425-2.7266 1.3574-4.6266 0.87901-1.6034-0.40375-1.6286 3e-3 0.3958-6.474 4.3894-14.043 4.1722-13.492 5.2333-13.291 0.3206 0.0608 0.5027 0.37424 0.5597 0.96169 0.099 1.0306 0.3147 1.1397 3.591 1.8149 1.9465 0.40114 2.4212 0.59819 2.7543 1.1457 3.1661 5.2034 4.5097 5.2199 8.894 0.10955 3.1974-3.7269 3.1975-3.7267 5.1455-3.9016 4.4717-0.40143 6.5182-1.1134 7.4724-2.6004 0.5895-0.91878 0.8101-1.1998 1.1978-1.2201zm-15.363 0.46871c2.1805 0 2.0422 0.28018-0.5891 1.1953-3.0581 1.0635-5.2151 1.16-4.1155 0.18397 1.1145-0.9892 2.444-1.3792 4.7046-1.3792zm58.496 4.4132c0.082-8e-3 0.3566 0.19621 0.8067 0.55243 1.4957 1.1838 3.8987 2.2419 5.4244 2.3885 0.698 0.0671 1.2713 0.2552 1.2713 0.41858 0 0.16341 0.8052 1.9342 1.787 3.9352 0.9817 2.0009 1.7245 3.6364 1.6515 3.6334-0.9339-0.0344-8.0145-6.5346-9.65-8.8589-1.0258-1.4578-1.4271-2.0566-1.2909-2.0691zm-31.366 3.0572c0.109-0.0149 0.2465 0.25133 0.4666 0.67748 0.8648 1.6742 2.1415 2.9732 5.7041 5.8012 4.1769 3.3156 8.3533 7.5585 10.36 10.526 1.5445 2.2846 2.5007 3.8791 1.5116 2.5218-4.4278-6.0756-8.74-10.041-13.755-12.65-4.3563-2.2664-3.9275-1.0644 3.5724 10.024 3.7659 5.5675 6.3518 10.578 7.9168 15.338 1.575 4.7911 1.6226 5.7068 0.081 1.5674-3.1854-8.5537-8.4458-17.074-13.394-21.696-0.9916-0.92604-0.9916-0.92604 0.2062 0.66146 5.9477 7.8828 9.927 18.476 10.457 27.838 0.085 1.4972 0.077 2.7218-0.018 2.7218s-0.1721-0.20018-0.1721-0.44494c0-1.0107-1.9867-8.9313-3.0659-12.223-2.1691-6.6165-5.4837-12.246-9.8154-16.669-2.2334-2.2806-2.2335-2.2805-1.6408-4.9263 0.326-1.4552 0.789-4.1936 1.0289-6.0854 0.2726-2.1497 0.3749-2.9558 0.5566-2.9807zm-2.6702 13.56c0.7603 0.21996 5.7865 16.318 7.6502 24.611 1.0262 4.5659 0.8948 4.9582-0.1984 0.59272-3.1859-12.722-6.3589-18.363-10.983-19.527-1.5871-0.39963-1.6502-0.31953-0.8573 1.1002 2.2044 3.947 5.6165 15.352 7.6982 25.73 1.1838 5.9024 1.1201 6.069-0.6532 1.7084-2.8019-6.89-5.9457-12.672-10.075-18.529-1.8147-2.5742-1.8146-2.5742-0.5767-3.1218 3.2034-1.417 3.8203-3.3723 2.1177-6.7097-0.5264-1.0317-0.5261-1.0319 0.3586-0.84801 3.5649 0.74089 3.5389 0.75636 4.7201-2.8861 0.3304-1.0186 0.6625-1.9597 0.7385-2.0914 0.015-0.0267 0.035-0.036 0.06-0.0289zm-32.774 2.2257c0.3922 0.051 0.6198 1.064 1.1529 3.9336 0.3443 1.8532 0.9165 4.7088 1.2713 6.3459 0.7335 3.3851 0.7368 3.368-0.369 1.8521-2.6123-3.5811-4.1739-10.251-2.7363-11.689 0.2904-0.29038 0.5029-0.46605 0.6811-0.44287zm-2.4396 0.61702c0.2542 0.0366 0.3224 0.8125 0.5271 3.2572 0.1457 1.7404 0.492 3.9678 0.7695 4.9501 0.6447 2.2816 0.5468 2.2451-0.7096-0.26459-1.8478-3.6915-2.254-6.5588-1.0795-7.6218 0.2228-0.2016 0.3769-0.33755 0.4925-0.32091zm4.4002 0.98133c0.2742 0.0868 0.7896 1.06 1.5674 2.9264 2.4681 5.9226 5.7374 10.941 9.2862 14.255 2.4007 2.242 2.3028 2.3059-0.7431 0.48627-5.9919-3.5795-9.5106-8.8337-10.23-15.276-0.1875-1.6795-0.1548-2.4794 0.1193-2.3926zm-6.7634 0.30127c0.07-1e-3 0.1275 0.0168 0.168 0.0574 0.064 0.0644-0.6012 1.5-1.4795 3.19-0.8783 1.6899-1.5932 2.9854-1.5932 2.8789 0.01-0.33708 0.7923-3.5972 1.0837-4.4979 0.2205-0.68175 1.33-1.6212 1.821-1.6283zm132.69 0.33745c-0.2893 0.0195-0.582 0.0602-0.878 0.12196-4.9867 1.0412-6.1034 5.2117-2.4923 9.3095 1.0492 1.1904 1.0494 1.1908-1.494 1.1948-4.0829 6e-3 -7.601 2.2865-9.6872 6.2802-0.9726 1.8618-0.8734 1.8792-1.9286-0.33331-1.4447-3.0292-4.6622-5.815-7.491-6.4864-0.6053-0.14364-0.7898-4e-3 -1.5358 1.1581-2.5297 3.9423-8.3292 5.1662-13.425 2.8334-1.72-0.78746-1.8729-0.44218-0.6552 1.478 0.8602 1.3565 1.7925 1.9938 4.2452 2.9027 6.8471 2.5372 3.5242 9.1658-8.9178 17.788-2.9824 2.0668-2.9826 2.0665-3.9543 1.2134-4.7134-4.1384-12.59-1.0013-9.6485 3.8427 0.4753 0.78261 0.4752 0.78261-0.7203 1.5875-1.4838 0.99896-2.8171 2.724-3.2376 4.1889-0.1758 0.61243-0.3376 1.1428-0.3586 1.1782s-0.5366-0.17622-1.1452-0.47025c-6.2727-3.0307-13.572 0.64491-22.874 11.518-1.6184 1.8918-3.9598 4.622-5.2033 6.0668-6.1976 7.2013-11.348 9.1758-18.056 6.9226-4.7508-1.5959-7.1461-1.0902-13.198 2.7854-2.0052 1.284-2.0052 1.2836-4.8705 0.63614-6.319-1.4278-10.963-0.94606-15.785 1.6376-1.2293 0.65868-1.2292 0.65889-4.886-0.71986-6.9172-2.6081-8.9249-2.6474-13.812-0.2713-3.6131 1.7566-5.3838 1.7211-17.181-0.34468-5.0943-0.89199-5.0942-0.89208-6.7468-0.0305-3.6899 1.9238-8.1466 3.4516-12.699 4.3532-1.5214 0.30131-1.5214 0.30114-1.5214 1.5741 0 1.2729 1e-4 1.273 2.818 0.37879 5.1083-1.6211 8.2929-1.7275 14.909-0.49713 5.2428 0.97494 8.275 1.2641 13.097 1.249 4.2153-0.0132 5.8414-0.1551 14.949-1.3064 6.1439-0.77666 14.101-0.65382 18.521 0.28629 4.3969 0.93528 6.0898 0.86733 12.568-0.50488 7.9529-1.6847 13.296-1.6028 20.738 0.31729 4.8674 1.2559 7.7873 1.2752 14.32 0.0941 8.4571-1.5292 13.038-1.3923 18.137 0.54209 1.6005 0.60717 1.6005 0.60707 5.5562-0.23513 7.6699-1.633 8.6379-1.7516 14.275-1.7456 4.991 5e-3 5.5096 0.0538 9.1281 0.86248 9.551 2.1345 13.993 2.1633 27.781 0.18087 8.7365-1.2561 12.934-1.1871 18.788 0.30902 4.0697 1.0401 7.0959 0.97583 13.755-0.293 8.9612-1.7074 13.814-1.574 19.083 0.52451 1.2549 0.49982 2.3717 0.90847 2.4815 0.90847 0.594 0-0.7522-12.656-1.8857-17.727-2.5036-11.2-6.3193-17.712-16.509-28.174-10.354-10.631-12.456-13.987-13.215-21.113-0.1506-1.4139-0.3929-3.6958-0.5389-5.071-0.7217-6.7961-4.258-11.192-8.5985-10.9zm-123.49 0.98702c0.3441-8e-3 1.3969 0.91277 3.3776 2.9135 1.5982 1.6144 4.9297 4.5574 7.4036 6.5402 4.7194 3.7827 7.0115 5.7962 7.0115 6.1593 0 0.68662-4.0912-1.4035-6.8663-3.5078-1.2157-0.92194-2.4606-1.855-2.7657-2.0733-1.0625-0.75996 2.6113 3.2378 5.1206 5.5723 2.841 2.6429 2.9976 2.9033 0.6579 1.093-5.8827-4.5516-12.919-12.662-13.99-16.124-0.1155-0.37374-0.1057-0.56928 0.051-0.57309zm-11.672 0.0574c0.072 0.0301 0.033 0.31294-0.1824 0.87592-0.161 0.42037-0.5338 1.8954-0.8283 3.2778-0.2945 1.3824-0.6953 3.9423-0.8909 5.6886-0.3557 3.175-0.3555 3.175-0.2605-0.66146 0.096-3.9039 0.4059-5.6017 1.4769-8.1003 0.3172-0.74013 0.5927-1.1193 0.6852-1.0806zm4.1853 7.7298c0.171 0.0381 0.4126 0.27018 0.8961 0.73484 0.5319 0.51113 1.3646 1.1663 1.85 1.4557 0.8825 0.52623 0.8825 0.52584-0.5292 0.97203-0.7764 0.2454-1.5635 0.49371-1.7487 0.55191-1.1764 0.36945-1.8269-1.9039-0.94-3.2846 0.2006-0.31222 0.3008-0.46806 0.4718-0.42995zm26.184 1.7937c0.062-0.0588 0.6875 0.52589 1.5203 1.4335 2.2424 2.4434 3.457 5.7432 6.1702 16.759 1.5319 6.2195 2.9481 14.208 1.9823 11.183-1.4271-4.471-5.6602-13.902-6.5397-14.57-1.2854-0.97607-2.9806-0.37554-2.4479 0.86713 1.0324 2.4086 2.5446 9.051 3.0551 13.42 0.098 0.83674 0.105 1.5214 0.015 1.5214s-0.1628-0.25338-0.1628-0.56328c0-2.0789-2.5642-11.077-4.1284-14.486-0.8956-1.9522-0.8958-1.952 1.5172-1.7632 2.4131 0.18875 2.4129 0.18886 2.2293-1.355-0.4595-3.8636-1.8174-9.1143-3.2018-12.381-0.015-0.0356-0.018-0.0572-0.01-0.0656zm-22.116 3.2685c1.9641-2e-3 3.9366 0.59202 5.4513 1.7508 0.6552 0.50128-0.9703 1.4994-5.0565 3.1052-2.9557 1.1615-3.4672 1.2528-3.6949 0.65939-0.8631-2.249-1.3378-4.2503-1.0474-4.4152 1.2975-0.73691 2.8199-1.0987 4.3475-1.1002zm102.41 3.1672c1.754 0.10796 4.9951 5.7209 5.2508 10.685 0.3795 7.3626-3.0081 11.112-21.889 24.23-3.1252 2.1713-8.5963 6.1277-12.158 8.7922-6.4756 4.8446-6.4752 4.8446 4.9186-6.4823 6.2666-6.2298 12.194-12.339 13.172-13.576 6.3604-8.0411 9.1523-14.341 9.6129-21.694 0.089-1.4152 0.5077-1.9909 1.0924-1.9549zm14.725 1.7834c0.3047-0.12041 2.5038 4.2351 3.3739 6.9164 1.473 4.5374 2.0389 10.437 1.5229 15.865-0.4258 4.4792-0.3095 4.2323-2.0262 4.3072-3.9776 0.17349-9.5168 3.2056-14.969 8.1933-3.5745 3.27-3.5832 3.329 0.2517-1.7188 9.8199-12.926 14.032-24.612 11.893-32.996-0.094-0.36835-0.1025-0.54407-0.046-0.56637zm-109.82 1.0955c1.0925 0 1.5875 1.7327 1.5875 5.5562 0 5.1449-0.3875 5.244-1.2925 0.33021-0.9563-5.1927-0.991-5.8865-0.295-5.8865zm2.4474 1.1457c0.1234 0.029 0.2729 0.12533 0.448 0.29507 2.6919 2.6091 4.2691 8.3625 4.5377 16.551 0.1964 5.9835-0.4686 11.525-0.7819 6.5174-0.3621-5.7852-1.3357-10.701-3.1998-16.15-1.4776-4.32-1.8681-7.4162-1.004-7.213zm-12.679 1.1358c1.0926 0.10353 0.2814 5.5579-2.3301 14.212-1.302 4.3143-1.3148 5.1095-0.1385 8.3592 1.1994 3.3134 1.2121 3.1939-0.7778 7.2021-0.9627 1.9389-2.1168 4.8055-2.6535 6.5903-0.5225 1.7374-0.9908 3.278-1.0408 3.4236-0.215 0.62786-0.5534-2.0485-0.5354-4.2333 0.015-1.847 0.2664-3.3904 1.1193-6.8792 0.6048-2.4739 1.2114-5.3909 1.3483-6.4823 0.1368-1.0914 0.3899-3.1155 0.5622-4.4979s0.598-4.0018 0.9457-5.8208c0.9243-4.8356 0.7954-4.8805-0.8036-0.28009-1.0798 3.1066-2.1261 8.0238-2.4241 11.393-0.199 2.249-0.199 2.249-0.5726 0.79375-1.4271-5.5594 0.89-14.719 5.5702-22.02 0.7911-1.2342 1.3664-1.7941 1.7307-1.7596zm16.341 0.38448c0.1321-0.0131 0.4946 0.33972 1.1508 1.0516 4.9021 5.3182 5.5054 25.655 1.048 35.325-0.9259 2.0089-2.0223 3.3163-1.7606 2.0996 0.078-0.3638 0.3984-1.8521 0.7116-3.3073 2.3522-10.929 1.9481-25.901-0.9188-34.026-0.2649-0.75082-0.3631-1.1299-0.231-1.1431zm-8.9985 0.34623c0.437-0.0369 0.9505 0.73359 1.4702 2.6014 0.9027 3.2454 1.6416 10.059 0.847 7.814-0.642-1.8137-0.765-1.391-1.1131 3.8365-0.5474 8.2202-0.9566 9.7374-1.1606 4.2995-0.095-2.5347-0.3893-5.5862-0.7013-7.276-1.0732-5.8124-0.4587-11.181 0.6578-11.275zm126.51 1.958c0.1029-0.0288 0.2881 0.72721 0.617 2.0717 1.146 4.684 3.0426 8.7261 5.2498 11.189 0.4838 0.53989 0.5543 0.72086 0.2372 0.60823-3.4165-1.2136-4.2372-0.90534-5.6327 2.1151-0.488 1.0562-1.4973 2.8025-2.2428 3.8809-1.8751 2.7125-2.5069 3.2393-1.5513 1.2929 2.3174-4.7202 3.2214-9.444 3.2024-16.735-0.01-3.051-0.012-4.3854 0.1204-4.4225zm-131.13 0.6506c0.3305 0.0245 0.6878 0.56457 1.2578 1.634 2.3251 4.362 2.3088 7.9618-0.066 14.838-0.9802 2.8376-2.0674 6.2309-2.4163 7.5406-1.3968 5.2428-0.5866-2.4235 0.9441-8.9328 0.9848-4.1878 1.2406-7.3966 0.7834-9.8196-0.5893-3.123-0.8018-2.7197-1.4475 2.745-0.9179 7.7689-0.7959 7.1553-1.1833 5.9531-1.0614-3.2936-0.5888-9.0247 1.0309-12.499 0.4628-0.99277 0.7666-1.4839 1.0971-1.4594zm9.4056 7.8104c0.073-8e-3 0.1636 0.42633 0.3085 1.1209 1.4597 6.9946-0.038 17.295-3.5403 24.342-1.5288 3.0761-2.5464 4.4472-1.6692 2.249 2.3162-5.8042 3.9923-14.41 4.5098-23.151 0.1958-3.3073 0.2693-4.5475 0.3912-4.5604zm-7.3928 12.728c0.025 0.0497-0.01 0.47284-0.07 1.2252-0.3175 3.9133-1.6955 8.8384-3.3311 11.906-1.7376 3.2594-2.1363 3.241-0.6702-0.031 0.8476-1.8914 2.9242-8.4135 3.6127-11.346 0.297-1.265 0.4269-1.8184 0.4589-1.7544zm-6.1588 6.4068c0.092-0.0237 0.1436 0.0672 0.1436 0.29559 0 2.2363-0.4893 3.902-2.037 6.904-0.8032 1.5579-1.7391 3.5468-2.0795 4.4199-0.7753 1.9888-0.9374 0.5744-0.2408-2.1001 0.9299-3.57 3.5685-9.3532 4.2137-9.5193z" stroke-width=".26458"/></g></svg>